G04 #@! TF.GenerationSoftware,KiCad,Pcbnew,(6.0.11)*
G04 #@! TF.CreationDate,2023-07-10T16:30:22-05:00*
G04 #@! TF.ProjectId,sailor_moon,7361696c-6f72-45f6-9d6f-6f6e2e6b6963,rev?*
G04 #@! TF.SameCoordinates,Original*
G04 #@! TF.FileFunction,Legend,Bot*
G04 #@! TF.FilePolarity,Positive*
%FSLAX46Y46*%
G04 Gerber Fmt 4.6, Leading zero omitted, Abs format (unit mm)*
G04 Created by KiCad (PCBNEW (6.0.11)) date 2023-07-10 16:30:22*
%MOMM*%
%LPD*%
G01*
G04 APERTURE LIST*
G04 Aperture macros list*
%AMRotRect*
0 Rectangle, with rotation*
0 The origin of the aperture is its center*
0 $1 length*
0 $2 width*
0 $3 Rotation angle, in degrees counterclockwise*
0 Add horizontal line*
21,1,$1,$2,0,0,$3*%
G04 Aperture macros list end*
%ADD10C,0.200000*%
%ADD11C,0.250000*%
%ADD12C,0.150000*%
%ADD13C,0.100000*%
%ADD14C,0.300000*%
%ADD15C,0.120000*%
%ADD16C,0.700000*%
%ADD17C,0.500000*%
%ADD18RotRect,1.800000X1.800000X240.000000*%
%ADD19C,1.800000*%
%ADD20C,1.400000*%
%ADD21R,1.600000X1.600000*%
%ADD22C,1.600000*%
%ADD23R,1.500000X1.050000*%
%ADD24O,1.500000X1.050000*%
%ADD25R,1.700000X1.700000*%
%ADD26C,1.700000*%
%ADD27RotRect,1.800000X1.800000X135.000000*%
%ADD28O,1.700000X1.700000*%
%ADD29RotRect,1.800000X1.800000X315.000000*%
%ADD30RotRect,1.800000X1.800000X45.000000*%
G04 APERTURE END LIST*
D10*
X129041666Y-120115476D02*
X129041666Y-118865476D01*
X128505952Y-120115476D02*
X128505952Y-119460714D01*
X128565476Y-119341666D01*
X128684523Y-119282142D01*
X128863095Y-119282142D01*
X128982142Y-119341666D01*
X129041666Y-119401190D01*
X128089285Y-119282142D02*
X127613095Y-119282142D01*
X127910714Y-118865476D02*
X127910714Y-119936904D01*
X127851190Y-120055952D01*
X127732142Y-120115476D01*
X127613095Y-120115476D01*
X127375000Y-119282142D02*
X126898809Y-119282142D01*
X127196428Y-118865476D02*
X127196428Y-119936904D01*
X127136904Y-120055952D01*
X127017857Y-120115476D01*
X126898809Y-120115476D01*
X126482142Y-119282142D02*
X126482142Y-120532142D01*
X126482142Y-119341666D02*
X126363095Y-119282142D01*
X126125000Y-119282142D01*
X126005952Y-119341666D01*
X125946428Y-119401190D01*
X125886904Y-119520238D01*
X125886904Y-119877380D01*
X125946428Y-119996428D01*
X126005952Y-120055952D01*
X126125000Y-120115476D01*
X126363095Y-120115476D01*
X126482142Y-120055952D01*
X125410714Y-120055952D02*
X125291666Y-120115476D01*
X125053571Y-120115476D01*
X124934523Y-120055952D01*
X124875000Y-119936904D01*
X124875000Y-119877380D01*
X124934523Y-119758333D01*
X125053571Y-119698809D01*
X125232142Y-119698809D01*
X125351190Y-119639285D01*
X125410714Y-119520238D01*
X125410714Y-119460714D01*
X125351190Y-119341666D01*
X125232142Y-119282142D01*
X125053571Y-119282142D01*
X124934523Y-119341666D01*
X124339285Y-119996428D02*
X124279761Y-120055952D01*
X124339285Y-120115476D01*
X124398809Y-120055952D01*
X124339285Y-119996428D01*
X124339285Y-120115476D01*
X124339285Y-119341666D02*
X124279761Y-119401190D01*
X124339285Y-119460714D01*
X124398809Y-119401190D01*
X124339285Y-119341666D01*
X124339285Y-119460714D01*
X122851190Y-118805952D02*
X123922619Y-120413095D01*
X121541666Y-118805952D02*
X122613095Y-120413095D01*
X121184523Y-120055952D02*
X121065476Y-120115476D01*
X120827380Y-120115476D01*
X120708333Y-120055952D01*
X120648809Y-119936904D01*
X120648809Y-119877380D01*
X120708333Y-119758333D01*
X120827380Y-119698809D01*
X121005952Y-119698809D01*
X121125000Y-119639285D01*
X121184523Y-119520238D01*
X121184523Y-119460714D01*
X121125000Y-119341666D01*
X121005952Y-119282142D01*
X120827380Y-119282142D01*
X120708333Y-119341666D01*
X119577380Y-120115476D02*
X119577380Y-119460714D01*
X119636904Y-119341666D01*
X119755952Y-119282142D01*
X119994047Y-119282142D01*
X120113095Y-119341666D01*
X119577380Y-120055952D02*
X119696428Y-120115476D01*
X119994047Y-120115476D01*
X120113095Y-120055952D01*
X120172619Y-119936904D01*
X120172619Y-119817857D01*
X120113095Y-119698809D01*
X119994047Y-119639285D01*
X119696428Y-119639285D01*
X119577380Y-119579761D01*
X118982142Y-120115476D02*
X118982142Y-119282142D01*
X118982142Y-118865476D02*
X119041666Y-118925000D01*
X118982142Y-118984523D01*
X118922619Y-118925000D01*
X118982142Y-118865476D01*
X118982142Y-118984523D01*
X118208333Y-120115476D02*
X118327380Y-120055952D01*
X118386904Y-119936904D01*
X118386904Y-118865476D01*
X117553571Y-120115476D02*
X117672619Y-120055952D01*
X117732142Y-119996428D01*
X117791666Y-119877380D01*
X117791666Y-119520238D01*
X117732142Y-119401190D01*
X117672619Y-119341666D01*
X117553571Y-119282142D01*
X117375000Y-119282142D01*
X117255952Y-119341666D01*
X117196428Y-119401190D01*
X117136904Y-119520238D01*
X117136904Y-119877380D01*
X117196428Y-119996428D01*
X117255952Y-120055952D01*
X117375000Y-120115476D01*
X117553571Y-120115476D01*
X116601190Y-120115476D02*
X116601190Y-119282142D01*
X116601190Y-119520238D02*
X116541666Y-119401190D01*
X116482142Y-119341666D01*
X116363095Y-119282142D01*
X116244047Y-119282142D01*
X115827380Y-120115476D02*
X115827380Y-119282142D01*
X115827380Y-119401190D02*
X115767857Y-119341666D01*
X115648809Y-119282142D01*
X115470238Y-119282142D01*
X115351190Y-119341666D01*
X115291666Y-119460714D01*
X115291666Y-120115476D01*
X115291666Y-119460714D02*
X115232142Y-119341666D01*
X115113095Y-119282142D01*
X114934523Y-119282142D01*
X114815476Y-119341666D01*
X114755952Y-119460714D01*
X114755952Y-120115476D01*
X113982142Y-120115476D02*
X114101190Y-120055952D01*
X114160714Y-119996428D01*
X114220238Y-119877380D01*
X114220238Y-119520238D01*
X114160714Y-119401190D01*
X114101190Y-119341666D01*
X113982142Y-119282142D01*
X113803571Y-119282142D01*
X113684523Y-119341666D01*
X113625000Y-119401190D01*
X113565476Y-119520238D01*
X113565476Y-119877380D01*
X113625000Y-119996428D01*
X113684523Y-120055952D01*
X113803571Y-120115476D01*
X113982142Y-120115476D01*
X112851190Y-120115476D02*
X112970238Y-120055952D01*
X113029761Y-119996428D01*
X113089285Y-119877380D01*
X113089285Y-119520238D01*
X113029761Y-119401190D01*
X112970238Y-119341666D01*
X112851190Y-119282142D01*
X112672619Y-119282142D01*
X112553571Y-119341666D01*
X112494047Y-119401190D01*
X112434523Y-119520238D01*
X112434523Y-119877380D01*
X112494047Y-119996428D01*
X112553571Y-120055952D01*
X112672619Y-120115476D01*
X112851190Y-120115476D01*
X111898809Y-119282142D02*
X111898809Y-120115476D01*
X111898809Y-119401190D02*
X111839285Y-119341666D01*
X111720238Y-119282142D01*
X111541666Y-119282142D01*
X111422619Y-119341666D01*
X111363095Y-119460714D01*
X111363095Y-120115476D01*
X110767857Y-119996428D02*
X110708333Y-120055952D01*
X110767857Y-120115476D01*
X110827380Y-120055952D01*
X110767857Y-119996428D01*
X110767857Y-120115476D01*
X109636904Y-120115476D02*
X109636904Y-119460714D01*
X109696428Y-119341666D01*
X109815476Y-119282142D01*
X110053571Y-119282142D01*
X110172619Y-119341666D01*
X109636904Y-120055952D02*
X109755952Y-120115476D01*
X110053571Y-120115476D01*
X110172619Y-120055952D01*
X110232142Y-119936904D01*
X110232142Y-119817857D01*
X110172619Y-119698809D01*
X110053571Y-119639285D01*
X109755952Y-119639285D01*
X109636904Y-119579761D01*
X108863095Y-120115476D02*
X108982142Y-120055952D01*
X109041666Y-119936904D01*
X109041666Y-118865476D01*
X108565476Y-119282142D02*
X108089285Y-119282142D01*
X108386904Y-118865476D02*
X108386904Y-119936904D01*
X108327380Y-120055952D01*
X108208333Y-120115476D01*
X108089285Y-120115476D01*
X107672619Y-120115476D02*
X107672619Y-118865476D01*
X107672619Y-119341666D02*
X107553571Y-119282142D01*
X107315476Y-119282142D01*
X107196428Y-119341666D01*
X107136904Y-119401190D01*
X107077380Y-119520238D01*
X107077380Y-119877380D01*
X107136904Y-119996428D01*
X107196428Y-120055952D01*
X107315476Y-120115476D01*
X107553571Y-120115476D01*
X107672619Y-120055952D01*
X106541666Y-120115476D02*
X106541666Y-119282142D01*
X106541666Y-118865476D02*
X106601190Y-118925000D01*
X106541666Y-118984523D01*
X106482142Y-118925000D01*
X106541666Y-118865476D01*
X106541666Y-118984523D01*
X105470238Y-120055952D02*
X105589285Y-120115476D01*
X105827380Y-120115476D01*
X105946428Y-120055952D01*
X106005952Y-119936904D01*
X106005952Y-119460714D01*
X105946428Y-119341666D01*
X105827380Y-119282142D01*
X105589285Y-119282142D01*
X105470238Y-119341666D01*
X105410714Y-119460714D01*
X105410714Y-119579761D01*
X106005952Y-119698809D01*
X104875000Y-120115476D02*
X104875000Y-119282142D01*
X104875000Y-119520238D02*
X104815476Y-119401190D01*
X104755952Y-119341666D01*
X104636904Y-119282142D01*
X104517857Y-119282142D01*
X104101190Y-119996428D02*
X104041666Y-120055952D01*
X104101190Y-120115476D01*
X104160714Y-120055952D01*
X104101190Y-119996428D01*
X104101190Y-120115476D01*
X102970238Y-119282142D02*
X102970238Y-120115476D01*
X103505952Y-119282142D02*
X103505952Y-119936904D01*
X103446428Y-120055952D01*
X103327380Y-120115476D01*
X103148809Y-120115476D01*
X103029761Y-120055952D01*
X102970238Y-119996428D01*
X102434523Y-120055952D02*
X102315476Y-120115476D01*
X102077380Y-120115476D01*
X101958333Y-120055952D01*
X101898809Y-119936904D01*
X101898809Y-119877380D01*
X101958333Y-119758333D01*
X102077380Y-119698809D01*
X102255952Y-119698809D01*
X102375000Y-119639285D01*
X102434523Y-119520238D01*
X102434523Y-119460714D01*
X102375000Y-119341666D01*
X102255952Y-119282142D01*
X102077380Y-119282142D01*
X101958333Y-119341666D01*
D11*
X158414166Y-117713000D02*
X158480833Y-117779666D01*
X158680833Y-117846333D01*
X158814166Y-117846333D01*
X159014166Y-117779666D01*
X159147500Y-117646333D01*
X159214166Y-117513000D01*
X159280833Y-117246333D01*
X159280833Y-117046333D01*
X159214166Y-116779666D01*
X159147500Y-116646333D01*
X159014166Y-116513000D01*
X158814166Y-116446333D01*
X158680833Y-116446333D01*
X158480833Y-116513000D01*
X158414166Y-116579666D01*
X157814166Y-117846333D02*
X157814166Y-116913000D01*
X157814166Y-117179666D02*
X157747500Y-117046333D01*
X157680833Y-116979666D01*
X157547500Y-116913000D01*
X157414166Y-116913000D01*
X156414166Y-117779666D02*
X156547500Y-117846333D01*
X156814166Y-117846333D01*
X156947500Y-117779666D01*
X157014166Y-117646333D01*
X157014166Y-117113000D01*
X156947500Y-116979666D01*
X156814166Y-116913000D01*
X156547500Y-116913000D01*
X156414166Y-116979666D01*
X156347500Y-117113000D01*
X156347500Y-117246333D01*
X157014166Y-117379666D01*
X155147500Y-117846333D02*
X155147500Y-117113000D01*
X155214166Y-116979666D01*
X155347500Y-116913000D01*
X155614166Y-116913000D01*
X155747500Y-116979666D01*
X155147500Y-117779666D02*
X155280833Y-117846333D01*
X155614166Y-117846333D01*
X155747500Y-117779666D01*
X155814166Y-117646333D01*
X155814166Y-117513000D01*
X155747500Y-117379666D01*
X155614166Y-117313000D01*
X155280833Y-117313000D01*
X155147500Y-117246333D01*
X154680833Y-116913000D02*
X154147500Y-116913000D01*
X154480833Y-116446333D02*
X154480833Y-117646333D01*
X154414166Y-117779666D01*
X154280833Y-117846333D01*
X154147500Y-117846333D01*
X153147500Y-117779666D02*
X153280833Y-117846333D01*
X153547500Y-117846333D01*
X153680833Y-117779666D01*
X153747500Y-117646333D01*
X153747500Y-117113000D01*
X153680833Y-116979666D01*
X153547500Y-116913000D01*
X153280833Y-116913000D01*
X153147500Y-116979666D01*
X153080833Y-117113000D01*
X153080833Y-117246333D01*
X153747500Y-117379666D01*
X151880833Y-117846333D02*
X151880833Y-116446333D01*
X151880833Y-117779666D02*
X152014166Y-117846333D01*
X152280833Y-117846333D01*
X152414166Y-117779666D01*
X152480833Y-117713000D01*
X152547500Y-117579666D01*
X152547500Y-117179666D01*
X152480833Y-117046333D01*
X152414166Y-116979666D01*
X152280833Y-116913000D01*
X152014166Y-116913000D01*
X151880833Y-116979666D01*
X150147500Y-117846333D02*
X150147500Y-116446333D01*
X150147500Y-116979666D02*
X150014166Y-116913000D01*
X149747500Y-116913000D01*
X149614166Y-116979666D01*
X149547500Y-117046333D01*
X149480833Y-117179666D01*
X149480833Y-117579666D01*
X149547500Y-117713000D01*
X149614166Y-117779666D01*
X149747500Y-117846333D01*
X150014166Y-117846333D01*
X150147500Y-117779666D01*
X149014166Y-116913000D02*
X148680833Y-117846333D01*
X148347500Y-116913000D02*
X148680833Y-117846333D01*
X148814166Y-118179666D01*
X148880833Y-118246333D01*
X149014166Y-118313000D01*
X146747500Y-117846333D02*
X146747500Y-116446333D01*
X145947500Y-117846333D01*
X145947500Y-116446333D01*
X145280833Y-117846333D02*
X145280833Y-116913000D01*
X145280833Y-116446333D02*
X145347500Y-116513000D01*
X145280833Y-116579666D01*
X145214166Y-116513000D01*
X145280833Y-116446333D01*
X145280833Y-116579666D01*
X144614166Y-116913000D02*
X144614166Y-117846333D01*
X144614166Y-117046333D02*
X144547500Y-116979666D01*
X144414166Y-116913000D01*
X144214166Y-116913000D01*
X144080833Y-116979666D01*
X144014166Y-117113000D01*
X144014166Y-117846333D01*
X143347500Y-116913000D02*
X143347500Y-118113000D01*
X143414166Y-118246333D01*
X143547500Y-118313000D01*
X143614166Y-118313000D01*
X143347500Y-116446333D02*
X143414166Y-116513000D01*
X143347500Y-116579666D01*
X143280833Y-116513000D01*
X143347500Y-116446333D01*
X143347500Y-116579666D01*
X142680833Y-117846333D02*
X142680833Y-116913000D01*
X142680833Y-116446333D02*
X142747500Y-116513000D01*
X142680833Y-116579666D01*
X142614166Y-116513000D01*
X142680833Y-116446333D01*
X142680833Y-116579666D01*
X141414166Y-117779666D02*
X141547500Y-117846333D01*
X141814166Y-117846333D01*
X141947500Y-117779666D01*
X142014166Y-117713000D01*
X142080833Y-117579666D01*
X142080833Y-117179666D01*
X142014166Y-117046333D01*
X141947500Y-116979666D01*
X141814166Y-116913000D01*
X141547500Y-116913000D01*
X141414166Y-116979666D01*
X140814166Y-117846333D02*
X140814166Y-116913000D01*
X140814166Y-116446333D02*
X140880833Y-116513000D01*
X140814166Y-116579666D01*
X140747500Y-116513000D01*
X140814166Y-116446333D01*
X140814166Y-116579666D01*
X139547500Y-117846333D02*
X139547500Y-117113000D01*
X139614166Y-116979666D01*
X139747500Y-116913000D01*
X140014166Y-116913000D01*
X140147500Y-116979666D01*
X139547500Y-117779666D02*
X139680833Y-117846333D01*
X140014166Y-117846333D01*
X140147500Y-117779666D01*
X140214166Y-117646333D01*
X140214166Y-117513000D01*
X140147500Y-117379666D01*
X140014166Y-117313000D01*
X139680833Y-117313000D01*
X139547500Y-117246333D01*
X138880833Y-116913000D02*
X138880833Y-117846333D01*
X138880833Y-117046333D02*
X138814166Y-116979666D01*
X138680833Y-116913000D01*
X138480833Y-116913000D01*
X138347500Y-116979666D01*
X138280833Y-117113000D01*
X138280833Y-117846333D01*
X159347500Y-119167000D02*
X159080833Y-120100333D01*
X158814166Y-119433666D01*
X158547500Y-120100333D01*
X158280833Y-119167000D01*
X157747500Y-120100333D02*
X157747500Y-119167000D01*
X157747500Y-118700333D02*
X157814166Y-118767000D01*
X157747500Y-118833666D01*
X157680833Y-118767000D01*
X157747500Y-118700333D01*
X157747500Y-118833666D01*
X157280833Y-119167000D02*
X156747500Y-119167000D01*
X157080833Y-118700333D02*
X157080833Y-119900333D01*
X157014166Y-120033666D01*
X156880833Y-120100333D01*
X156747500Y-120100333D01*
X156280833Y-120100333D02*
X156280833Y-118700333D01*
X155680833Y-120100333D02*
X155680833Y-119367000D01*
X155747500Y-119233666D01*
X155880833Y-119167000D01*
X156080833Y-119167000D01*
X156214166Y-119233666D01*
X156280833Y-119300333D01*
X153947500Y-120100333D02*
X153947500Y-118700333D01*
X153347500Y-120100333D02*
X153347500Y-119367000D01*
X153414166Y-119233666D01*
X153547500Y-119167000D01*
X153747500Y-119167000D01*
X153880833Y-119233666D01*
X153947500Y-119300333D01*
X152147500Y-120033666D02*
X152280833Y-120100333D01*
X152547500Y-120100333D01*
X152680833Y-120033666D01*
X152747500Y-119900333D01*
X152747500Y-119367000D01*
X152680833Y-119233666D01*
X152547500Y-119167000D01*
X152280833Y-119167000D01*
X152147500Y-119233666D01*
X152080833Y-119367000D01*
X152080833Y-119500333D01*
X152747500Y-119633666D01*
X151280833Y-120100333D02*
X151414166Y-120033666D01*
X151480833Y-119900333D01*
X151480833Y-118700333D01*
X150747500Y-119167000D02*
X150747500Y-120567000D01*
X150747500Y-119233666D02*
X150614166Y-119167000D01*
X150347500Y-119167000D01*
X150214166Y-119233666D01*
X150147500Y-119300333D01*
X150080833Y-119433666D01*
X150080833Y-119833666D01*
X150147500Y-119967000D01*
X150214166Y-120033666D01*
X150347500Y-120100333D01*
X150614166Y-120100333D01*
X150747500Y-120033666D01*
X148614166Y-119167000D02*
X148080833Y-119167000D01*
X148414166Y-120100333D02*
X148414166Y-118900333D01*
X148347500Y-118767000D01*
X148214166Y-118700333D01*
X148080833Y-118700333D01*
X147614166Y-120100333D02*
X147614166Y-119167000D01*
X147614166Y-119433666D02*
X147547500Y-119300333D01*
X147480833Y-119233666D01*
X147347500Y-119167000D01*
X147214166Y-119167000D01*
X146547500Y-120100333D02*
X146680833Y-120033666D01*
X146747500Y-119967000D01*
X146814166Y-119833666D01*
X146814166Y-119433666D01*
X146747500Y-119300333D01*
X146680833Y-119233666D01*
X146547500Y-119167000D01*
X146347500Y-119167000D01*
X146214166Y-119233666D01*
X146147500Y-119300333D01*
X146080833Y-119433666D01*
X146080833Y-119833666D01*
X146147500Y-119967000D01*
X146214166Y-120033666D01*
X146347500Y-120100333D01*
X146547500Y-120100333D01*
X145480833Y-120100333D02*
X145480833Y-119167000D01*
X145480833Y-119300333D02*
X145414166Y-119233666D01*
X145280833Y-119167000D01*
X145080833Y-119167000D01*
X144947500Y-119233666D01*
X144880833Y-119367000D01*
X144880833Y-120100333D01*
X144880833Y-119367000D02*
X144814166Y-119233666D01*
X144680833Y-119167000D01*
X144480833Y-119167000D01*
X144347500Y-119233666D01*
X144280833Y-119367000D01*
X144280833Y-120100333D01*
X141680833Y-119433666D02*
X141747500Y-119367000D01*
X141880833Y-119300333D01*
X142014166Y-119300333D01*
X142147500Y-119367000D01*
X142214166Y-119433666D01*
X142280833Y-119567000D01*
X142280833Y-119700333D01*
X142214166Y-119833666D01*
X142147500Y-119900333D01*
X142014166Y-119967000D01*
X141880833Y-119967000D01*
X141747500Y-119900333D01*
X141680833Y-119833666D01*
X141680833Y-119300333D02*
X141680833Y-119833666D01*
X141614166Y-119900333D01*
X141547500Y-119900333D01*
X141414166Y-119833666D01*
X141347500Y-119700333D01*
X141347500Y-119367000D01*
X141480833Y-119167000D01*
X141680833Y-119033666D01*
X141947500Y-118967000D01*
X142214166Y-119033666D01*
X142414166Y-119167000D01*
X142547500Y-119367000D01*
X142614166Y-119633666D01*
X142547500Y-119900333D01*
X142414166Y-120100333D01*
X142214166Y-120233666D01*
X141947500Y-120300333D01*
X141680833Y-120233666D01*
X141480833Y-120100333D01*
X140147500Y-120100333D02*
X140147500Y-119367000D01*
X140214166Y-119233666D01*
X140347500Y-119167000D01*
X140614166Y-119167000D01*
X140747500Y-119233666D01*
X140147500Y-120033666D02*
X140280833Y-120100333D01*
X140614166Y-120100333D01*
X140747500Y-120033666D01*
X140814166Y-119900333D01*
X140814166Y-119767000D01*
X140747500Y-119633666D01*
X140614166Y-119567000D01*
X140280833Y-119567000D01*
X140147500Y-119500333D01*
X139280833Y-120100333D02*
X139414166Y-120033666D01*
X139480833Y-119900333D01*
X139480833Y-118700333D01*
X138947500Y-119167000D02*
X138414166Y-119167000D01*
X138747500Y-118700333D02*
X138747500Y-119900333D01*
X138680833Y-120033666D01*
X138547500Y-120100333D01*
X138414166Y-120100333D01*
X138280833Y-120233666D02*
X137214166Y-120233666D01*
X136880833Y-120100333D02*
X136880833Y-118700333D01*
X136880833Y-119233666D02*
X136747500Y-119167000D01*
X136480833Y-119167000D01*
X136347500Y-119233666D01*
X136280833Y-119300333D01*
X136214166Y-119433666D01*
X136214166Y-119833666D01*
X136280833Y-119967000D01*
X136347500Y-120033666D01*
X136480833Y-120100333D01*
X136747500Y-120100333D01*
X136880833Y-120033666D01*
X135614166Y-120100333D02*
X135614166Y-119167000D01*
X135614166Y-118700333D02*
X135680833Y-118767000D01*
X135614166Y-118833666D01*
X135547500Y-118767000D01*
X135614166Y-118700333D01*
X135614166Y-118833666D01*
X134414166Y-120033666D02*
X134547500Y-120100333D01*
X134814166Y-120100333D01*
X134947500Y-120033666D01*
X135014166Y-119900333D01*
X135014166Y-119367000D01*
X134947500Y-119233666D01*
X134814166Y-119167000D01*
X134547500Y-119167000D01*
X134414166Y-119233666D01*
X134347500Y-119367000D01*
X134347500Y-119500333D01*
X135014166Y-119633666D01*
X133747500Y-120100333D02*
X133747500Y-119167000D01*
X133747500Y-119433666D02*
X133680833Y-119300333D01*
X133614166Y-119233666D01*
X133480833Y-119167000D01*
X133347500Y-119167000D01*
D12*
X159546756Y-104872651D02*
X158680730Y-104372651D01*
X158561682Y-104578847D01*
X158531493Y-104726375D01*
X158566353Y-104856472D01*
X158625022Y-104945331D01*
X158766170Y-105081808D01*
X158889887Y-105153237D01*
X159078654Y-105207235D01*
X159184942Y-105213615D01*
X159315040Y-105178756D01*
X159427708Y-105078847D01*
X159546756Y-104872651D01*
X158287018Y-105245056D02*
X158221969Y-105262486D01*
X158133111Y-105321155D01*
X158014063Y-105527351D01*
X158007684Y-105633639D01*
X158025113Y-105698688D01*
X158083783Y-105787547D01*
X158166261Y-105835166D01*
X158313789Y-105865355D01*
X159094375Y-105656198D01*
X158784851Y-106192309D01*
X154375000Y-141149285D02*
X154625000Y-140792142D01*
X154803571Y-141149285D02*
X154803571Y-140399285D01*
X154517857Y-140399285D01*
X154446428Y-140435000D01*
X154410714Y-140470714D01*
X154375000Y-140542142D01*
X154375000Y-140649285D01*
X154410714Y-140720714D01*
X154446428Y-140756428D01*
X154517857Y-140792142D01*
X154803571Y-140792142D01*
X154089285Y-140470714D02*
X154053571Y-140435000D01*
X153982142Y-140399285D01*
X153803571Y-140399285D01*
X153732142Y-140435000D01*
X153696428Y-140470714D01*
X153660714Y-140542142D01*
X153660714Y-140613571D01*
X153696428Y-140720714D01*
X154125000Y-141149285D01*
X153660714Y-141149285D01*
X154339285Y-146679285D02*
X154767857Y-146679285D01*
X154553571Y-146679285D02*
X154553571Y-145929285D01*
X154625000Y-146036428D01*
X154696428Y-146107857D01*
X154767857Y-146143571D01*
X154017857Y-146679285D02*
X154017857Y-145929285D01*
X153946428Y-146393571D02*
X153732142Y-146679285D01*
X153732142Y-146179285D02*
X154017857Y-146465000D01*
X116244000Y-143918857D02*
X116279714Y-143954571D01*
X116386857Y-143990285D01*
X116458285Y-143990285D01*
X116565428Y-143954571D01*
X116636857Y-143883142D01*
X116672571Y-143811714D01*
X116708285Y-143668857D01*
X116708285Y-143561714D01*
X116672571Y-143418857D01*
X116636857Y-143347428D01*
X116565428Y-143276000D01*
X116458285Y-143240285D01*
X116386857Y-143240285D01*
X116279714Y-143276000D01*
X116244000Y-143311714D01*
X115994000Y-143240285D02*
X115529714Y-143240285D01*
X115779714Y-143526000D01*
X115672571Y-143526000D01*
X115601142Y-143561714D01*
X115565428Y-143597428D01*
X115529714Y-143668857D01*
X115529714Y-143847428D01*
X115565428Y-143918857D01*
X115601142Y-143954571D01*
X115672571Y-143990285D01*
X115886857Y-143990285D01*
X115958285Y-143954571D01*
X115994000Y-143918857D01*
X118589285Y-146419285D02*
X119017857Y-146419285D01*
X118803571Y-146419285D02*
X118803571Y-145669285D01*
X118875000Y-145776428D01*
X118946428Y-145847857D01*
X119017857Y-145883571D01*
X118125000Y-145669285D02*
X118053571Y-145669285D01*
X117982142Y-145705000D01*
X117946428Y-145740714D01*
X117910714Y-145812142D01*
X117875000Y-145955000D01*
X117875000Y-146133571D01*
X117910714Y-146276428D01*
X117946428Y-146347857D01*
X117982142Y-146383571D01*
X118053571Y-146419285D01*
X118125000Y-146419285D01*
X118196428Y-146383571D01*
X118232142Y-146347857D01*
X118267857Y-146276428D01*
X118303571Y-146133571D01*
X118303571Y-145955000D01*
X118267857Y-145812142D01*
X118232142Y-145740714D01*
X118196428Y-145705000D01*
X118125000Y-145669285D01*
X117410714Y-145669285D02*
X117339285Y-145669285D01*
X117267857Y-145705000D01*
X117232142Y-145740714D01*
X117196428Y-145812142D01*
X117160714Y-145955000D01*
X117160714Y-146133571D01*
X117196428Y-146276428D01*
X117232142Y-146347857D01*
X117267857Y-146383571D01*
X117339285Y-146419285D01*
X117410714Y-146419285D01*
X117482142Y-146383571D01*
X117517857Y-146347857D01*
X117553571Y-146276428D01*
X117589285Y-146133571D01*
X117589285Y-145955000D01*
X117553571Y-145812142D01*
X117517857Y-145740714D01*
X117482142Y-145705000D01*
X117410714Y-145669285D01*
X116517857Y-145919285D02*
X116517857Y-146419285D01*
X116839285Y-145919285D02*
X116839285Y-146312142D01*
X116803571Y-146383571D01*
X116732142Y-146419285D01*
X116625000Y-146419285D01*
X116553571Y-146383571D01*
X116517857Y-146347857D01*
X143571428Y-126750714D02*
X143642857Y-126715000D01*
X143714285Y-126643571D01*
X143821428Y-126536428D01*
X143892857Y-126500714D01*
X143964285Y-126500714D01*
X143928571Y-126679285D02*
X144000000Y-126643571D01*
X144071428Y-126572142D01*
X144107142Y-126429285D01*
X144107142Y-126179285D01*
X144071428Y-126036428D01*
X144000000Y-125965000D01*
X143928571Y-125929285D01*
X143785714Y-125929285D01*
X143714285Y-125965000D01*
X143642857Y-126036428D01*
X143607142Y-126179285D01*
X143607142Y-126429285D01*
X143642857Y-126572142D01*
X143714285Y-126643571D01*
X143785714Y-126679285D01*
X143928571Y-126679285D01*
X143321428Y-126000714D02*
X143285714Y-125965000D01*
X143214285Y-125929285D01*
X143035714Y-125929285D01*
X142964285Y-125965000D01*
X142928571Y-126000714D01*
X142892857Y-126072142D01*
X142892857Y-126143571D01*
X142928571Y-126250714D01*
X143357142Y-126679285D01*
X142892857Y-126679285D01*
D13*
X147094285Y-130929285D02*
X147094285Y-130179285D01*
X146665714Y-130929285D01*
X146665714Y-130179285D01*
X146308571Y-130929285D02*
X146308571Y-130179285D01*
X146022857Y-130179285D01*
X145951428Y-130215000D01*
X145915714Y-130250714D01*
X145880000Y-130322142D01*
X145880000Y-130429285D01*
X145915714Y-130500714D01*
X145951428Y-130536428D01*
X146022857Y-130572142D01*
X146308571Y-130572142D01*
X145558571Y-130929285D02*
X145558571Y-130179285D01*
X145130000Y-130929285D01*
X145130000Y-130179285D01*
X143951428Y-130536428D02*
X143844285Y-130572142D01*
X143808571Y-130607857D01*
X143772857Y-130679285D01*
X143772857Y-130786428D01*
X143808571Y-130857857D01*
X143844285Y-130893571D01*
X143915714Y-130929285D01*
X144201428Y-130929285D01*
X144201428Y-130179285D01*
X143951428Y-130179285D01*
X143880000Y-130215000D01*
X143844285Y-130250714D01*
X143808571Y-130322142D01*
X143808571Y-130393571D01*
X143844285Y-130465000D01*
X143880000Y-130500714D01*
X143951428Y-130536428D01*
X144201428Y-130536428D01*
X143237142Y-130179285D02*
X143237142Y-130715000D01*
X143272857Y-130822142D01*
X143344285Y-130893571D01*
X143451428Y-130929285D01*
X143522857Y-130929285D01*
X142987142Y-130179285D02*
X142558571Y-130179285D01*
X142772857Y-130929285D02*
X142772857Y-130179285D01*
X146522857Y-129536428D02*
X146415714Y-129572142D01*
X146380000Y-129607857D01*
X146344285Y-129679285D01*
X146344285Y-129786428D01*
X146380000Y-129857857D01*
X146415714Y-129893571D01*
X146487142Y-129929285D01*
X146772857Y-129929285D01*
X146772857Y-129179285D01*
X146522857Y-129179285D01*
X146451428Y-129215000D01*
X146415714Y-129250714D01*
X146380000Y-129322142D01*
X146380000Y-129393571D01*
X146415714Y-129465000D01*
X146451428Y-129500714D01*
X146522857Y-129536428D01*
X146772857Y-129536428D01*
X145594285Y-129857857D02*
X145630000Y-129893571D01*
X145737142Y-129929285D01*
X145808571Y-129929285D01*
X145915714Y-129893571D01*
X145987142Y-129822142D01*
X146022857Y-129750714D01*
X146058571Y-129607857D01*
X146058571Y-129500714D01*
X146022857Y-129357857D01*
X145987142Y-129286428D01*
X145915714Y-129215000D01*
X145808571Y-129179285D01*
X145737142Y-129179285D01*
X145630000Y-129215000D01*
X145594285Y-129250714D01*
X144915714Y-129179285D02*
X145272857Y-129179285D01*
X145308571Y-129536428D01*
X145272857Y-129500714D01*
X145201428Y-129465000D01*
X145022857Y-129465000D01*
X144951428Y-129500714D01*
X144915714Y-129536428D01*
X144880000Y-129607857D01*
X144880000Y-129786428D01*
X144915714Y-129857857D01*
X144951428Y-129893571D01*
X145022857Y-129929285D01*
X145201428Y-129929285D01*
X145272857Y-129893571D01*
X145308571Y-129857857D01*
X144237142Y-129429285D02*
X144237142Y-129929285D01*
X144415714Y-129143571D02*
X144594285Y-129679285D01*
X144130000Y-129679285D01*
X143915714Y-129179285D02*
X143415714Y-129179285D01*
X143737142Y-129929285D01*
D12*
X131355623Y-132078571D02*
X131212766Y-132126190D01*
X131165147Y-132173809D01*
X131117528Y-132269047D01*
X131117528Y-132411904D01*
X131165147Y-132507142D01*
X131212766Y-132554761D01*
X131308004Y-132602380D01*
X131688956Y-132602380D01*
X131688956Y-131602380D01*
X131355623Y-131602380D01*
X131260385Y-131650000D01*
X131212766Y-131697619D01*
X131165147Y-131792857D01*
X131165147Y-131888095D01*
X131212766Y-131983333D01*
X131260385Y-132030952D01*
X131355623Y-132078571D01*
X131688956Y-132078571D01*
X130831813Y-131602380D02*
X130260385Y-131602380D01*
X130546099Y-132602380D02*
X130546099Y-131602380D01*
X129403242Y-132602380D02*
X129974670Y-132602380D01*
X129688956Y-132602380D02*
X129688956Y-131602380D01*
X129784194Y-131745238D01*
X129879432Y-131840476D01*
X129974670Y-131888095D01*
D14*
X130585857Y-141991095D02*
X130585857Y-143514904D01*
X131347761Y-142753000D02*
X129823952Y-142753000D01*
D12*
X132665147Y-139650050D02*
X132712766Y-139697669D01*
X132855623Y-139745288D01*
X132950861Y-139745288D01*
X133093718Y-139697669D01*
X133188956Y-139602431D01*
X133236575Y-139507193D01*
X133284194Y-139316717D01*
X133284194Y-139173860D01*
X133236575Y-138983384D01*
X133188956Y-138888146D01*
X133093718Y-138792908D01*
X132950861Y-138745288D01*
X132855623Y-138745288D01*
X132712766Y-138792908D01*
X132665147Y-138840527D01*
X131665147Y-139745288D02*
X131998480Y-139269098D01*
X132236575Y-139745288D02*
X132236575Y-138745288D01*
X131855623Y-138745288D01*
X131760385Y-138792908D01*
X131712766Y-138840527D01*
X131665147Y-138935765D01*
X131665147Y-139078622D01*
X131712766Y-139173860D01*
X131760385Y-139221479D01*
X131855623Y-139269098D01*
X132236575Y-139269098D01*
X131284194Y-138840527D02*
X131236575Y-138792908D01*
X131141337Y-138745288D01*
X130903242Y-138745288D01*
X130808004Y-138792908D01*
X130760385Y-138840527D01*
X130712766Y-138935765D01*
X130712766Y-139031003D01*
X130760385Y-139173860D01*
X131331813Y-139745288D01*
X130712766Y-139745288D01*
X130093718Y-138745288D02*
X129998480Y-138745288D01*
X129903242Y-138792908D01*
X129855623Y-138840527D01*
X129808004Y-138935765D01*
X129760385Y-139126241D01*
X129760385Y-139364336D01*
X129808004Y-139554812D01*
X129855623Y-139650050D01*
X129903242Y-139697669D01*
X129998480Y-139745288D01*
X130093718Y-139745288D01*
X130188956Y-139697669D01*
X130236575Y-139650050D01*
X130284194Y-139554812D01*
X130331813Y-139364336D01*
X130331813Y-139126241D01*
X130284194Y-138935765D01*
X130236575Y-138840527D01*
X130188956Y-138792908D01*
X130093718Y-138745288D01*
X129427051Y-138745288D02*
X128808004Y-138745288D01*
X129141337Y-139126241D01*
X128998480Y-139126241D01*
X128903242Y-139173860D01*
X128855623Y-139221479D01*
X128808004Y-139316717D01*
X128808004Y-139554812D01*
X128855623Y-139650050D01*
X128903242Y-139697669D01*
X128998480Y-139745288D01*
X129284194Y-139745288D01*
X129379432Y-139697669D01*
X129427051Y-139650050D01*
X128427051Y-138840527D02*
X128379432Y-138792908D01*
X128284194Y-138745288D01*
X128046099Y-138745288D01*
X127950861Y-138792908D01*
X127903242Y-138840527D01*
X127855623Y-138935765D01*
X127855623Y-139031003D01*
X127903242Y-139173860D01*
X128474670Y-139745288D01*
X127855623Y-139745288D01*
D14*
X130585857Y-128529095D02*
X130585857Y-130052904D01*
D12*
X107694000Y-128218857D02*
X107729714Y-128254571D01*
X107836857Y-128290285D01*
X107908285Y-128290285D01*
X108015428Y-128254571D01*
X108086857Y-128183142D01*
X108122571Y-128111714D01*
X108158285Y-127968857D01*
X108158285Y-127861714D01*
X108122571Y-127718857D01*
X108086857Y-127647428D01*
X108015428Y-127576000D01*
X107908285Y-127540285D01*
X107836857Y-127540285D01*
X107729714Y-127576000D01*
X107694000Y-127611714D01*
X107051142Y-127790285D02*
X107051142Y-128290285D01*
X107229714Y-127504571D02*
X107408285Y-128040285D01*
X106944000Y-128040285D01*
X110110714Y-130159285D02*
X110110714Y-130659285D01*
X110289285Y-129873571D02*
X110467857Y-130409285D01*
X110003571Y-130409285D01*
X109789285Y-129909285D02*
X109289285Y-129909285D01*
X109610714Y-130659285D01*
X108860714Y-129909285D02*
X108789285Y-129909285D01*
X108717857Y-129945000D01*
X108682142Y-129980714D01*
X108646428Y-130052142D01*
X108610714Y-130195000D01*
X108610714Y-130373571D01*
X108646428Y-130516428D01*
X108682142Y-130587857D01*
X108717857Y-130623571D01*
X108789285Y-130659285D01*
X108860714Y-130659285D01*
X108932142Y-130623571D01*
X108967857Y-130587857D01*
X109003571Y-130516428D01*
X109039285Y-130373571D01*
X109039285Y-130195000D01*
X109003571Y-130052142D01*
X108967857Y-129980714D01*
X108932142Y-129945000D01*
X108860714Y-129909285D01*
X107967857Y-130159285D02*
X107967857Y-130659285D01*
X108289285Y-130159285D02*
X108289285Y-130552142D01*
X108253571Y-130623571D01*
X108182142Y-130659285D01*
X108075000Y-130659285D01*
X108003571Y-130623571D01*
X107967857Y-130587857D01*
X102320968Y-108446803D02*
X103028075Y-107739697D01*
X102859716Y-107571338D01*
X102725029Y-107503994D01*
X102590342Y-107503994D01*
X102489327Y-107537666D01*
X102320968Y-107638681D01*
X102219953Y-107739697D01*
X102118938Y-107908055D01*
X102085266Y-108009071D01*
X102085266Y-108143758D01*
X102152609Y-108278445D01*
X102320968Y-108446803D01*
X101782220Y-106965246D02*
X101310815Y-107436651D01*
X102219953Y-106864231D02*
X101883235Y-107537666D01*
X101445502Y-107099933D01*
X113125000Y-133339285D02*
X113375000Y-132982142D01*
X113553571Y-133339285D02*
X113553571Y-132589285D01*
X113267857Y-132589285D01*
X113196428Y-132625000D01*
X113160714Y-132660714D01*
X113125000Y-132732142D01*
X113125000Y-132839285D01*
X113160714Y-132910714D01*
X113196428Y-132946428D01*
X113267857Y-132982142D01*
X113553571Y-132982142D01*
X112875000Y-132589285D02*
X112375000Y-132589285D01*
X112696428Y-133339285D01*
X113875000Y-134410714D02*
X113839285Y-134375000D01*
X113767857Y-134339285D01*
X113589285Y-134339285D01*
X113517857Y-134375000D01*
X113482142Y-134410714D01*
X113446428Y-134482142D01*
X113446428Y-134553571D01*
X113482142Y-134660714D01*
X113910714Y-135089285D01*
X113446428Y-135089285D01*
X113160714Y-134410714D02*
X113125000Y-134375000D01*
X113053571Y-134339285D01*
X112875000Y-134339285D01*
X112803571Y-134375000D01*
X112767857Y-134410714D01*
X112732142Y-134482142D01*
X112732142Y-134553571D01*
X112767857Y-134660714D01*
X113196428Y-135089285D01*
X112732142Y-135089285D01*
X112410714Y-135089285D02*
X112410714Y-134339285D01*
X112339285Y-134803571D02*
X112125000Y-135089285D01*
X112125000Y-134589285D02*
X112410714Y-134875000D01*
X103625000Y-141079285D02*
X103875000Y-140722142D01*
X104053571Y-141079285D02*
X104053571Y-140329285D01*
X103767857Y-140329285D01*
X103696428Y-140365000D01*
X103660714Y-140400714D01*
X103625000Y-140472142D01*
X103625000Y-140579285D01*
X103660714Y-140650714D01*
X103696428Y-140686428D01*
X103767857Y-140722142D01*
X104053571Y-140722142D01*
X102946428Y-140329285D02*
X103303571Y-140329285D01*
X103339285Y-140686428D01*
X103303571Y-140650714D01*
X103232142Y-140615000D01*
X103053571Y-140615000D01*
X102982142Y-140650714D01*
X102946428Y-140686428D01*
X102910714Y-140757857D01*
X102910714Y-140936428D01*
X102946428Y-141007857D01*
X102982142Y-141043571D01*
X103053571Y-141079285D01*
X103232142Y-141079285D01*
X103303571Y-141043571D01*
X103339285Y-141007857D01*
X103946428Y-146679285D02*
X104375000Y-146679285D01*
X104160714Y-146679285D02*
X104160714Y-145929285D01*
X104232142Y-146036428D01*
X104303571Y-146107857D01*
X104375000Y-146143571D01*
X103660714Y-146000714D02*
X103625000Y-145965000D01*
X103553571Y-145929285D01*
X103375000Y-145929285D01*
X103303571Y-145965000D01*
X103267857Y-146000714D01*
X103232142Y-146072142D01*
X103232142Y-146143571D01*
X103267857Y-146250714D01*
X103696428Y-146679285D01*
X103232142Y-146679285D01*
X102910714Y-146679285D02*
X102910714Y-145929285D01*
X102839285Y-146393571D02*
X102625000Y-146679285D01*
X102625000Y-146179285D02*
X102910714Y-146465000D01*
X110321428Y-141000714D02*
X110392857Y-140965000D01*
X110464285Y-140893571D01*
X110571428Y-140786428D01*
X110642857Y-140750714D01*
X110714285Y-140750714D01*
X110678571Y-140929285D02*
X110750000Y-140893571D01*
X110821428Y-140822142D01*
X110857142Y-140679285D01*
X110857142Y-140429285D01*
X110821428Y-140286428D01*
X110750000Y-140215000D01*
X110678571Y-140179285D01*
X110535714Y-140179285D01*
X110464285Y-140215000D01*
X110392857Y-140286428D01*
X110357142Y-140429285D01*
X110357142Y-140679285D01*
X110392857Y-140822142D01*
X110464285Y-140893571D01*
X110535714Y-140929285D01*
X110678571Y-140929285D01*
X110107142Y-140179285D02*
X109642857Y-140179285D01*
X109892857Y-140465000D01*
X109785714Y-140465000D01*
X109714285Y-140500714D01*
X109678571Y-140536428D01*
X109642857Y-140607857D01*
X109642857Y-140786428D01*
X109678571Y-140857857D01*
X109714285Y-140893571D01*
X109785714Y-140929285D01*
X110000000Y-140929285D01*
X110071428Y-140893571D01*
X110107142Y-140857857D01*
D13*
X113352857Y-143946428D02*
X113245714Y-143982142D01*
X113210000Y-144017857D01*
X113174285Y-144089285D01*
X113174285Y-144196428D01*
X113210000Y-144267857D01*
X113245714Y-144303571D01*
X113317142Y-144339285D01*
X113602857Y-144339285D01*
X113602857Y-143589285D01*
X113352857Y-143589285D01*
X113281428Y-143625000D01*
X113245714Y-143660714D01*
X113210000Y-143732142D01*
X113210000Y-143803571D01*
X113245714Y-143875000D01*
X113281428Y-143910714D01*
X113352857Y-143946428D01*
X113602857Y-143946428D01*
X112424285Y-144267857D02*
X112460000Y-144303571D01*
X112567142Y-144339285D01*
X112638571Y-144339285D01*
X112745714Y-144303571D01*
X112817142Y-144232142D01*
X112852857Y-144160714D01*
X112888571Y-144017857D01*
X112888571Y-143910714D01*
X112852857Y-143767857D01*
X112817142Y-143696428D01*
X112745714Y-143625000D01*
X112638571Y-143589285D01*
X112567142Y-143589285D01*
X112460000Y-143625000D01*
X112424285Y-143660714D01*
X111745714Y-143589285D02*
X112102857Y-143589285D01*
X112138571Y-143946428D01*
X112102857Y-143910714D01*
X112031428Y-143875000D01*
X111852857Y-143875000D01*
X111781428Y-143910714D01*
X111745714Y-143946428D01*
X111710000Y-144017857D01*
X111710000Y-144196428D01*
X111745714Y-144267857D01*
X111781428Y-144303571D01*
X111852857Y-144339285D01*
X112031428Y-144339285D01*
X112102857Y-144303571D01*
X112138571Y-144267857D01*
X111031428Y-143589285D02*
X111388571Y-143589285D01*
X111424285Y-143946428D01*
X111388571Y-143910714D01*
X111317142Y-143875000D01*
X111138571Y-143875000D01*
X111067142Y-143910714D01*
X111031428Y-143946428D01*
X110995714Y-144017857D01*
X110995714Y-144196428D01*
X111031428Y-144267857D01*
X111067142Y-144303571D01*
X111138571Y-144339285D01*
X111317142Y-144339285D01*
X111388571Y-144303571D01*
X111424285Y-144267857D01*
X110745714Y-143589285D02*
X110245714Y-143589285D01*
X110567142Y-144339285D01*
X113906428Y-145339285D02*
X113906428Y-144589285D01*
X113620714Y-144589285D01*
X113549285Y-144625000D01*
X113513571Y-144660714D01*
X113477857Y-144732142D01*
X113477857Y-144839285D01*
X113513571Y-144910714D01*
X113549285Y-144946428D01*
X113620714Y-144982142D01*
X113906428Y-144982142D01*
X113156428Y-145339285D02*
X113156428Y-144589285D01*
X112727857Y-145339285D01*
X112727857Y-144589285D01*
X112370714Y-145339285D02*
X112370714Y-144589285D01*
X112085000Y-144589285D01*
X112013571Y-144625000D01*
X111977857Y-144660714D01*
X111942142Y-144732142D01*
X111942142Y-144839285D01*
X111977857Y-144910714D01*
X112013571Y-144946428D01*
X112085000Y-144982142D01*
X112370714Y-144982142D01*
X110799285Y-144946428D02*
X110692142Y-144982142D01*
X110656428Y-145017857D01*
X110620714Y-145089285D01*
X110620714Y-145196428D01*
X110656428Y-145267857D01*
X110692142Y-145303571D01*
X110763571Y-145339285D01*
X111049285Y-145339285D01*
X111049285Y-144589285D01*
X110799285Y-144589285D01*
X110727857Y-144625000D01*
X110692142Y-144660714D01*
X110656428Y-144732142D01*
X110656428Y-144803571D01*
X110692142Y-144875000D01*
X110727857Y-144910714D01*
X110799285Y-144946428D01*
X111049285Y-144946428D01*
X110085000Y-144589285D02*
X110085000Y-145125000D01*
X110120714Y-145232142D01*
X110192142Y-145303571D01*
X110299285Y-145339285D01*
X110370714Y-145339285D01*
X109835000Y-144589285D02*
X109406428Y-144589285D01*
X109620714Y-145339285D02*
X109620714Y-144589285D01*
D12*
X157745000Y-126619285D02*
X157995000Y-126262142D01*
X158173571Y-126619285D02*
X158173571Y-125869285D01*
X157887857Y-125869285D01*
X157816428Y-125905000D01*
X157780714Y-125940714D01*
X157745000Y-126012142D01*
X157745000Y-126119285D01*
X157780714Y-126190714D01*
X157816428Y-126226428D01*
X157887857Y-126262142D01*
X158173571Y-126262142D01*
X157102142Y-126119285D02*
X157102142Y-126619285D01*
X157280714Y-125833571D02*
X157459285Y-126369285D01*
X156995000Y-126369285D01*
X158066428Y-132179285D02*
X158495000Y-132179285D01*
X158280714Y-132179285D02*
X158280714Y-131429285D01*
X158352142Y-131536428D01*
X158423571Y-131607857D01*
X158495000Y-131643571D01*
X157602142Y-131429285D02*
X157530714Y-131429285D01*
X157459285Y-131465000D01*
X157423571Y-131500714D01*
X157387857Y-131572142D01*
X157352142Y-131715000D01*
X157352142Y-131893571D01*
X157387857Y-132036428D01*
X157423571Y-132107857D01*
X157459285Y-132143571D01*
X157530714Y-132179285D01*
X157602142Y-132179285D01*
X157673571Y-132143571D01*
X157709285Y-132107857D01*
X157745000Y-132036428D01*
X157780714Y-131893571D01*
X157780714Y-131715000D01*
X157745000Y-131572142D01*
X157709285Y-131500714D01*
X157673571Y-131465000D01*
X157602142Y-131429285D01*
X157030714Y-132179285D02*
X157030714Y-131429285D01*
X156959285Y-131893571D02*
X156745000Y-132179285D01*
X156745000Y-131679285D02*
X157030714Y-131965000D01*
X114821428Y-126750714D02*
X114892857Y-126715000D01*
X114964285Y-126643571D01*
X115071428Y-126536428D01*
X115142857Y-126500714D01*
X115214285Y-126500714D01*
X115178571Y-126679285D02*
X115250000Y-126643571D01*
X115321428Y-126572142D01*
X115357142Y-126429285D01*
X115357142Y-126179285D01*
X115321428Y-126036428D01*
X115250000Y-125965000D01*
X115178571Y-125929285D01*
X115035714Y-125929285D01*
X114964285Y-125965000D01*
X114892857Y-126036428D01*
X114857142Y-126179285D01*
X114857142Y-126429285D01*
X114892857Y-126572142D01*
X114964285Y-126643571D01*
X115035714Y-126679285D01*
X115178571Y-126679285D01*
X114214285Y-126179285D02*
X114214285Y-126679285D01*
X114392857Y-125893571D02*
X114571428Y-126429285D01*
X114107142Y-126429285D01*
D13*
X118324285Y-130919285D02*
X118324285Y-130169285D01*
X117895714Y-130919285D01*
X117895714Y-130169285D01*
X117538571Y-130919285D02*
X117538571Y-130169285D01*
X117252857Y-130169285D01*
X117181428Y-130205000D01*
X117145714Y-130240714D01*
X117110000Y-130312142D01*
X117110000Y-130419285D01*
X117145714Y-130490714D01*
X117181428Y-130526428D01*
X117252857Y-130562142D01*
X117538571Y-130562142D01*
X116788571Y-130919285D02*
X116788571Y-130169285D01*
X116360000Y-130919285D01*
X116360000Y-130169285D01*
X115181428Y-130526428D02*
X115074285Y-130562142D01*
X115038571Y-130597857D01*
X115002857Y-130669285D01*
X115002857Y-130776428D01*
X115038571Y-130847857D01*
X115074285Y-130883571D01*
X115145714Y-130919285D01*
X115431428Y-130919285D01*
X115431428Y-130169285D01*
X115181428Y-130169285D01*
X115110000Y-130205000D01*
X115074285Y-130240714D01*
X115038571Y-130312142D01*
X115038571Y-130383571D01*
X115074285Y-130455000D01*
X115110000Y-130490714D01*
X115181428Y-130526428D01*
X115431428Y-130526428D01*
X114467142Y-130169285D02*
X114467142Y-130705000D01*
X114502857Y-130812142D01*
X114574285Y-130883571D01*
X114681428Y-130919285D01*
X114752857Y-130919285D01*
X114217142Y-130169285D02*
X113788571Y-130169285D01*
X114002857Y-130919285D02*
X114002857Y-130169285D01*
X117752857Y-129526428D02*
X117645714Y-129562142D01*
X117610000Y-129597857D01*
X117574285Y-129669285D01*
X117574285Y-129776428D01*
X117610000Y-129847857D01*
X117645714Y-129883571D01*
X117717142Y-129919285D01*
X118002857Y-129919285D01*
X118002857Y-129169285D01*
X117752857Y-129169285D01*
X117681428Y-129205000D01*
X117645714Y-129240714D01*
X117610000Y-129312142D01*
X117610000Y-129383571D01*
X117645714Y-129455000D01*
X117681428Y-129490714D01*
X117752857Y-129526428D01*
X118002857Y-129526428D01*
X116824285Y-129847857D02*
X116860000Y-129883571D01*
X116967142Y-129919285D01*
X117038571Y-129919285D01*
X117145714Y-129883571D01*
X117217142Y-129812142D01*
X117252857Y-129740714D01*
X117288571Y-129597857D01*
X117288571Y-129490714D01*
X117252857Y-129347857D01*
X117217142Y-129276428D01*
X117145714Y-129205000D01*
X117038571Y-129169285D01*
X116967142Y-129169285D01*
X116860000Y-129205000D01*
X116824285Y-129240714D01*
X116145714Y-129169285D02*
X116502857Y-129169285D01*
X116538571Y-129526428D01*
X116502857Y-129490714D01*
X116431428Y-129455000D01*
X116252857Y-129455000D01*
X116181428Y-129490714D01*
X116145714Y-129526428D01*
X116110000Y-129597857D01*
X116110000Y-129776428D01*
X116145714Y-129847857D01*
X116181428Y-129883571D01*
X116252857Y-129919285D01*
X116431428Y-129919285D01*
X116502857Y-129883571D01*
X116538571Y-129847857D01*
X115467142Y-129419285D02*
X115467142Y-129919285D01*
X115645714Y-129133571D02*
X115824285Y-129669285D01*
X115360000Y-129669285D01*
X115145714Y-129169285D02*
X114645714Y-129169285D01*
X114967142Y-129919285D01*
D12*
X147625000Y-133339285D02*
X147875000Y-132982142D01*
X148053571Y-133339285D02*
X148053571Y-132589285D01*
X147767857Y-132589285D01*
X147696428Y-132625000D01*
X147660714Y-132660714D01*
X147625000Y-132732142D01*
X147625000Y-132839285D01*
X147660714Y-132910714D01*
X147696428Y-132946428D01*
X147767857Y-132982142D01*
X148053571Y-132982142D01*
X147375000Y-132589285D02*
X146910714Y-132589285D01*
X147160714Y-132875000D01*
X147053571Y-132875000D01*
X146982142Y-132910714D01*
X146946428Y-132946428D01*
X146910714Y-133017857D01*
X146910714Y-133196428D01*
X146946428Y-133267857D01*
X146982142Y-133303571D01*
X147053571Y-133339285D01*
X147267857Y-133339285D01*
X147339285Y-133303571D01*
X147375000Y-133267857D01*
X148375000Y-134410714D02*
X148339285Y-134375000D01*
X148267857Y-134339285D01*
X148089285Y-134339285D01*
X148017857Y-134375000D01*
X147982142Y-134410714D01*
X147946428Y-134482142D01*
X147946428Y-134553571D01*
X147982142Y-134660714D01*
X148410714Y-135089285D01*
X147946428Y-135089285D01*
X147660714Y-134410714D02*
X147625000Y-134375000D01*
X147553571Y-134339285D01*
X147375000Y-134339285D01*
X147303571Y-134375000D01*
X147267857Y-134410714D01*
X147232142Y-134482142D01*
X147232142Y-134553571D01*
X147267857Y-134660714D01*
X147696428Y-135089285D01*
X147232142Y-135089285D01*
X146910714Y-135089285D02*
X146910714Y-134339285D01*
X146839285Y-134803571D02*
X146625000Y-135089285D01*
X146625000Y-134589285D02*
X146910714Y-134875000D01*
X141994000Y-143918857D02*
X142029714Y-143954571D01*
X142136857Y-143990285D01*
X142208285Y-143990285D01*
X142315428Y-143954571D01*
X142386857Y-143883142D01*
X142422571Y-143811714D01*
X142458285Y-143668857D01*
X142458285Y-143561714D01*
X142422571Y-143418857D01*
X142386857Y-143347428D01*
X142315428Y-143276000D01*
X142208285Y-143240285D01*
X142136857Y-143240285D01*
X142029714Y-143276000D01*
X141994000Y-143311714D01*
X141279714Y-143990285D02*
X141708285Y-143990285D01*
X141494000Y-143990285D02*
X141494000Y-143240285D01*
X141565428Y-143347428D01*
X141636857Y-143418857D01*
X141708285Y-143454571D01*
X144339285Y-146479285D02*
X144767857Y-146479285D01*
X144553571Y-146479285D02*
X144553571Y-145729285D01*
X144625000Y-145836428D01*
X144696428Y-145907857D01*
X144767857Y-145943571D01*
X143875000Y-145729285D02*
X143803571Y-145729285D01*
X143732142Y-145765000D01*
X143696428Y-145800714D01*
X143660714Y-145872142D01*
X143625000Y-146015000D01*
X143625000Y-146193571D01*
X143660714Y-146336428D01*
X143696428Y-146407857D01*
X143732142Y-146443571D01*
X143803571Y-146479285D01*
X143875000Y-146479285D01*
X143946428Y-146443571D01*
X143982142Y-146407857D01*
X144017857Y-146336428D01*
X144053571Y-146193571D01*
X144053571Y-146015000D01*
X144017857Y-145872142D01*
X143982142Y-145800714D01*
X143946428Y-145765000D01*
X143875000Y-145729285D01*
X143160714Y-145729285D02*
X143089285Y-145729285D01*
X143017857Y-145765000D01*
X142982142Y-145800714D01*
X142946428Y-145872142D01*
X142910714Y-146015000D01*
X142910714Y-146193571D01*
X142946428Y-146336428D01*
X142982142Y-146407857D01*
X143017857Y-146443571D01*
X143089285Y-146479285D01*
X143160714Y-146479285D01*
X143232142Y-146443571D01*
X143267857Y-146407857D01*
X143303571Y-146336428D01*
X143339285Y-146193571D01*
X143339285Y-146015000D01*
X143303571Y-145872142D01*
X143267857Y-145800714D01*
X143232142Y-145765000D01*
X143160714Y-145729285D01*
X142267857Y-145979285D02*
X142267857Y-146479285D01*
X142589285Y-145979285D02*
X142589285Y-146372142D01*
X142553571Y-146443571D01*
X142482142Y-146479285D01*
X142375000Y-146479285D01*
X142303571Y-146443571D01*
X142267857Y-146407857D01*
X107125000Y-141089285D02*
X107375000Y-140732142D01*
X107553571Y-141089285D02*
X107553571Y-140339285D01*
X107267857Y-140339285D01*
X107196428Y-140375000D01*
X107160714Y-140410714D01*
X107125000Y-140482142D01*
X107125000Y-140589285D01*
X107160714Y-140660714D01*
X107196428Y-140696428D01*
X107267857Y-140732142D01*
X107553571Y-140732142D01*
X106482142Y-140339285D02*
X106625000Y-140339285D01*
X106696428Y-140375000D01*
X106732142Y-140410714D01*
X106803571Y-140517857D01*
X106839285Y-140660714D01*
X106839285Y-140946428D01*
X106803571Y-141017857D01*
X106767857Y-141053571D01*
X106696428Y-141089285D01*
X106553571Y-141089285D01*
X106482142Y-141053571D01*
X106446428Y-141017857D01*
X106410714Y-140946428D01*
X106410714Y-140767857D01*
X106446428Y-140696428D01*
X106482142Y-140660714D01*
X106553571Y-140625000D01*
X106696428Y-140625000D01*
X106767857Y-140660714D01*
X106803571Y-140696428D01*
X106839285Y-140767857D01*
X107089285Y-146679285D02*
X107517857Y-146679285D01*
X107303571Y-146679285D02*
X107303571Y-145929285D01*
X107375000Y-146036428D01*
X107446428Y-146107857D01*
X107517857Y-146143571D01*
X106767857Y-146679285D02*
X106767857Y-145929285D01*
X106696428Y-146393571D02*
X106482142Y-146679285D01*
X106482142Y-146179285D02*
X106767857Y-146465000D01*
X157765000Y-141149285D02*
X158015000Y-140792142D01*
X158193571Y-141149285D02*
X158193571Y-140399285D01*
X157907857Y-140399285D01*
X157836428Y-140435000D01*
X157800714Y-140470714D01*
X157765000Y-140542142D01*
X157765000Y-140649285D01*
X157800714Y-140720714D01*
X157836428Y-140756428D01*
X157907857Y-140792142D01*
X158193571Y-140792142D01*
X157050714Y-141149285D02*
X157479285Y-141149285D01*
X157265000Y-141149285D02*
X157265000Y-140399285D01*
X157336428Y-140506428D01*
X157407857Y-140577857D01*
X157479285Y-140613571D01*
X158086428Y-146679285D02*
X158515000Y-146679285D01*
X158300714Y-146679285D02*
X158300714Y-145929285D01*
X158372142Y-146036428D01*
X158443571Y-146107857D01*
X158515000Y-146143571D01*
X157800714Y-146000714D02*
X157765000Y-145965000D01*
X157693571Y-145929285D01*
X157515000Y-145929285D01*
X157443571Y-145965000D01*
X157407857Y-146000714D01*
X157372142Y-146072142D01*
X157372142Y-146143571D01*
X157407857Y-146250714D01*
X157836428Y-146679285D01*
X157372142Y-146679285D01*
X157050714Y-146679285D02*
X157050714Y-145929285D01*
X156979285Y-146393571D02*
X156765000Y-146679285D01*
X156765000Y-146179285D02*
X157050714Y-146465000D01*
X150244000Y-128258857D02*
X150279714Y-128294571D01*
X150386857Y-128330285D01*
X150458285Y-128330285D01*
X150565428Y-128294571D01*
X150636857Y-128223142D01*
X150672571Y-128151714D01*
X150708285Y-128008857D01*
X150708285Y-127901714D01*
X150672571Y-127758857D01*
X150636857Y-127687428D01*
X150565428Y-127616000D01*
X150458285Y-127580285D01*
X150386857Y-127580285D01*
X150279714Y-127616000D01*
X150244000Y-127651714D01*
X149958285Y-127651714D02*
X149922571Y-127616000D01*
X149851142Y-127580285D01*
X149672571Y-127580285D01*
X149601142Y-127616000D01*
X149565428Y-127651714D01*
X149529714Y-127723142D01*
X149529714Y-127794571D01*
X149565428Y-127901714D01*
X149994000Y-128330285D01*
X149529714Y-128330285D01*
X152520714Y-130259285D02*
X152520714Y-130759285D01*
X152699285Y-129973571D02*
X152877857Y-130509285D01*
X152413571Y-130509285D01*
X152199285Y-130009285D02*
X151699285Y-130009285D01*
X152020714Y-130759285D01*
X151270714Y-130009285D02*
X151199285Y-130009285D01*
X151127857Y-130045000D01*
X151092142Y-130080714D01*
X151056428Y-130152142D01*
X151020714Y-130295000D01*
X151020714Y-130473571D01*
X151056428Y-130616428D01*
X151092142Y-130687857D01*
X151127857Y-130723571D01*
X151199285Y-130759285D01*
X151270714Y-130759285D01*
X151342142Y-130723571D01*
X151377857Y-130687857D01*
X151413571Y-130616428D01*
X151449285Y-130473571D01*
X151449285Y-130295000D01*
X151413571Y-130152142D01*
X151377857Y-130080714D01*
X151342142Y-130045000D01*
X151270714Y-130009285D01*
X150377857Y-130259285D02*
X150377857Y-130759285D01*
X150699285Y-130259285D02*
X150699285Y-130652142D01*
X150663571Y-130723571D01*
X150592142Y-130759285D01*
X150485000Y-130759285D01*
X150413571Y-130723571D01*
X150377857Y-130687857D01*
X152061531Y-65134617D02*
X152768638Y-64427511D01*
X152600279Y-64259152D01*
X152465592Y-64191808D01*
X152330905Y-64191808D01*
X152229890Y-64225480D01*
X152061531Y-64326495D01*
X151960516Y-64427511D01*
X151859501Y-64595869D01*
X151825829Y-64696885D01*
X151825829Y-64831572D01*
X151893172Y-64966259D01*
X152061531Y-65134617D01*
X152128875Y-63787747D02*
X151691142Y-63350014D01*
X151657470Y-63855091D01*
X151556455Y-63754075D01*
X151455439Y-63720404D01*
X151388096Y-63720404D01*
X151287081Y-63754075D01*
X151118722Y-63922434D01*
X151085050Y-64023449D01*
X151085050Y-64090793D01*
X151118722Y-64191808D01*
X151320752Y-64393839D01*
X151421768Y-64427511D01*
X151489111Y-64427511D01*
X103605000Y-126579285D02*
X103855000Y-126222142D01*
X104033571Y-126579285D02*
X104033571Y-125829285D01*
X103747857Y-125829285D01*
X103676428Y-125865000D01*
X103640714Y-125900714D01*
X103605000Y-125972142D01*
X103605000Y-126079285D01*
X103640714Y-126150714D01*
X103676428Y-126186428D01*
X103747857Y-126222142D01*
X104033571Y-126222142D01*
X103176428Y-126150714D02*
X103247857Y-126115000D01*
X103283571Y-126079285D01*
X103319285Y-126007857D01*
X103319285Y-125972142D01*
X103283571Y-125900714D01*
X103247857Y-125865000D01*
X103176428Y-125829285D01*
X103033571Y-125829285D01*
X102962142Y-125865000D01*
X102926428Y-125900714D01*
X102890714Y-125972142D01*
X102890714Y-126007857D01*
X102926428Y-126079285D01*
X102962142Y-126115000D01*
X103033571Y-126150714D01*
X103176428Y-126150714D01*
X103247857Y-126186428D01*
X103283571Y-126222142D01*
X103319285Y-126293571D01*
X103319285Y-126436428D01*
X103283571Y-126507857D01*
X103247857Y-126543571D01*
X103176428Y-126579285D01*
X103033571Y-126579285D01*
X102962142Y-126543571D01*
X102926428Y-126507857D01*
X102890714Y-126436428D01*
X102890714Y-126293571D01*
X102926428Y-126222142D01*
X102962142Y-126186428D01*
X103033571Y-126150714D01*
X103946428Y-132179285D02*
X104375000Y-132179285D01*
X104160714Y-132179285D02*
X104160714Y-131429285D01*
X104232142Y-131536428D01*
X104303571Y-131607857D01*
X104375000Y-131643571D01*
X103482142Y-131429285D02*
X103410714Y-131429285D01*
X103339285Y-131465000D01*
X103303571Y-131500714D01*
X103267857Y-131572142D01*
X103232142Y-131715000D01*
X103232142Y-131893571D01*
X103267857Y-132036428D01*
X103303571Y-132107857D01*
X103339285Y-132143571D01*
X103410714Y-132179285D01*
X103482142Y-132179285D01*
X103553571Y-132143571D01*
X103589285Y-132107857D01*
X103625000Y-132036428D01*
X103660714Y-131893571D01*
X103660714Y-131715000D01*
X103625000Y-131572142D01*
X103589285Y-131500714D01*
X103553571Y-131465000D01*
X103482142Y-131429285D01*
X102910714Y-132179285D02*
X102910714Y-131429285D01*
X102839285Y-131893571D02*
X102625000Y-132179285D01*
X102625000Y-131679285D02*
X102910714Y-131965000D01*
X148321428Y-141000714D02*
X148392857Y-140965000D01*
X148464285Y-140893571D01*
X148571428Y-140786428D01*
X148642857Y-140750714D01*
X148714285Y-140750714D01*
X148678571Y-140929285D02*
X148750000Y-140893571D01*
X148821428Y-140822142D01*
X148857142Y-140679285D01*
X148857142Y-140429285D01*
X148821428Y-140286428D01*
X148750000Y-140215000D01*
X148678571Y-140179285D01*
X148535714Y-140179285D01*
X148464285Y-140215000D01*
X148392857Y-140286428D01*
X148357142Y-140429285D01*
X148357142Y-140679285D01*
X148392857Y-140822142D01*
X148464285Y-140893571D01*
X148535714Y-140929285D01*
X148678571Y-140929285D01*
X147642857Y-140929285D02*
X148071428Y-140929285D01*
X147857142Y-140929285D02*
X147857142Y-140179285D01*
X147928571Y-140286428D01*
X148000000Y-140357857D01*
X148071428Y-140393571D01*
D13*
X151392857Y-143766428D02*
X151285714Y-143802142D01*
X151250000Y-143837857D01*
X151214285Y-143909285D01*
X151214285Y-144016428D01*
X151250000Y-144087857D01*
X151285714Y-144123571D01*
X151357142Y-144159285D01*
X151642857Y-144159285D01*
X151642857Y-143409285D01*
X151392857Y-143409285D01*
X151321428Y-143445000D01*
X151285714Y-143480714D01*
X151250000Y-143552142D01*
X151250000Y-143623571D01*
X151285714Y-143695000D01*
X151321428Y-143730714D01*
X151392857Y-143766428D01*
X151642857Y-143766428D01*
X150464285Y-144087857D02*
X150500000Y-144123571D01*
X150607142Y-144159285D01*
X150678571Y-144159285D01*
X150785714Y-144123571D01*
X150857142Y-144052142D01*
X150892857Y-143980714D01*
X150928571Y-143837857D01*
X150928571Y-143730714D01*
X150892857Y-143587857D01*
X150857142Y-143516428D01*
X150785714Y-143445000D01*
X150678571Y-143409285D01*
X150607142Y-143409285D01*
X150500000Y-143445000D01*
X150464285Y-143480714D01*
X149785714Y-143409285D02*
X150142857Y-143409285D01*
X150178571Y-143766428D01*
X150142857Y-143730714D01*
X150071428Y-143695000D01*
X149892857Y-143695000D01*
X149821428Y-143730714D01*
X149785714Y-143766428D01*
X149750000Y-143837857D01*
X149750000Y-144016428D01*
X149785714Y-144087857D01*
X149821428Y-144123571D01*
X149892857Y-144159285D01*
X150071428Y-144159285D01*
X150142857Y-144123571D01*
X150178571Y-144087857D01*
X149071428Y-143409285D02*
X149428571Y-143409285D01*
X149464285Y-143766428D01*
X149428571Y-143730714D01*
X149357142Y-143695000D01*
X149178571Y-143695000D01*
X149107142Y-143730714D01*
X149071428Y-143766428D01*
X149035714Y-143837857D01*
X149035714Y-144016428D01*
X149071428Y-144087857D01*
X149107142Y-144123571D01*
X149178571Y-144159285D01*
X149357142Y-144159285D01*
X149428571Y-144123571D01*
X149464285Y-144087857D01*
X148785714Y-143409285D02*
X148285714Y-143409285D01*
X148607142Y-144159285D01*
X151946428Y-145159285D02*
X151946428Y-144409285D01*
X151660714Y-144409285D01*
X151589285Y-144445000D01*
X151553571Y-144480714D01*
X151517857Y-144552142D01*
X151517857Y-144659285D01*
X151553571Y-144730714D01*
X151589285Y-144766428D01*
X151660714Y-144802142D01*
X151946428Y-144802142D01*
X151196428Y-145159285D02*
X151196428Y-144409285D01*
X150767857Y-145159285D01*
X150767857Y-144409285D01*
X150410714Y-145159285D02*
X150410714Y-144409285D01*
X150125000Y-144409285D01*
X150053571Y-144445000D01*
X150017857Y-144480714D01*
X149982142Y-144552142D01*
X149982142Y-144659285D01*
X150017857Y-144730714D01*
X150053571Y-144766428D01*
X150125000Y-144802142D01*
X150410714Y-144802142D01*
X148839285Y-144766428D02*
X148732142Y-144802142D01*
X148696428Y-144837857D01*
X148660714Y-144909285D01*
X148660714Y-145016428D01*
X148696428Y-145087857D01*
X148732142Y-145123571D01*
X148803571Y-145159285D01*
X149089285Y-145159285D01*
X149089285Y-144409285D01*
X148839285Y-144409285D01*
X148767857Y-144445000D01*
X148732142Y-144480714D01*
X148696428Y-144552142D01*
X148696428Y-144623571D01*
X148732142Y-144695000D01*
X148767857Y-144730714D01*
X148839285Y-144766428D01*
X149089285Y-144766428D01*
X148125000Y-144409285D02*
X148125000Y-144945000D01*
X148160714Y-145052142D01*
X148232142Y-145123571D01*
X148339285Y-145159285D01*
X148410714Y-145159285D01*
X147875000Y-144409285D02*
X147446428Y-144409285D01*
X147660714Y-145159285D02*
X147660714Y-144409285D01*
D12*
X109796783Y-64186907D02*
X109089677Y-63479800D01*
X108921318Y-63648159D01*
X108853974Y-63782846D01*
X108853974Y-63917533D01*
X108887646Y-64018548D01*
X108988661Y-64186907D01*
X109089677Y-64287922D01*
X109258035Y-64388938D01*
X109359051Y-64422609D01*
X109493738Y-64422609D01*
X109628425Y-64355266D01*
X109796783Y-64186907D01*
X108719287Y-65264403D02*
X109123348Y-64860342D01*
X108921318Y-65062373D02*
X108214211Y-64355266D01*
X108382570Y-64388938D01*
X108517257Y-64388938D01*
X108618272Y-64355266D01*
D15*
X156067193Y-101914671D02*
X155932093Y-101836671D01*
X158072907Y-103072671D02*
X157937807Y-102994671D01*
X155807673Y-102364171D02*
G75*
G03*
X154766769Y-104167397I414827J-1441499D01*
G01*
X156637101Y-105247234D02*
G75*
G03*
X157678288Y-103444172I-414601J1441564D01*
G01*
X156320434Y-105793258D02*
G75*
G03*
X158072488Y-103072429I-97934J1987588D01*
G01*
G36*
X155419942Y-103815741D02*
G01*
X154917648Y-103525741D01*
X155438795Y-103203087D01*
X155419942Y-103815741D01*
G37*
D13*
X155419942Y-103815741D02*
X154917648Y-103525741D01*
X155438795Y-103203087D01*
X155419942Y-103815741D01*
D15*
X107757538Y-67572616D02*
X108606066Y-68421144D01*
X107863604Y-69163606D02*
X108005025Y-69305028D01*
X108040381Y-69269672D02*
X108342406Y-69571698D01*
X108888909Y-68138302D02*
X109030330Y-68279723D01*
X108005025Y-69305028D02*
X108040381Y-69269672D01*
X108994975Y-68315078D02*
X109030330Y-68279723D01*
X108181802Y-68845408D02*
X107898959Y-68562566D01*
X108853553Y-68173657D02*
X107898959Y-69128251D01*
X108994975Y-68315078D02*
X109297000Y-68617103D01*
X108342407Y-69571697D02*
G75*
G03*
X109297000Y-68617103I438894J515699D01*
G01*
D12*
X154250000Y-138250000D02*
X154250000Y-138000000D01*
X155250000Y-138250000D02*
X155250000Y-143300000D01*
X153250000Y-138250000D02*
X155250000Y-138250000D01*
X155250000Y-143300000D02*
X153250000Y-143300000D01*
X153250000Y-143300000D02*
X153250000Y-138250000D01*
X154250000Y-143350000D02*
X154250000Y-143600000D01*
D15*
X118551000Y-143040000D02*
X118551000Y-145131000D01*
X120831000Y-140941000D02*
X120831000Y-143059000D01*
X118310000Y-143040000D02*
X118310000Y-145182000D01*
X119711000Y-139422000D02*
X119711000Y-140960000D01*
X118471000Y-143040000D02*
X118471000Y-145150000D01*
X119031000Y-143040000D02*
X119031000Y-144970000D01*
X119151000Y-143040000D02*
X119151000Y-144916000D01*
X119431000Y-143040000D02*
X119431000Y-144766000D01*
X118511000Y-143040000D02*
X118511000Y-145141000D01*
X117910000Y-138773000D02*
X117910000Y-145227000D01*
X118711000Y-138914000D02*
X118711000Y-140960000D01*
X119991000Y-143040000D02*
X119991000Y-144343000D01*
X118230000Y-143040000D02*
X118230000Y-145195000D01*
X119191000Y-143040000D02*
X119191000Y-144896000D01*
X118871000Y-138967000D02*
X118871000Y-140960000D01*
X119831000Y-139516000D02*
X119831000Y-140960000D01*
X120311000Y-140005000D02*
X120311000Y-143995000D01*
X120031000Y-139695000D02*
X120031000Y-140960000D01*
X117830000Y-138770000D02*
X117830000Y-145230000D01*
X117870000Y-138772000D02*
X117870000Y-145228000D01*
X119591000Y-143040000D02*
X119591000Y-144664000D01*
X119471000Y-139258000D02*
X119471000Y-140960000D01*
X119111000Y-143040000D02*
X119111000Y-144934000D01*
X120551000Y-140350000D02*
X120551000Y-143650000D01*
X118030000Y-143040000D02*
X118030000Y-145218000D01*
X119551000Y-139310000D02*
X119551000Y-140960000D01*
X118951000Y-143040000D02*
X118951000Y-145002000D01*
X119351000Y-139188000D02*
X119351000Y-140960000D01*
X118871000Y-143040000D02*
X118871000Y-145033000D01*
X119231000Y-139124000D02*
X119231000Y-140960000D01*
X120711000Y-140650000D02*
X120711000Y-143350000D01*
X118591000Y-143040000D02*
X118591000Y-145121000D01*
X118991000Y-139014000D02*
X118991000Y-140960000D01*
X118511000Y-138859000D02*
X118511000Y-140960000D01*
X119671000Y-143040000D02*
X119671000Y-144607000D01*
X117750000Y-138770000D02*
X117750000Y-145230000D01*
X119751000Y-143040000D02*
X119751000Y-144548000D01*
X117990000Y-143040000D02*
X117990000Y-145222000D01*
X118190000Y-138799000D02*
X118190000Y-140960000D01*
X118751000Y-138926000D02*
X118751000Y-140960000D01*
X118110000Y-143040000D02*
X118110000Y-145211000D01*
X119951000Y-143040000D02*
X119951000Y-144380000D01*
X119231000Y-143040000D02*
X119231000Y-144876000D01*
X118671000Y-143040000D02*
X118671000Y-145098000D01*
X118190000Y-143040000D02*
X118190000Y-145201000D01*
X118471000Y-138850000D02*
X118471000Y-140960000D01*
X119431000Y-139234000D02*
X119431000Y-140960000D01*
X120431000Y-140166000D02*
X120431000Y-143834000D01*
X118791000Y-143040000D02*
X118791000Y-145061000D01*
X116154759Y-140542000D02*
X116784759Y-140542000D01*
X120671000Y-140568000D02*
X120671000Y-143432000D01*
X119951000Y-139620000D02*
X119951000Y-140960000D01*
X119511000Y-139284000D02*
X119511000Y-140960000D01*
X119591000Y-139336000D02*
X119591000Y-140960000D01*
X119911000Y-139584000D02*
X119911000Y-140960000D01*
X120271000Y-139956000D02*
X120271000Y-144044000D01*
X118350000Y-138825000D02*
X118350000Y-140960000D01*
X118911000Y-138982000D02*
X118911000Y-140960000D01*
X118230000Y-138805000D02*
X118230000Y-140960000D01*
X118591000Y-138879000D02*
X118591000Y-140960000D01*
X118390000Y-143040000D02*
X118390000Y-145167000D01*
X119871000Y-143040000D02*
X119871000Y-144450000D01*
X118150000Y-143040000D02*
X118150000Y-145206000D01*
X118671000Y-138902000D02*
X118671000Y-140960000D01*
X120951000Y-141367000D02*
X120951000Y-142633000D01*
X120871000Y-141060000D02*
X120871000Y-142940000D01*
X119711000Y-143040000D02*
X119711000Y-144578000D01*
X119671000Y-139393000D02*
X119671000Y-140960000D01*
X118711000Y-143040000D02*
X118711000Y-145086000D01*
X118150000Y-138794000D02*
X118150000Y-140960000D01*
X118831000Y-143040000D02*
X118831000Y-145047000D01*
X119271000Y-139144000D02*
X119271000Y-140960000D01*
X120751000Y-140738000D02*
X120751000Y-143262000D01*
X118751000Y-143040000D02*
X118751000Y-145074000D01*
X119391000Y-139210000D02*
X119391000Y-140960000D01*
X118631000Y-143040000D02*
X118631000Y-145110000D01*
X119751000Y-139452000D02*
X119751000Y-140960000D01*
X118390000Y-138833000D02*
X118390000Y-140960000D01*
X119351000Y-143040000D02*
X119351000Y-144812000D01*
X118911000Y-143040000D02*
X118911000Y-145018000D01*
X118310000Y-138818000D02*
X118310000Y-140960000D01*
X118951000Y-138998000D02*
X118951000Y-140960000D01*
X119631000Y-139364000D02*
X119631000Y-140960000D01*
X120031000Y-143040000D02*
X120031000Y-144305000D01*
X120911000Y-141198000D02*
X120911000Y-142802000D01*
X118070000Y-138785000D02*
X118070000Y-140960000D01*
X119311000Y-143040000D02*
X119311000Y-144834000D01*
X120111000Y-139776000D02*
X120111000Y-144224000D01*
X119831000Y-143040000D02*
X119831000Y-144484000D01*
X119151000Y-139084000D02*
X119151000Y-140960000D01*
X117790000Y-138770000D02*
X117790000Y-145230000D01*
X118110000Y-138789000D02*
X118110000Y-140960000D01*
X119991000Y-139657000D02*
X119991000Y-140960000D01*
X119191000Y-139104000D02*
X119191000Y-140960000D01*
X119631000Y-143040000D02*
X119631000Y-144636000D01*
X116469759Y-140227000D02*
X116469759Y-140857000D01*
X119391000Y-143040000D02*
X119391000Y-144790000D01*
X120471000Y-140224000D02*
X120471000Y-143776000D01*
X119551000Y-143040000D02*
X119551000Y-144690000D01*
X118631000Y-138890000D02*
X118631000Y-140960000D01*
X118070000Y-143040000D02*
X118070000Y-145215000D01*
X120631000Y-140491000D02*
X120631000Y-143509000D01*
X117990000Y-138778000D02*
X117990000Y-140960000D01*
X119911000Y-143040000D02*
X119911000Y-144416000D01*
X120351000Y-140056000D02*
X120351000Y-143944000D01*
X120791000Y-140835000D02*
X120791000Y-143165000D01*
X118430000Y-138841000D02*
X118430000Y-140960000D01*
X118991000Y-143040000D02*
X118991000Y-144986000D01*
X120151000Y-139818000D02*
X120151000Y-144182000D01*
X118030000Y-138782000D02*
X118030000Y-140960000D01*
X117950000Y-138776000D02*
X117950000Y-145224000D01*
X119511000Y-143040000D02*
X119511000Y-144716000D01*
X118270000Y-138811000D02*
X118270000Y-140960000D01*
X118270000Y-143040000D02*
X118270000Y-145189000D01*
X119311000Y-139166000D02*
X119311000Y-140960000D01*
X119071000Y-143040000D02*
X119071000Y-144952000D01*
X120191000Y-139863000D02*
X120191000Y-144137000D01*
X119111000Y-139066000D02*
X119111000Y-140960000D01*
X120991000Y-141598000D02*
X120991000Y-142402000D01*
X120391000Y-140110000D02*
X120391000Y-143890000D01*
X119791000Y-139484000D02*
X119791000Y-140960000D01*
X119071000Y-139048000D02*
X119071000Y-140960000D01*
X118430000Y-143040000D02*
X118430000Y-145159000D01*
X120071000Y-139735000D02*
X120071000Y-144265000D01*
X119031000Y-139030000D02*
X119031000Y-140960000D01*
X120591000Y-140419000D02*
X120591000Y-143581000D01*
X118791000Y-138939000D02*
X118791000Y-140960000D01*
X120511000Y-140286000D02*
X120511000Y-143714000D01*
X119271000Y-143040000D02*
X119271000Y-144856000D01*
X119791000Y-143040000D02*
X119791000Y-144516000D01*
X118831000Y-138953000D02*
X118831000Y-140960000D01*
X118350000Y-143040000D02*
X118350000Y-145175000D01*
X118551000Y-138869000D02*
X118551000Y-140960000D01*
X119471000Y-143040000D02*
X119471000Y-144742000D01*
X120231000Y-139908000D02*
X120231000Y-144092000D01*
X119871000Y-139550000D02*
X119871000Y-140960000D01*
X121020000Y-142000000D02*
G75*
G03*
X121020000Y-142000000I-3270000J0D01*
G01*
X146980000Y-128120000D02*
X146980000Y-124520000D01*
X146968478Y-124481522D02*
G75*
G03*
X142530000Y-126320000I-1838478J-1838478D01*
G01*
X142529999Y-126320000D02*
G75*
G03*
X146968478Y-128158478I2600001J0D01*
G01*
X134420000Y-147495000D02*
X134420000Y-144495000D01*
D16*
X128919000Y-134498000D02*
X132094000Y-134498000D01*
D17*
X128030000Y-135768000D02*
X133110000Y-135768000D01*
D15*
X126720000Y-147495000D02*
X134420000Y-147495000D01*
X126720000Y-147495000D02*
X126720000Y-144495000D01*
X134420000Y-144495000D02*
G75*
G03*
X126719829Y-144494936I-3850000J10352600D01*
G01*
X111481000Y-127340000D02*
X111481000Y-128605000D01*
X112401000Y-125667000D02*
X112401000Y-126933000D01*
X110041000Y-123179000D02*
X110041000Y-125260000D01*
X112321000Y-125360000D02*
X112321000Y-127240000D01*
X111041000Y-127340000D02*
X111041000Y-128964000D01*
X109280000Y-123070000D02*
X109280000Y-129530000D01*
X111201000Y-123752000D02*
X111201000Y-125260000D01*
X112041000Y-124719000D02*
X112041000Y-127881000D01*
X109520000Y-127340000D02*
X109520000Y-129515000D01*
X109840000Y-127340000D02*
X109840000Y-129467000D01*
X110281000Y-127340000D02*
X110281000Y-129347000D01*
X109480000Y-123082000D02*
X109480000Y-125260000D01*
X110761000Y-127340000D02*
X110761000Y-129134000D01*
X111961000Y-124586000D02*
X111961000Y-128014000D01*
X111241000Y-123784000D02*
X111241000Y-125260000D01*
X109880000Y-127340000D02*
X109880000Y-129459000D01*
X111281000Y-123816000D02*
X111281000Y-125260000D01*
X112441000Y-125898000D02*
X112441000Y-126702000D01*
X111441000Y-123957000D02*
X111441000Y-125260000D01*
X110801000Y-123488000D02*
X110801000Y-125260000D01*
X112281000Y-125241000D02*
X112281000Y-127359000D01*
X109800000Y-127340000D02*
X109800000Y-129475000D01*
X109961000Y-123159000D02*
X109961000Y-125260000D01*
X111401000Y-127340000D02*
X111401000Y-128680000D01*
X111921000Y-124524000D02*
X111921000Y-128076000D01*
X111281000Y-127340000D02*
X111281000Y-128784000D01*
X110121000Y-127340000D02*
X110121000Y-129398000D01*
X112001000Y-124650000D02*
X112001000Y-127950000D01*
X111001000Y-127340000D02*
X111001000Y-128990000D01*
X110841000Y-123510000D02*
X110841000Y-125260000D01*
X110521000Y-123348000D02*
X110521000Y-125260000D01*
X109921000Y-123150000D02*
X109921000Y-125260000D01*
X110561000Y-127340000D02*
X110561000Y-129234000D01*
X110601000Y-123384000D02*
X110601000Y-125260000D01*
X110401000Y-127340000D02*
X110401000Y-129302000D01*
X110841000Y-127340000D02*
X110841000Y-129090000D01*
X110481000Y-127340000D02*
X110481000Y-129270000D01*
X111801000Y-124356000D02*
X111801000Y-128244000D01*
X111721000Y-124256000D02*
X111721000Y-128344000D01*
X111401000Y-123920000D02*
X111401000Y-125260000D01*
X110321000Y-123267000D02*
X110321000Y-125260000D01*
X110401000Y-123298000D02*
X110401000Y-125260000D01*
X110201000Y-123226000D02*
X110201000Y-125260000D01*
X110441000Y-127340000D02*
X110441000Y-129286000D01*
X112241000Y-125135000D02*
X112241000Y-127465000D01*
X110081000Y-123190000D02*
X110081000Y-125260000D01*
X111681000Y-124208000D02*
X111681000Y-128392000D01*
X111361000Y-123884000D02*
X111361000Y-125260000D01*
X111081000Y-123664000D02*
X111081000Y-125260000D01*
X109880000Y-123141000D02*
X109880000Y-125260000D01*
X111361000Y-127340000D02*
X111361000Y-128716000D01*
X109720000Y-123111000D02*
X109720000Y-125260000D01*
X109440000Y-127340000D02*
X109440000Y-129522000D01*
X110641000Y-127340000D02*
X110641000Y-129196000D01*
X110921000Y-123558000D02*
X110921000Y-125260000D01*
X110601000Y-127340000D02*
X110601000Y-129216000D01*
X110681000Y-123424000D02*
X110681000Y-125260000D01*
X109600000Y-127340000D02*
X109600000Y-129506000D01*
X109520000Y-123085000D02*
X109520000Y-125260000D01*
X107604759Y-124842000D02*
X108234759Y-124842000D01*
X110801000Y-127340000D02*
X110801000Y-129112000D01*
X110881000Y-127340000D02*
X110881000Y-129066000D01*
X111481000Y-123995000D02*
X111481000Y-125260000D01*
X109760000Y-123118000D02*
X109760000Y-125260000D01*
X110521000Y-127340000D02*
X110521000Y-129252000D01*
X109600000Y-123094000D02*
X109600000Y-125260000D01*
X111081000Y-127340000D02*
X111081000Y-128936000D01*
X111641000Y-124163000D02*
X111641000Y-128437000D01*
X109921000Y-127340000D02*
X109921000Y-129450000D01*
X110921000Y-127340000D02*
X110921000Y-129042000D01*
X109360000Y-123073000D02*
X109360000Y-129527000D01*
X110121000Y-123202000D02*
X110121000Y-125260000D01*
X110641000Y-123404000D02*
X110641000Y-125260000D01*
X110241000Y-127340000D02*
X110241000Y-129361000D01*
X110161000Y-123214000D02*
X110161000Y-125260000D01*
X111561000Y-124076000D02*
X111561000Y-128524000D01*
X111881000Y-124466000D02*
X111881000Y-128134000D01*
X112121000Y-124868000D02*
X112121000Y-127732000D01*
X110961000Y-127340000D02*
X110961000Y-129016000D01*
X111441000Y-127340000D02*
X111441000Y-128643000D01*
X109440000Y-123078000D02*
X109440000Y-125260000D01*
X112361000Y-125498000D02*
X112361000Y-127102000D01*
X111121000Y-127340000D02*
X111121000Y-128907000D01*
X111761000Y-124305000D02*
X111761000Y-128295000D01*
X110361000Y-127340000D02*
X110361000Y-129318000D01*
X110721000Y-123444000D02*
X110721000Y-125260000D01*
X111841000Y-124410000D02*
X111841000Y-128190000D01*
X110201000Y-127340000D02*
X110201000Y-129374000D01*
X110041000Y-127340000D02*
X110041000Y-129421000D01*
X111521000Y-124035000D02*
X111521000Y-128565000D01*
X110241000Y-123239000D02*
X110241000Y-125260000D01*
X109200000Y-123070000D02*
X109200000Y-129530000D01*
X110961000Y-123584000D02*
X110961000Y-125260000D01*
X111321000Y-123850000D02*
X111321000Y-125260000D01*
X109480000Y-127340000D02*
X109480000Y-129518000D01*
X110161000Y-127340000D02*
X110161000Y-129386000D01*
X109640000Y-123099000D02*
X109640000Y-125260000D01*
X110361000Y-123282000D02*
X110361000Y-125260000D01*
X111161000Y-123722000D02*
X111161000Y-125260000D01*
X109840000Y-123133000D02*
X109840000Y-125260000D01*
X111041000Y-123636000D02*
X111041000Y-125260000D01*
X110721000Y-127340000D02*
X110721000Y-129156000D01*
X109560000Y-123089000D02*
X109560000Y-125260000D01*
X112201000Y-125038000D02*
X112201000Y-127562000D01*
X110001000Y-127340000D02*
X110001000Y-129431000D01*
X109680000Y-127340000D02*
X109680000Y-129495000D01*
X112161000Y-124950000D02*
X112161000Y-127650000D01*
X111321000Y-127340000D02*
X111321000Y-128750000D01*
X109400000Y-123076000D02*
X109400000Y-129524000D01*
X111601000Y-124118000D02*
X111601000Y-128482000D01*
X109320000Y-123072000D02*
X109320000Y-129528000D01*
X110561000Y-123366000D02*
X110561000Y-125260000D01*
X109680000Y-123105000D02*
X109680000Y-125260000D01*
X110881000Y-123534000D02*
X110881000Y-125260000D01*
X109961000Y-127340000D02*
X109961000Y-129441000D01*
X110281000Y-123253000D02*
X110281000Y-125260000D01*
X111201000Y-127340000D02*
X111201000Y-128848000D01*
X109760000Y-127340000D02*
X109760000Y-129482000D01*
X110481000Y-123330000D02*
X110481000Y-125260000D01*
X110761000Y-123466000D02*
X110761000Y-125260000D01*
X110081000Y-127340000D02*
X110081000Y-129410000D01*
X111241000Y-127340000D02*
X111241000Y-128816000D01*
X107919759Y-124527000D02*
X107919759Y-125157000D01*
X111001000Y-123610000D02*
X111001000Y-125260000D01*
X109640000Y-127340000D02*
X109640000Y-129501000D01*
X110321000Y-127340000D02*
X110321000Y-129333000D01*
X112081000Y-124791000D02*
X112081000Y-127809000D01*
X110441000Y-123314000D02*
X110441000Y-125260000D01*
X111161000Y-127340000D02*
X111161000Y-128878000D01*
X109720000Y-127340000D02*
X109720000Y-129489000D01*
X109240000Y-123070000D02*
X109240000Y-129530000D01*
X109560000Y-127340000D02*
X109560000Y-129511000D01*
X111121000Y-123693000D02*
X111121000Y-125260000D01*
X110001000Y-123169000D02*
X110001000Y-125260000D01*
X110681000Y-127340000D02*
X110681000Y-129176000D01*
X109800000Y-123125000D02*
X109800000Y-125260000D01*
X112470000Y-126300000D02*
G75*
G03*
X112470000Y-126300000I-3270000J0D01*
G01*
X106078736Y-105851386D02*
X106189045Y-105741077D01*
X104441077Y-107489045D02*
X104551386Y-107378736D01*
X102266762Y-105092146D02*
G75*
G03*
X104441419Y-107488703I1945212J-419828D01*
G01*
X105711720Y-105484370D02*
G75*
G03*
X104239344Y-104012224I-1499746J-27604D01*
G01*
X102712224Y-105539344D02*
G75*
G03*
X104184370Y-107011720I1499750J27370D01*
G01*
G36*
X104996863Y-104910934D02*
G01*
X104409964Y-104734157D01*
X104820086Y-104324035D01*
X104996863Y-104910934D01*
G37*
D13*
X104996863Y-104910934D02*
X104409964Y-104734157D01*
X104820086Y-104324035D01*
X104996863Y-104910934D01*
D12*
X115540000Y-133000000D02*
X115790000Y-133000000D01*
X110440000Y-134000000D02*
X110440000Y-132000000D01*
X110440000Y-132000000D02*
X115490000Y-132000000D01*
X115490000Y-134000000D02*
X110440000Y-134000000D01*
X115490000Y-132000000D02*
X115490000Y-134000000D01*
X110440000Y-133000000D02*
X110190000Y-133000000D01*
X104500000Y-143230000D02*
X102500000Y-143230000D01*
X103500000Y-138180000D02*
X103500000Y-137930000D01*
X102500000Y-143230000D02*
X102500000Y-138180000D01*
X102500000Y-138180000D02*
X104500000Y-138180000D01*
X103500000Y-143280000D02*
X103500000Y-143530000D01*
X104500000Y-138180000D02*
X104500000Y-143230000D01*
D15*
X113790000Y-142390000D02*
X113790000Y-138790000D01*
X113778478Y-138751522D02*
G75*
G03*
X109340000Y-140590000I-1838478J-1838478D01*
G01*
X109339999Y-140590000D02*
G75*
G03*
X113778478Y-142428478I2600001J0D01*
G01*
D12*
X156620000Y-123790000D02*
X158620000Y-123790000D01*
X156620000Y-128840000D02*
X156620000Y-123790000D01*
X158620000Y-123790000D02*
X158620000Y-128840000D01*
X158620000Y-128840000D02*
X156620000Y-128840000D01*
X157620000Y-128840000D02*
X157620000Y-129090000D01*
X157620000Y-123740000D02*
X157620000Y-123490000D01*
D15*
X106054973Y-107631853D02*
X106356998Y-107329828D01*
X107044923Y-108621803D02*
X107009567Y-108586447D01*
X107009567Y-108586447D02*
X107311593Y-108284422D01*
X105878197Y-107737919D02*
X106019618Y-107596498D01*
X106903501Y-108763224D02*
X107044923Y-108621803D01*
X105913552Y-107773275D02*
X106868146Y-108727869D01*
X106054973Y-107631853D02*
X106019618Y-107596498D01*
X106585303Y-108445026D02*
X106302461Y-108727869D01*
X105312511Y-108869290D02*
X106161039Y-108020762D01*
X107311592Y-108284421D02*
G75*
G03*
X106356998Y-107329828I-515699J438894D01*
G01*
X118210000Y-128110000D02*
X118210000Y-124510000D01*
X118198478Y-124471522D02*
G75*
G03*
X113760000Y-126310000I-1838478J-1838478D01*
G01*
X113759999Y-126310000D02*
G75*
G03*
X118198478Y-128148478I2600001J0D01*
G01*
D12*
X144940000Y-134000000D02*
X144940000Y-132000000D01*
X149990000Y-132000000D02*
X149990000Y-134000000D01*
X150040000Y-133000000D02*
X150290000Y-133000000D01*
X149990000Y-134000000D02*
X144940000Y-134000000D01*
X144940000Y-132000000D02*
X149990000Y-132000000D01*
X144940000Y-133000000D02*
X144690000Y-133000000D01*
D15*
X145101000Y-139188000D02*
X145101000Y-140960000D01*
X144461000Y-143040000D02*
X144461000Y-145086000D01*
X146701000Y-141367000D02*
X146701000Y-142633000D01*
X145581000Y-143040000D02*
X145581000Y-144484000D01*
X145341000Y-139336000D02*
X145341000Y-140960000D01*
X145381000Y-139364000D02*
X145381000Y-140960000D01*
X144541000Y-143040000D02*
X144541000Y-145061000D01*
X143660000Y-138773000D02*
X143660000Y-145227000D01*
X145701000Y-139620000D02*
X145701000Y-140960000D01*
X145461000Y-143040000D02*
X145461000Y-144578000D01*
X145861000Y-139776000D02*
X145861000Y-144224000D01*
X145741000Y-143040000D02*
X145741000Y-144343000D01*
X143740000Y-138778000D02*
X143740000Y-140960000D01*
X145901000Y-139818000D02*
X145901000Y-144182000D01*
X144140000Y-143040000D02*
X144140000Y-145167000D01*
X144741000Y-139014000D02*
X144741000Y-140960000D01*
X146341000Y-140419000D02*
X146341000Y-143581000D01*
X144501000Y-138926000D02*
X144501000Y-140960000D01*
X144861000Y-143040000D02*
X144861000Y-144934000D01*
X144261000Y-143040000D02*
X144261000Y-145141000D01*
X146461000Y-140650000D02*
X146461000Y-143350000D01*
X143900000Y-138794000D02*
X143900000Y-140960000D01*
X143780000Y-143040000D02*
X143780000Y-145218000D01*
X143860000Y-143040000D02*
X143860000Y-145211000D01*
X145141000Y-139210000D02*
X145141000Y-140960000D01*
X146381000Y-140491000D02*
X146381000Y-143509000D01*
X144981000Y-139124000D02*
X144981000Y-140960000D01*
X144981000Y-143040000D02*
X144981000Y-144876000D01*
X144100000Y-138825000D02*
X144100000Y-140960000D01*
X143500000Y-138770000D02*
X143500000Y-145230000D01*
X146181000Y-140166000D02*
X146181000Y-143834000D01*
X144020000Y-138811000D02*
X144020000Y-140960000D01*
X143980000Y-143040000D02*
X143980000Y-145195000D01*
X146421000Y-140568000D02*
X146421000Y-143432000D01*
X143820000Y-143040000D02*
X143820000Y-145215000D01*
X144541000Y-138939000D02*
X144541000Y-140960000D01*
X145541000Y-143040000D02*
X145541000Y-144516000D01*
X145701000Y-143040000D02*
X145701000Y-144380000D01*
X145221000Y-143040000D02*
X145221000Y-144742000D01*
X145261000Y-139284000D02*
X145261000Y-140960000D01*
X143820000Y-138785000D02*
X143820000Y-140960000D01*
X144301000Y-138869000D02*
X144301000Y-140960000D01*
X144861000Y-139066000D02*
X144861000Y-140960000D01*
X145421000Y-139393000D02*
X145421000Y-140960000D01*
X143940000Y-143040000D02*
X143940000Y-145201000D01*
X145941000Y-139863000D02*
X145941000Y-144137000D01*
X144261000Y-138859000D02*
X144261000Y-140960000D01*
X146221000Y-140224000D02*
X146221000Y-143776000D01*
X146101000Y-140056000D02*
X146101000Y-143944000D01*
X146021000Y-139956000D02*
X146021000Y-144044000D01*
X144020000Y-143040000D02*
X144020000Y-145189000D01*
X144341000Y-138879000D02*
X144341000Y-140960000D01*
X143980000Y-138805000D02*
X143980000Y-140960000D01*
X145501000Y-143040000D02*
X145501000Y-144548000D01*
X145301000Y-143040000D02*
X145301000Y-144690000D01*
X146581000Y-140941000D02*
X146581000Y-143059000D01*
X143860000Y-138789000D02*
X143860000Y-140960000D01*
X144661000Y-138982000D02*
X144661000Y-140960000D01*
X145661000Y-139584000D02*
X145661000Y-140960000D01*
X144501000Y-143040000D02*
X144501000Y-145074000D01*
X146261000Y-140286000D02*
X146261000Y-143714000D01*
X145021000Y-139144000D02*
X145021000Y-140960000D01*
X145061000Y-143040000D02*
X145061000Y-144834000D01*
X146621000Y-141060000D02*
X146621000Y-142940000D01*
X144821000Y-143040000D02*
X144821000Y-144952000D01*
X144461000Y-138914000D02*
X144461000Y-140960000D01*
X143700000Y-138776000D02*
X143700000Y-145224000D01*
X143780000Y-138782000D02*
X143780000Y-140960000D01*
X144701000Y-143040000D02*
X144701000Y-145002000D01*
X145661000Y-143040000D02*
X145661000Y-144416000D01*
X144180000Y-138841000D02*
X144180000Y-140960000D01*
X145781000Y-139695000D02*
X145781000Y-140960000D01*
X145061000Y-139166000D02*
X145061000Y-140960000D01*
X145821000Y-139735000D02*
X145821000Y-144265000D01*
X141904759Y-140542000D02*
X142534759Y-140542000D01*
X144621000Y-143040000D02*
X144621000Y-145033000D01*
X145501000Y-139452000D02*
X145501000Y-140960000D01*
X145341000Y-143040000D02*
X145341000Y-144664000D01*
X144060000Y-138818000D02*
X144060000Y-140960000D01*
X144060000Y-143040000D02*
X144060000Y-145182000D01*
X144781000Y-143040000D02*
X144781000Y-144970000D01*
X146661000Y-141198000D02*
X146661000Y-142802000D01*
X144941000Y-143040000D02*
X144941000Y-144896000D01*
X144140000Y-138833000D02*
X144140000Y-140960000D01*
X144821000Y-139048000D02*
X144821000Y-140960000D01*
X145301000Y-139310000D02*
X145301000Y-140960000D01*
X144100000Y-143040000D02*
X144100000Y-145175000D01*
X146141000Y-140110000D02*
X146141000Y-143890000D01*
X143580000Y-138770000D02*
X143580000Y-145230000D01*
X145781000Y-143040000D02*
X145781000Y-144305000D01*
X145181000Y-139234000D02*
X145181000Y-140960000D01*
X144421000Y-143040000D02*
X144421000Y-145098000D01*
X144180000Y-143040000D02*
X144180000Y-145159000D01*
X145101000Y-143040000D02*
X145101000Y-144812000D01*
X143940000Y-138799000D02*
X143940000Y-140960000D01*
X145141000Y-143040000D02*
X145141000Y-144790000D01*
X145541000Y-139484000D02*
X145541000Y-140960000D01*
X143620000Y-138772000D02*
X143620000Y-145228000D01*
X144221000Y-143040000D02*
X144221000Y-145150000D01*
X144621000Y-138967000D02*
X144621000Y-140960000D01*
X146301000Y-140350000D02*
X146301000Y-143650000D01*
X145021000Y-143040000D02*
X145021000Y-144856000D01*
X143900000Y-143040000D02*
X143900000Y-145206000D01*
X144301000Y-143040000D02*
X144301000Y-145131000D01*
X144221000Y-138850000D02*
X144221000Y-140960000D01*
X144581000Y-138953000D02*
X144581000Y-140960000D01*
X145621000Y-139550000D02*
X145621000Y-140960000D01*
X145381000Y-143040000D02*
X145381000Y-144636000D01*
X145421000Y-143040000D02*
X145421000Y-144607000D01*
X144581000Y-143040000D02*
X144581000Y-145047000D01*
X144421000Y-138902000D02*
X144421000Y-140960000D01*
X144941000Y-139104000D02*
X144941000Y-140960000D01*
X145621000Y-143040000D02*
X145621000Y-144450000D01*
X144901000Y-143040000D02*
X144901000Y-144916000D01*
X146501000Y-140738000D02*
X146501000Y-143262000D01*
X145741000Y-139657000D02*
X145741000Y-140960000D01*
X145461000Y-139422000D02*
X145461000Y-140960000D01*
X145581000Y-139516000D02*
X145581000Y-140960000D01*
X146061000Y-140005000D02*
X146061000Y-143995000D01*
X146741000Y-141598000D02*
X146741000Y-142402000D01*
X145181000Y-143040000D02*
X145181000Y-144766000D01*
X144781000Y-139030000D02*
X144781000Y-140960000D01*
X144701000Y-138998000D02*
X144701000Y-140960000D01*
X144381000Y-138890000D02*
X144381000Y-140960000D01*
X146541000Y-140835000D02*
X146541000Y-143165000D01*
X145981000Y-139908000D02*
X145981000Y-144092000D01*
X145261000Y-143040000D02*
X145261000Y-144716000D01*
X144901000Y-139084000D02*
X144901000Y-140960000D01*
X145221000Y-139258000D02*
X145221000Y-140960000D01*
X144741000Y-143040000D02*
X144741000Y-144986000D01*
X143740000Y-143040000D02*
X143740000Y-145222000D01*
X144661000Y-143040000D02*
X144661000Y-145018000D01*
X142219759Y-140227000D02*
X142219759Y-140857000D01*
X144341000Y-143040000D02*
X144341000Y-145121000D01*
X143540000Y-138770000D02*
X143540000Y-145230000D01*
X144381000Y-143040000D02*
X144381000Y-145110000D01*
X146770000Y-142000000D02*
G75*
G03*
X146770000Y-142000000I-3270000J0D01*
G01*
D12*
X108000000Y-143240000D02*
X106000000Y-143240000D01*
X108000000Y-138190000D02*
X108000000Y-143240000D01*
X107000000Y-143290000D02*
X107000000Y-143540000D01*
X107000000Y-138190000D02*
X107000000Y-137940000D01*
X106000000Y-143240000D02*
X106000000Y-138190000D01*
X106000000Y-138190000D02*
X108000000Y-138190000D01*
D15*
X148680210Y-63206188D02*
X147831682Y-64054716D01*
X147937748Y-64443625D02*
X147635723Y-64745650D01*
X147937748Y-64443625D02*
X147973103Y-64478980D01*
X146947798Y-63453675D02*
X146983154Y-63489031D01*
X146983154Y-63489031D02*
X146681128Y-63791056D01*
X148114524Y-64337559D02*
X147973103Y-64478980D01*
X148079169Y-64302203D02*
X147124575Y-63347609D01*
X147407418Y-63630452D02*
X147690260Y-63347609D01*
X147089220Y-63312254D02*
X146947798Y-63453675D01*
X146681129Y-63791057D02*
G75*
G03*
X147635723Y-64745650I515699J-438894D01*
G01*
D12*
X156640000Y-138250000D02*
X158640000Y-138250000D01*
X156640000Y-143300000D02*
X156640000Y-138250000D01*
X158640000Y-138250000D02*
X158640000Y-143300000D01*
X157640000Y-138250000D02*
X157640000Y-138000000D01*
X157640000Y-143350000D02*
X157640000Y-143600000D01*
X158640000Y-143300000D02*
X156640000Y-143300000D01*
D15*
X151910000Y-123113000D02*
X151910000Y-129567000D01*
X153511000Y-123624000D02*
X153511000Y-125300000D01*
X152030000Y-123122000D02*
X152030000Y-125300000D01*
X153591000Y-127380000D02*
X153591000Y-129004000D01*
X152711000Y-127380000D02*
X152711000Y-129426000D01*
X153951000Y-123960000D02*
X153951000Y-125300000D01*
X153351000Y-127380000D02*
X153351000Y-129152000D01*
X152991000Y-127380000D02*
X152991000Y-129326000D01*
X153071000Y-123388000D02*
X153071000Y-125300000D01*
X154031000Y-127380000D02*
X154031000Y-128645000D01*
X154911000Y-125538000D02*
X154911000Y-127142000D01*
X152270000Y-127380000D02*
X152270000Y-129529000D01*
X152551000Y-123209000D02*
X152551000Y-125300000D01*
X152871000Y-123307000D02*
X152871000Y-125300000D01*
X153591000Y-123676000D02*
X153591000Y-125300000D01*
X153431000Y-127380000D02*
X153431000Y-129106000D01*
X153471000Y-123598000D02*
X153471000Y-125300000D01*
X153311000Y-123506000D02*
X153311000Y-125300000D01*
X150469759Y-124567000D02*
X150469759Y-125197000D01*
X154111000Y-124116000D02*
X154111000Y-128564000D01*
X152671000Y-123242000D02*
X152671000Y-125300000D01*
X152991000Y-123354000D02*
X152991000Y-125300000D01*
X154271000Y-124296000D02*
X154271000Y-128384000D01*
X153751000Y-123792000D02*
X153751000Y-125300000D01*
X153631000Y-123704000D02*
X153631000Y-125300000D01*
X153151000Y-127380000D02*
X153151000Y-129256000D01*
X154631000Y-124831000D02*
X154631000Y-127849000D01*
X152911000Y-127380000D02*
X152911000Y-129358000D01*
X152791000Y-123279000D02*
X152791000Y-125300000D01*
X153511000Y-127380000D02*
X153511000Y-129056000D01*
X153711000Y-127380000D02*
X153711000Y-128918000D01*
X153871000Y-123890000D02*
X153871000Y-125300000D01*
X154031000Y-124035000D02*
X154031000Y-125300000D01*
X152751000Y-127380000D02*
X152751000Y-129414000D01*
X154711000Y-124990000D02*
X154711000Y-127690000D01*
X152511000Y-123199000D02*
X152511000Y-125300000D01*
X153871000Y-127380000D02*
X153871000Y-128790000D01*
X154151000Y-124158000D02*
X154151000Y-128522000D01*
X154311000Y-124345000D02*
X154311000Y-128335000D01*
X153991000Y-123997000D02*
X153991000Y-125300000D01*
X154471000Y-124564000D02*
X154471000Y-128116000D01*
X152230000Y-123145000D02*
X152230000Y-125300000D01*
X152350000Y-123165000D02*
X152350000Y-125300000D01*
X153791000Y-127380000D02*
X153791000Y-128856000D01*
X153071000Y-127380000D02*
X153071000Y-129292000D01*
X151790000Y-123110000D02*
X151790000Y-129570000D01*
X153671000Y-123733000D02*
X153671000Y-125300000D01*
X153951000Y-127380000D02*
X153951000Y-128720000D01*
X153831000Y-123856000D02*
X153831000Y-125300000D01*
X153191000Y-127380000D02*
X153191000Y-129236000D01*
X154071000Y-124075000D02*
X154071000Y-128605000D01*
X152190000Y-127380000D02*
X152190000Y-129541000D01*
X154231000Y-124248000D02*
X154231000Y-128432000D01*
X152751000Y-123266000D02*
X152751000Y-125300000D01*
X154191000Y-124203000D02*
X154191000Y-128477000D01*
X153391000Y-127380000D02*
X153391000Y-129130000D01*
X153031000Y-127380000D02*
X153031000Y-129310000D01*
X153391000Y-123550000D02*
X153391000Y-125300000D01*
X151990000Y-127380000D02*
X151990000Y-129562000D01*
X152230000Y-127380000D02*
X152230000Y-129535000D01*
X152430000Y-123181000D02*
X152430000Y-125300000D01*
X153551000Y-123650000D02*
X153551000Y-125300000D01*
X150154759Y-124882000D02*
X150784759Y-124882000D01*
X154831000Y-125281000D02*
X154831000Y-127399000D01*
X154511000Y-124626000D02*
X154511000Y-128054000D01*
X154551000Y-124690000D02*
X154551000Y-127990000D01*
X152270000Y-123151000D02*
X152270000Y-125300000D01*
X152711000Y-123254000D02*
X152711000Y-125300000D01*
X152871000Y-127380000D02*
X152871000Y-129373000D01*
X153471000Y-127380000D02*
X153471000Y-129082000D01*
X152951000Y-127380000D02*
X152951000Y-129342000D01*
X152471000Y-127380000D02*
X152471000Y-129490000D01*
X152471000Y-123190000D02*
X152471000Y-125300000D01*
X153271000Y-127380000D02*
X153271000Y-129196000D01*
X152551000Y-127380000D02*
X152551000Y-129471000D01*
X153231000Y-127380000D02*
X153231000Y-129216000D01*
X152390000Y-127380000D02*
X152390000Y-129507000D01*
X153351000Y-123528000D02*
X153351000Y-125300000D01*
X153231000Y-123464000D02*
X153231000Y-125300000D01*
X152150000Y-127380000D02*
X152150000Y-129546000D01*
X151950000Y-123116000D02*
X151950000Y-129564000D01*
X154791000Y-125175000D02*
X154791000Y-127505000D01*
X152350000Y-127380000D02*
X152350000Y-129515000D01*
X154991000Y-125938000D02*
X154991000Y-126742000D01*
X152591000Y-123219000D02*
X152591000Y-125300000D01*
X153311000Y-127380000D02*
X153311000Y-129174000D01*
X153111000Y-123406000D02*
X153111000Y-125300000D01*
X153751000Y-127380000D02*
X153751000Y-128888000D01*
X154391000Y-124450000D02*
X154391000Y-128230000D01*
X152430000Y-127380000D02*
X152430000Y-129499000D01*
X152911000Y-123322000D02*
X152911000Y-125300000D01*
X154591000Y-124759000D02*
X154591000Y-127921000D01*
X151870000Y-123112000D02*
X151870000Y-129568000D01*
X152831000Y-123293000D02*
X152831000Y-125300000D01*
X152190000Y-123139000D02*
X152190000Y-125300000D01*
X153671000Y-127380000D02*
X153671000Y-128947000D01*
X154871000Y-125400000D02*
X154871000Y-127280000D01*
X154751000Y-125078000D02*
X154751000Y-127602000D01*
X152390000Y-123173000D02*
X152390000Y-125300000D01*
X151830000Y-123110000D02*
X151830000Y-129570000D01*
X152631000Y-127380000D02*
X152631000Y-129450000D01*
X152030000Y-127380000D02*
X152030000Y-129558000D01*
X152310000Y-127380000D02*
X152310000Y-129522000D01*
X154951000Y-125707000D02*
X154951000Y-126973000D01*
X153791000Y-123824000D02*
X153791000Y-125300000D01*
X153911000Y-123924000D02*
X153911000Y-125300000D01*
X152110000Y-127380000D02*
X152110000Y-129551000D01*
X152831000Y-127380000D02*
X152831000Y-129387000D01*
X152671000Y-127380000D02*
X152671000Y-129438000D01*
X153431000Y-123574000D02*
X153431000Y-125300000D01*
X151990000Y-123118000D02*
X151990000Y-125300000D01*
X153551000Y-127380000D02*
X153551000Y-129030000D01*
X152631000Y-123230000D02*
X152631000Y-125300000D01*
X152110000Y-123129000D02*
X152110000Y-125300000D01*
X154431000Y-124506000D02*
X154431000Y-128174000D01*
X152791000Y-127380000D02*
X152791000Y-129401000D01*
X153031000Y-123370000D02*
X153031000Y-125300000D01*
X153991000Y-127380000D02*
X153991000Y-128683000D01*
X152310000Y-123158000D02*
X152310000Y-125300000D01*
X153911000Y-127380000D02*
X153911000Y-128756000D01*
X152591000Y-127380000D02*
X152591000Y-129461000D01*
X153271000Y-123484000D02*
X153271000Y-125300000D01*
X154671000Y-124908000D02*
X154671000Y-127772000D01*
X153711000Y-123762000D02*
X153711000Y-125300000D01*
X153151000Y-123424000D02*
X153151000Y-125300000D01*
X153191000Y-123444000D02*
X153191000Y-125300000D01*
X152951000Y-123338000D02*
X152951000Y-125300000D01*
X154351000Y-124396000D02*
X154351000Y-128284000D01*
X152070000Y-127380000D02*
X152070000Y-129555000D01*
X151750000Y-123110000D02*
X151750000Y-129570000D01*
X152070000Y-123125000D02*
X152070000Y-125300000D01*
X153111000Y-127380000D02*
X153111000Y-129274000D01*
X152511000Y-127380000D02*
X152511000Y-129481000D01*
X152150000Y-123134000D02*
X152150000Y-125300000D01*
X153831000Y-127380000D02*
X153831000Y-128824000D01*
X153631000Y-127380000D02*
X153631000Y-128976000D01*
X155020000Y-126340000D02*
G75*
G03*
X155020000Y-126340000I-3270000J0D01*
G01*
X149537362Y-64408789D02*
X149427053Y-64519098D01*
X147899703Y-66046448D02*
X147789394Y-66156757D01*
X148266719Y-66413464D02*
G75*
G03*
X149739095Y-67885610I1499746J27604D01*
G01*
X151711677Y-66805688D02*
G75*
G03*
X149537020Y-64409131I-1945212J419828D01*
G01*
X151266215Y-66358490D02*
G75*
G03*
X149794069Y-64886114I-1499750J-27370D01*
G01*
G36*
X149568475Y-67163677D02*
G01*
X149158353Y-67573799D01*
X148981576Y-66986900D01*
X149568475Y-67163677D01*
G37*
D13*
X149568475Y-67163677D02*
X149158353Y-67573799D01*
X148981576Y-66986900D01*
X149568475Y-67163677D01*
D12*
X103480000Y-128800000D02*
X103480000Y-129050000D01*
X102480000Y-123750000D02*
X104480000Y-123750000D01*
X102480000Y-128800000D02*
X102480000Y-123750000D01*
X104480000Y-128800000D02*
X102480000Y-128800000D01*
X103480000Y-123700000D02*
X103480000Y-123450000D01*
X104480000Y-123750000D02*
X104480000Y-128800000D01*
D15*
X151850000Y-142370000D02*
X151850000Y-138770000D01*
X147399999Y-140570000D02*
G75*
G03*
X151838478Y-142408478I2600001J0D01*
G01*
X151838478Y-138731522D02*
G75*
G03*
X147400000Y-140570000I-1838478J-1838478D01*
G01*
X110708614Y-68348736D02*
X110818923Y-68459045D01*
X109070955Y-66711077D02*
X109181264Y-66821386D01*
X111467854Y-64536762D02*
G75*
G03*
X109071297Y-66711419I-419828J-1945212D01*
G01*
X111020656Y-64982224D02*
G75*
G03*
X109548280Y-66454370I27370J-1499750D01*
G01*
X111075630Y-67981720D02*
G75*
G03*
X112547776Y-66509344I-27604J1499746D01*
G01*
G36*
X112235965Y-67090086D02*
G01*
X111649066Y-67266863D01*
X111825843Y-66679964D01*
X112235965Y-67090086D01*
G37*
D13*
X112235965Y-67090086D02*
X111649066Y-67266863D01*
X111825843Y-66679964D01*
X112235965Y-67090086D01*
D15*
X158208910Y-100633494D02*
X158555320Y-100833494D01*
X158948141Y-101753109D02*
X157908910Y-101153109D01*
X158433910Y-100243782D02*
X158260705Y-100143782D01*
X157560705Y-101356218D02*
X157190801Y-101142654D01*
X158235705Y-100187083D02*
X157865801Y-99973519D01*
X157560705Y-101356218D02*
X157535705Y-101399519D01*
X157708910Y-101499519D02*
X157535705Y-101399519D01*
X157733910Y-101456218D02*
X158408910Y-100287083D01*
X158260705Y-100143782D02*
X158235705Y-100187083D01*
X157865801Y-99973519D02*
G75*
G03*
X157190801Y-101142654I-290467J-611722D01*
G01*
%LPC*%
G36*
X130477606Y-61224919D02*
G01*
X130690401Y-61230145D01*
X130895799Y-61238467D01*
X131105668Y-61250171D01*
X131331876Y-61265541D01*
X131568069Y-61283435D01*
X132392588Y-61354192D01*
X133178442Y-61434231D01*
X133920654Y-61522882D01*
X134614243Y-61619472D01*
X135254232Y-61723327D01*
X135835642Y-61833777D01*
X136152324Y-61902480D01*
X136788858Y-62058835D01*
X137470099Y-62246222D01*
X138184056Y-62460443D01*
X138918733Y-62697303D01*
X139662136Y-62952606D01*
X140402271Y-63222156D01*
X141127145Y-63501756D01*
X141824763Y-63787212D01*
X142483131Y-64074326D01*
X142866229Y-64251273D01*
X143819540Y-64729638D01*
X144769267Y-65259711D01*
X145707103Y-65835535D01*
X146624743Y-66451153D01*
X147513879Y-67100608D01*
X148366205Y-67777942D01*
X149173414Y-68477199D01*
X149927200Y-69192422D01*
X150326329Y-69601328D01*
X150778974Y-70083698D01*
X151187642Y-70529870D01*
X151558780Y-70947395D01*
X151898830Y-71343825D01*
X152214236Y-71726710D01*
X152511444Y-72103602D01*
X152796897Y-72482052D01*
X152871687Y-72583968D01*
X153371990Y-73300348D01*
X153869438Y-74072290D01*
X154358208Y-74888668D01*
X154832479Y-75738357D01*
X155286427Y-76610229D01*
X155714232Y-77493160D01*
X156110070Y-78376023D01*
X156468120Y-79247692D01*
X156740357Y-79977003D01*
X156945030Y-80584092D01*
X157140982Y-81224330D01*
X157325838Y-81887012D01*
X157497219Y-82561429D01*
X157652749Y-83236873D01*
X157790051Y-83902638D01*
X157906746Y-84548016D01*
X158000459Y-85162298D01*
X158068812Y-85734778D01*
X158100077Y-86101708D01*
X158129026Y-86623487D01*
X158148204Y-87194579D01*
X158157765Y-87799235D01*
X158157862Y-88421708D01*
X158148652Y-89046249D01*
X158130287Y-89657110D01*
X158102922Y-90238543D01*
X158066711Y-90774800D01*
X158052648Y-90941392D01*
X157991802Y-91596806D01*
X157930834Y-92194893D01*
X157868085Y-92745064D01*
X157801899Y-93256730D01*
X157730619Y-93739302D01*
X157652588Y-94202189D01*
X157566148Y-94654802D01*
X157469643Y-95106552D01*
X157361414Y-95566849D01*
X157239806Y-96045104D01*
X157103160Y-96550727D01*
X157000546Y-96915900D01*
X156882418Y-97327840D01*
X156777722Y-97685391D01*
X156683058Y-97998762D01*
X156595029Y-98278162D01*
X156510237Y-98533799D01*
X156425284Y-98775882D01*
X156336771Y-99014621D01*
X156241300Y-99260224D01*
X156135474Y-99522900D01*
X156120961Y-99558389D01*
X155838212Y-100233515D01*
X155563423Y-100856746D01*
X155290026Y-101441343D01*
X155011452Y-102000565D01*
X154721133Y-102547672D01*
X154412502Y-103095924D01*
X154139765Y-103557950D01*
X153822526Y-104079824D01*
X153528161Y-104551885D01*
X153249791Y-104984081D01*
X152980542Y-105386358D01*
X152713536Y-105768661D01*
X152441897Y-106140939D01*
X152158749Y-106513136D01*
X151857215Y-106895201D01*
X151686969Y-107105868D01*
X151296024Y-107581743D01*
X150938536Y-108007326D01*
X150610201Y-108387376D01*
X150306716Y-108726650D01*
X150023777Y-109029905D01*
X149757081Y-109301899D01*
X149502323Y-109547387D01*
X149360821Y-109677265D01*
X148543695Y-110382942D01*
X147716604Y-111034510D01*
X146863030Y-111644293D01*
X145966454Y-112224612D01*
X145853483Y-112293898D01*
X145277162Y-112642515D01*
X144747490Y-112956432D01*
X144256633Y-113239520D01*
X143796755Y-113495650D01*
X143360023Y-113728694D01*
X142938601Y-113942522D01*
X142524656Y-114141005D01*
X142110353Y-114328015D01*
X141687858Y-114507423D01*
X141249336Y-114683100D01*
X140786953Y-114858916D01*
X140312878Y-115031592D01*
X139429671Y-115339797D01*
X138592738Y-115615305D01*
X137791812Y-115860905D01*
X137016626Y-116079387D01*
X136256914Y-116273541D01*
X135502410Y-116446156D01*
X134742846Y-116600022D01*
X134140258Y-116708819D01*
X133950125Y-116746437D01*
X133808031Y-116791756D01*
X133702141Y-116855644D01*
X133620618Y-116948966D01*
X133551626Y-117082591D01*
X133483329Y-117267384D01*
X133462205Y-117331352D01*
X133270034Y-117994110D01*
X133127629Y-118645693D01*
X133037181Y-119275273D01*
X133014206Y-119545597D01*
X133008973Y-119810207D01*
X133022836Y-120118572D01*
X133053516Y-120451208D01*
X133098732Y-120788632D01*
X133156208Y-121111360D01*
X133223663Y-121399906D01*
X133236466Y-121445929D01*
X133265790Y-121546995D01*
X133294037Y-121638985D01*
X133324063Y-121728171D01*
X133358726Y-121820824D01*
X133400884Y-121923216D01*
X133453394Y-122041618D01*
X133519114Y-122182302D01*
X133600901Y-122351539D01*
X133701613Y-122555601D01*
X133824108Y-122800760D01*
X133971242Y-123093286D01*
X134134715Y-123417345D01*
X134206887Y-123623993D01*
X134235964Y-123857246D01*
X134220775Y-124091764D01*
X134174003Y-124268462D01*
X134125516Y-124376510D01*
X134065017Y-124461653D01*
X133974978Y-124545163D01*
X133895721Y-124606119D01*
X133778310Y-124686981D01*
X133664939Y-124755019D01*
X133578820Y-124796381D01*
X133574060Y-124798037D01*
X133475125Y-124817339D01*
X133334518Y-124828411D01*
X133176855Y-124830929D01*
X133026747Y-124824571D01*
X132908809Y-124809014D01*
X132899532Y-124806891D01*
X132837192Y-124777323D01*
X132739710Y-124714753D01*
X132622626Y-124629627D01*
X132545948Y-124569243D01*
X132363455Y-124400475D01*
X132156749Y-124171445D01*
X131926976Y-123883639D01*
X131675280Y-123538545D01*
X131402808Y-123137651D01*
X131191191Y-122810222D01*
X131053704Y-122590799D01*
X130942968Y-122406105D01*
X130850109Y-122238795D01*
X130766251Y-122071525D01*
X130682520Y-121886950D01*
X130590040Y-121667726D01*
X130525110Y-121508514D01*
X130429182Y-121269097D01*
X130354550Y-121074941D01*
X130296284Y-120909919D01*
X130249454Y-120757906D01*
X130209128Y-120602776D01*
X130170376Y-120428404D01*
X130128268Y-120218662D01*
X130123942Y-120196452D01*
X130081051Y-119960775D01*
X130040161Y-119708714D01*
X130004597Y-119462750D01*
X129977685Y-119245366D01*
X129966652Y-119133003D01*
X129929448Y-118687032D01*
X129749310Y-118464079D01*
X129569172Y-118241125D01*
X129191813Y-118119304D01*
X129028494Y-118066804D01*
X128874979Y-118017851D01*
X128750139Y-117978441D01*
X128680946Y-117957008D01*
X128593626Y-117923640D01*
X128468149Y-117867068D01*
X128324647Y-117796623D01*
X128241083Y-117753083D01*
X128152023Y-117708439D01*
X128045992Y-117661212D01*
X127916967Y-117609280D01*
X127758930Y-117550520D01*
X127565857Y-117482812D01*
X127331730Y-117404033D01*
X127050526Y-117312062D01*
X126716225Y-117204776D01*
X126405340Y-117106125D01*
X126028505Y-116987864D01*
X125611847Y-116858628D01*
X125172085Y-116723507D01*
X124725937Y-116587590D01*
X124290121Y-116455966D01*
X123881354Y-116333724D01*
X123516356Y-116225954D01*
X123455865Y-116208272D01*
X122980081Y-116066838D01*
X122532481Y-115927873D01*
X122103426Y-115787766D01*
X121683279Y-115642907D01*
X121262399Y-115489685D01*
X120831150Y-115324492D01*
X120379891Y-115143716D01*
X119898984Y-114943748D01*
X119378792Y-114720978D01*
X118809674Y-114471794D01*
X118754349Y-114447340D01*
X117767991Y-113991380D01*
X116833653Y-113519330D01*
X115954249Y-113032871D01*
X115132698Y-112533685D01*
X114371914Y-112023453D01*
X113745974Y-111559617D01*
X113526221Y-111392012D01*
X113353152Y-111268039D01*
X113224363Y-111186093D01*
X113137449Y-111144567D01*
X113116902Y-111139354D01*
X112963623Y-111146554D01*
X112788693Y-111212146D01*
X112598025Y-111333725D01*
X112553944Y-111368239D01*
X112448828Y-111446962D01*
X112308207Y-111543764D01*
X112154472Y-111643500D01*
X112069976Y-111695605D01*
X111941467Y-111770311D01*
X111824483Y-111830269D01*
X111703057Y-111881710D01*
X111561217Y-111930862D01*
X111382995Y-111983957D01*
X111205154Y-112033008D01*
X110914858Y-112103357D01*
X110576648Y-112171689D01*
X110206186Y-112235866D01*
X109819129Y-112293751D01*
X109431140Y-112343203D01*
X109057876Y-112382086D01*
X108714999Y-112408261D01*
X108418168Y-112419588D01*
X108371946Y-112419885D01*
X107939044Y-112404351D01*
X107562642Y-112357239D01*
X107243322Y-112278726D01*
X106981666Y-112168987D01*
X106778257Y-112028196D01*
X106667624Y-111906923D01*
X106615081Y-111828153D01*
X106585204Y-111755259D01*
X106571780Y-111664337D01*
X106568597Y-111531488D01*
X106568594Y-111525929D01*
X106570493Y-111402331D01*
X106581341Y-111313389D01*
X106608868Y-111235758D01*
X106660800Y-111146095D01*
X106727136Y-111047045D01*
X106796224Y-110951994D01*
X106871043Y-110864911D01*
X106962115Y-110776059D01*
X107079960Y-110675705D01*
X107235101Y-110554114D01*
X107369646Y-110452555D01*
X107571881Y-110303167D01*
X107805917Y-110133252D01*
X108048266Y-109959690D01*
X108275439Y-109799363D01*
X108370960Y-109732918D01*
X108702348Y-109503481D01*
X108982444Y-109308541D01*
X109215076Y-109144941D01*
X109404073Y-109009524D01*
X109553263Y-108899134D01*
X109666476Y-108810614D01*
X109747539Y-108740806D01*
X109800281Y-108686556D01*
X109828531Y-108644704D01*
X109836118Y-108612096D01*
X109826870Y-108585574D01*
X109804616Y-108561982D01*
X109797832Y-108556457D01*
X109751547Y-108541611D01*
X109651333Y-108522322D01*
X109509707Y-108500594D01*
X109339182Y-108478431D01*
X109238765Y-108466910D01*
X108883882Y-108424539D01*
X108589690Y-108380336D01*
X108350131Y-108331509D01*
X108159149Y-108275268D01*
X108010686Y-108208821D01*
X107898687Y-108129379D01*
X107817093Y-108034151D01*
X107759849Y-107920346D01*
X107720897Y-107785174D01*
X107716825Y-107765711D01*
X107680167Y-107584098D01*
X107833645Y-107435823D01*
X107936018Y-107350571D01*
X108081293Y-107247208D01*
X108252182Y-107136491D01*
X108431398Y-107029179D01*
X108601654Y-106936029D01*
X108745661Y-106867797D01*
X108748157Y-106866759D01*
X108826956Y-106830109D01*
X108854531Y-106798269D01*
X108842592Y-106753795D01*
X108834515Y-106738113D01*
X108779712Y-106653949D01*
X108687084Y-106532016D01*
X108565384Y-106382362D01*
X108423370Y-106215032D01*
X108269794Y-106040075D01*
X108113412Y-105867537D01*
X107962979Y-105707465D01*
X107827250Y-105569907D01*
X107762726Y-105508126D01*
X107397815Y-105187369D01*
X107041150Y-104915223D01*
X106674667Y-104678951D01*
X106295316Y-104473293D01*
X105957186Y-104295557D01*
X105664978Y-104120998D01*
X105399792Y-103936855D01*
X105142725Y-103730365D01*
X104975464Y-103582172D01*
X104850225Y-103462877D01*
X104734090Y-103340326D01*
X104617256Y-103202658D01*
X104489915Y-103038013D01*
X104342263Y-102834530D01*
X104255747Y-102711643D01*
X104100179Y-102485903D01*
X103975731Y-102296462D01*
X103872801Y-102126728D01*
X103781788Y-101960104D01*
X103693090Y-101779997D01*
X103603977Y-101585214D01*
X103408254Y-101120300D01*
X103216091Y-100613295D01*
X103035125Y-100086794D01*
X102872996Y-99563390D01*
X102737342Y-99065675D01*
X102699437Y-98909851D01*
X102584244Y-98361471D01*
X102503000Y-97832726D01*
X102452923Y-97299129D01*
X102431233Y-96736196D01*
X102429829Y-96536702D01*
X102434246Y-96280967D01*
X102448419Y-96024871D01*
X102473730Y-95758378D01*
X102511564Y-95471453D01*
X102563304Y-95154061D01*
X102630333Y-94796168D01*
X102714034Y-94387738D01*
X102747945Y-94229040D01*
X102800185Y-93974392D01*
X102839658Y-93747365D01*
X102867035Y-93534455D01*
X102882984Y-93322159D01*
X102888174Y-93096974D01*
X102883274Y-92845395D01*
X102868955Y-92553921D01*
X102847173Y-92226897D01*
X102831601Y-91959239D01*
X102819030Y-91637156D01*
X102809388Y-91269345D01*
X102802604Y-90864502D01*
X102798604Y-90431324D01*
X102797319Y-89978508D01*
X102798676Y-89514750D01*
X102802604Y-89048748D01*
X102809031Y-88589196D01*
X102817885Y-88144793D01*
X102829095Y-87724236D01*
X102842589Y-87336219D01*
X102858295Y-86989441D01*
X102876142Y-86692598D01*
X102894610Y-86468856D01*
X102957574Y-85873807D01*
X103028102Y-85293100D01*
X103108375Y-84712149D01*
X103200576Y-84116369D01*
X103306886Y-83491175D01*
X103429486Y-82821980D01*
X103478754Y-82563731D01*
X103545250Y-82249467D01*
X103635516Y-81873825D01*
X103749612Y-81436583D01*
X103887595Y-80937518D01*
X104049523Y-80376407D01*
X104063917Y-80327463D01*
X104223887Y-79823911D01*
X104417463Y-79281173D01*
X104638432Y-78713643D01*
X104880587Y-78135717D01*
X105137716Y-77561790D01*
X105403609Y-77006257D01*
X105672057Y-76483511D01*
X105899810Y-76071879D01*
X105970161Y-75954060D01*
X106073320Y-75787577D01*
X106204918Y-75579207D01*
X106360587Y-75335729D01*
X106535958Y-75063921D01*
X106726662Y-74770561D01*
X106928329Y-74462427D01*
X107136591Y-74146299D01*
X107295223Y-73906926D01*
X107532241Y-73550571D01*
X107738242Y-73242078D01*
X107918938Y-72973568D01*
X108080041Y-72737159D01*
X108227262Y-72524974D01*
X108366313Y-72329131D01*
X108502905Y-72141751D01*
X108642750Y-71954954D01*
X108791559Y-71760860D01*
X108955044Y-71551590D01*
X109138917Y-71319262D01*
X109348889Y-71055998D01*
X109484665Y-70886295D01*
X109746788Y-70559762D01*
X109974569Y-70278303D01*
X110174618Y-70034276D01*
X110353548Y-69820041D01*
X110517970Y-69627956D01*
X110674497Y-69450380D01*
X110829739Y-69279671D01*
X110990308Y-69108190D01*
X111162817Y-68928293D01*
X111307021Y-68780175D01*
X111547377Y-68536761D01*
X111766149Y-68320823D01*
X111975455Y-68121294D01*
X112187412Y-67927105D01*
X112414137Y-67727189D01*
X112667749Y-67510477D01*
X112960365Y-67265902D01*
X113009255Y-67225396D01*
X113259526Y-67018580D01*
X113467655Y-66847993D01*
X113642753Y-66707099D01*
X113793933Y-66589359D01*
X113930307Y-66488235D01*
X114060987Y-66397189D01*
X114195085Y-66309683D01*
X114341713Y-66219178D01*
X114509982Y-66119138D01*
X114709006Y-66003023D01*
X114729304Y-65991233D01*
X115124802Y-65764857D01*
X115555699Y-65524232D01*
X116014675Y-65273095D01*
X116494412Y-65015185D01*
X116987591Y-64754239D01*
X117486892Y-64493996D01*
X117984996Y-64238194D01*
X118474585Y-63990570D01*
X118948339Y-63754863D01*
X119398939Y-63534811D01*
X119819066Y-63334151D01*
X120201400Y-63156622D01*
X120538624Y-63005961D01*
X120753877Y-62914360D01*
X121410328Y-62654584D01*
X122064596Y-62420536D01*
X122725269Y-62210128D01*
X123400936Y-62021273D01*
X124100187Y-61851882D01*
X124831609Y-61699867D01*
X125603793Y-61563141D01*
X126425327Y-61439616D01*
X127262418Y-61332224D01*
X127461970Y-61309390D01*
X127646501Y-61290603D01*
X127826511Y-61275336D01*
X128012500Y-61263063D01*
X128214967Y-61253257D01*
X128444414Y-61245391D01*
X128711340Y-61238938D01*
X129026245Y-61233373D01*
X129315112Y-61229267D01*
X129676167Y-61224962D01*
X129982356Y-61222613D01*
X130245547Y-61222503D01*
X130477606Y-61224919D01*
G37*
D18*
X156857500Y-102705818D03*
D19*
X155587500Y-104905523D03*
D20*
X154250000Y-137000000D03*
X154250000Y-144620000D03*
D21*
X116500000Y-142000000D03*
D22*
X119000000Y-142000000D03*
D23*
X145130000Y-125050000D03*
D24*
X145130000Y-126320000D03*
X145130000Y-127590000D03*
D25*
X130570000Y-146195000D03*
D26*
X130570000Y-126195000D03*
D21*
X107950000Y-126300000D03*
D22*
X110450000Y-126300000D03*
D27*
X105110000Y-106410000D03*
D19*
X103313949Y-104613949D03*
D20*
X109190000Y-133000000D03*
X116810000Y-133000000D03*
X103500000Y-136930000D03*
X103500000Y-144550000D03*
D23*
X111940000Y-139320000D03*
D24*
X111940000Y-140590000D03*
X111940000Y-141860000D03*
D20*
X157620000Y-130090000D03*
X157620000Y-122470000D03*
D25*
X106380000Y-149000000D03*
D28*
X108920000Y-149000000D03*
X111460000Y-149000000D03*
X114000000Y-149000000D03*
X116540000Y-149000000D03*
D23*
X116360000Y-125040000D03*
D24*
X116360000Y-126310000D03*
X116360000Y-127580000D03*
D20*
X143690000Y-133000000D03*
X151310000Y-133000000D03*
D21*
X142250000Y-142000000D03*
D22*
X144750000Y-142000000D03*
D20*
X107000000Y-136940000D03*
X107000000Y-144560000D03*
X157640000Y-137000000D03*
X157640000Y-144620000D03*
D21*
X150500000Y-126340000D03*
D22*
X153000000Y-126340000D03*
D29*
X148868439Y-65487834D03*
D19*
X150664490Y-67283885D03*
D25*
X144480000Y-149000000D03*
D28*
X147020000Y-149000000D03*
X149560000Y-149000000D03*
X152100000Y-149000000D03*
X154640000Y-149000000D03*
D20*
X103480000Y-130050000D03*
X103480000Y-122430000D03*
D23*
X150000000Y-139300000D03*
D24*
X150000000Y-140570000D03*
X150000000Y-141840000D03*
D30*
X110150000Y-67380000D03*
D19*
X111946051Y-65583949D03*
M02*
