G04 #@! TF.GenerationSoftware,KiCad,Pcbnew,(6.0.11)*
G04 #@! TF.CreationDate,2023-07-10T16:30:22-05:00*
G04 #@! TF.ProjectId,sailor_moon,7361696c-6f72-45f6-9d6f-6f6e2e6b6963,rev?*
G04 #@! TF.SameCoordinates,Original*
G04 #@! TF.FileFunction,Copper,L2,Bot*
G04 #@! TF.FilePolarity,Positive*
%FSLAX46Y46*%
G04 Gerber Fmt 4.6, Leading zero omitted, Abs format (unit mm)*
G04 Created by KiCad (PCBNEW (6.0.11)) date 2023-07-10 16:30:22*
%MOMM*%
%LPD*%
G01*
G04 APERTURE LIST*
G04 Aperture macros list*
%AMRotRect*
0 Rectangle, with rotation*
0 The origin of the aperture is its center*
0 $1 length*
0 $2 width*
0 $3 Rotation angle, in degrees counterclockwise*
0 Add horizontal line*
21,1,$1,$2,0,0,$3*%
G04 Aperture macros list end*
G04 #@! TA.AperFunction,ComponentPad*
%ADD10RotRect,1.800000X1.800000X240.000000*%
G04 #@! TD*
G04 #@! TA.AperFunction,ComponentPad*
%ADD11C,1.800000*%
G04 #@! TD*
G04 #@! TA.AperFunction,ComponentPad*
%ADD12C,1.400000*%
G04 #@! TD*
G04 #@! TA.AperFunction,ComponentPad*
%ADD13R,1.600000X1.600000*%
G04 #@! TD*
G04 #@! TA.AperFunction,ComponentPad*
%ADD14C,1.600000*%
G04 #@! TD*
G04 #@! TA.AperFunction,ComponentPad*
%ADD15R,1.500000X1.050000*%
G04 #@! TD*
G04 #@! TA.AperFunction,ComponentPad*
%ADD16O,1.500000X1.050000*%
G04 #@! TD*
G04 #@! TA.AperFunction,ComponentPad*
%ADD17R,1.700000X1.700000*%
G04 #@! TD*
G04 #@! TA.AperFunction,ComponentPad*
%ADD18C,1.700000*%
G04 #@! TD*
G04 #@! TA.AperFunction,ComponentPad*
%ADD19RotRect,1.800000X1.800000X135.000000*%
G04 #@! TD*
G04 #@! TA.AperFunction,ComponentPad*
%ADD20O,1.700000X1.700000*%
G04 #@! TD*
G04 #@! TA.AperFunction,ComponentPad*
%ADD21RotRect,1.800000X1.800000X315.000000*%
G04 #@! TD*
G04 #@! TA.AperFunction,ComponentPad*
%ADD22RotRect,1.800000X1.800000X45.000000*%
G04 #@! TD*
G04 #@! TA.AperFunction,Conductor*
%ADD23C,0.300000*%
G04 #@! TD*
G04 APERTURE END LIST*
D10*
X156857500Y-102705818D03*
D11*
X155587500Y-104905523D03*
D12*
X154250000Y-137000000D03*
X154250000Y-144620000D03*
D13*
X116500000Y-142000000D03*
D14*
X119000000Y-142000000D03*
D15*
X145130000Y-125050000D03*
D16*
X145130000Y-126320000D03*
X145130000Y-127590000D03*
D17*
X130570000Y-146195000D03*
D18*
X130570000Y-126195000D03*
D13*
X107950000Y-126300000D03*
D14*
X110450000Y-126300000D03*
D19*
X105110000Y-106410000D03*
D11*
X103313949Y-104613949D03*
D12*
X109190000Y-133000000D03*
X116810000Y-133000000D03*
X103500000Y-136930000D03*
X103500000Y-144550000D03*
D15*
X111940000Y-139320000D03*
D16*
X111940000Y-140590000D03*
X111940000Y-141860000D03*
D12*
X157620000Y-130090000D03*
X157620000Y-122470000D03*
D17*
X106380000Y-149000000D03*
D20*
X108920000Y-149000000D03*
X111460000Y-149000000D03*
X114000000Y-149000000D03*
X116540000Y-149000000D03*
D15*
X116360000Y-125040000D03*
D16*
X116360000Y-126310000D03*
X116360000Y-127580000D03*
D12*
X143690000Y-133000000D03*
X151310000Y-133000000D03*
D13*
X142250000Y-142000000D03*
D14*
X144750000Y-142000000D03*
D12*
X107000000Y-136940000D03*
X107000000Y-144560000D03*
X157640000Y-137000000D03*
X157640000Y-144620000D03*
D13*
X150500000Y-126340000D03*
D14*
X153000000Y-126340000D03*
D21*
X148868439Y-65487834D03*
D11*
X150664490Y-67283885D03*
D17*
X144480000Y-149000000D03*
D20*
X147020000Y-149000000D03*
X149560000Y-149000000D03*
X152100000Y-149000000D03*
X154640000Y-149000000D03*
D12*
X103480000Y-130050000D03*
X103480000Y-122430000D03*
D15*
X150000000Y-139300000D03*
D16*
X150000000Y-140570000D03*
X150000000Y-141840000D03*
D22*
X110150000Y-67380000D03*
D11*
X111946051Y-65583949D03*
D23*
X148580000Y-139300000D02*
X150000000Y-139300000D01*
X146890000Y-143980000D02*
X148210000Y-142660000D01*
X148210000Y-142660000D02*
X148210000Y-139670000D01*
X116500000Y-143370000D02*
X117110000Y-143980000D01*
X116500000Y-142000000D02*
X116500000Y-143370000D01*
X148210000Y-139670000D02*
X148580000Y-139300000D01*
X117110000Y-143980000D02*
X146890000Y-143980000D01*
X142250000Y-142000000D02*
X139900000Y-142000000D01*
X139900000Y-142000000D02*
X138570000Y-143330000D01*
X138570000Y-143330000D02*
X122930000Y-143330000D01*
X122930000Y-143330000D02*
X118920000Y-139320000D01*
X118920000Y-139320000D02*
X111940000Y-139320000D01*
X154950000Y-103060000D02*
X155810000Y-101490000D01*
X157740000Y-81770000D02*
X157220000Y-79970000D01*
X158470000Y-85400000D02*
X158290000Y-84120000D01*
X153190000Y-72300000D02*
X152180000Y-70980000D01*
X158080000Y-94490000D02*
X158320000Y-92880000D01*
X156220000Y-77560000D02*
X155740000Y-76600000D01*
X158080000Y-83120000D02*
X157740000Y-81770000D01*
X158590000Y-88080000D02*
X158560000Y-86600000D01*
X155740000Y-76600000D02*
X155120000Y-75400000D01*
X158510000Y-90630000D02*
X158590000Y-88080000D01*
X154940000Y-103500000D02*
X154950000Y-103060000D01*
X153790000Y-73160000D02*
X153190000Y-72300000D01*
X156630000Y-99620000D02*
X157210000Y-97840000D01*
X158290000Y-84120000D02*
X158080000Y-83120000D01*
X157220000Y-79970000D02*
X156770000Y-78850000D01*
X152180000Y-70980000D02*
X151260000Y-69950000D01*
X157680000Y-96210000D02*
X158080000Y-94490000D01*
X154370000Y-74080000D02*
X153790000Y-73160000D01*
X151260000Y-69950000D02*
X150780000Y-69430000D01*
X158560000Y-86600000D02*
X158470000Y-85400000D01*
X158320000Y-92880000D02*
X158510000Y-90630000D01*
X155810000Y-101490000D02*
X156630000Y-99620000D01*
X156770000Y-78850000D02*
X156220000Y-77560000D01*
X155120000Y-75400000D02*
X154370000Y-74080000D01*
X150780000Y-69430000D02*
X150664490Y-67283885D01*
X157210000Y-97840000D02*
X157680000Y-96210000D01*
X155587500Y-104905523D02*
X154940000Y-103500000D01*
X103000000Y-82680000D02*
X103260000Y-81480000D01*
X114250000Y-65730000D02*
X117420000Y-64000000D01*
X105210000Y-76480000D02*
X106200000Y-74620000D01*
X102570000Y-85620000D02*
X102770000Y-84100000D01*
X104700000Y-77480000D02*
X105210000Y-76480000D01*
X102060000Y-97290000D02*
X102050000Y-96410000D01*
X103360000Y-102210000D02*
X102930000Y-101130000D01*
X102380000Y-90930000D02*
X102360000Y-89260000D01*
X110360000Y-69230000D02*
X111890000Y-67690000D01*
X135340000Y-61340000D02*
X137180000Y-61730000D01*
X124340000Y-61390000D02*
X126250000Y-61070000D01*
X137180000Y-61730000D02*
X139570000Y-62450000D01*
X148868439Y-65468439D02*
X146870000Y-63470000D01*
X104120000Y-78790000D02*
X104700000Y-77480000D01*
X102130000Y-95460000D02*
X102280000Y-94630000D01*
X117420000Y-64000000D02*
X119910000Y-62820000D01*
X103590000Y-80410000D02*
X104120000Y-78790000D01*
X102770000Y-84100000D02*
X103000000Y-82680000D01*
X102930000Y-101130000D02*
X102570000Y-100000000D01*
X102420000Y-93870000D02*
X102440000Y-92930000D01*
X113020000Y-66680000D02*
X114250000Y-65730000D01*
X102400000Y-87610000D02*
X102450000Y-86660000D01*
X146870000Y-63470000D02*
X142180000Y-63470000D01*
X103260000Y-81480000D02*
X103590000Y-80410000D01*
X105110000Y-104300000D02*
X103940000Y-103130000D01*
X102360000Y-89260000D02*
X102400000Y-87610000D01*
X102130000Y-98100000D02*
X102060000Y-97290000D01*
X102320000Y-99120000D02*
X102130000Y-98100000D01*
X127880000Y-60880000D02*
X130690000Y-60870000D01*
X148868439Y-65487834D02*
X148868439Y-65468439D01*
X102280000Y-94630000D02*
X102420000Y-93870000D01*
X102450000Y-86660000D02*
X102570000Y-85620000D01*
X130690000Y-60870000D02*
X132750000Y-61000000D01*
X139570000Y-62450000D02*
X142180000Y-63470000D01*
X119910000Y-62820000D02*
X122210000Y-61970000D01*
X105110000Y-106410000D02*
X105110000Y-104300000D01*
X108940000Y-70870000D02*
X110360000Y-69230000D01*
X122210000Y-61970000D02*
X124340000Y-61390000D01*
X111890000Y-67690000D02*
X113020000Y-66680000D01*
X132750000Y-61000000D02*
X135340000Y-61340000D01*
X126250000Y-61070000D02*
X127880000Y-60880000D01*
X107020000Y-73360000D02*
X107970000Y-72100000D01*
X102570000Y-100000000D02*
X102320000Y-99120000D01*
X102050000Y-96410000D02*
X102130000Y-95460000D01*
X106200000Y-74620000D02*
X107020000Y-73360000D01*
X102440000Y-92930000D02*
X102380000Y-90930000D01*
X103940000Y-103130000D02*
X103360000Y-102210000D01*
X107970000Y-72100000D02*
X108940000Y-70870000D01*
G04 #@! TA.AperFunction,Conductor*
G36*
X103260534Y-121020002D02*
G01*
X103307027Y-121073658D01*
X103317131Y-121143932D01*
X103287637Y-121208512D01*
X103225025Y-121247707D01*
X103070571Y-121289093D01*
X103060277Y-121292841D01*
X102878677Y-121377521D01*
X102869189Y-121382999D01*
X102838752Y-121404311D01*
X102830377Y-121414788D01*
X102837446Y-121428236D01*
X103467188Y-122057978D01*
X103481132Y-122065592D01*
X103482965Y-122065461D01*
X103489580Y-122061210D01*
X104123276Y-121427514D01*
X104129706Y-121415739D01*
X104120410Y-121403724D01*
X104090811Y-121382999D01*
X104081323Y-121377521D01*
X103899723Y-121292841D01*
X103889429Y-121289093D01*
X103734975Y-121247707D01*
X103674353Y-121210755D01*
X103643331Y-121146894D01*
X103651760Y-121076400D01*
X103696963Y-121021653D01*
X103767587Y-121000000D01*
X127915790Y-121000000D01*
X127966034Y-121010451D01*
X128534992Y-121257865D01*
X128772393Y-121361100D01*
X128814303Y-121390723D01*
X129974533Y-122635091D01*
X131070000Y-123810000D01*
X132290000Y-124900000D01*
X132650000Y-125005000D01*
X132656741Y-125006966D01*
X132656743Y-125006967D01*
X132787513Y-125045109D01*
X132787519Y-125045110D01*
X132793148Y-125046752D01*
X132793151Y-125046752D01*
X133010000Y-125110000D01*
X133460000Y-125070000D01*
X134200000Y-124590000D01*
X134528420Y-124168919D01*
X135062415Y-123484261D01*
X156970294Y-123484261D01*
X156979590Y-123496276D01*
X157009189Y-123517001D01*
X157018677Y-123522479D01*
X157200277Y-123607159D01*
X157210571Y-123610907D01*
X157404122Y-123662769D01*
X157414909Y-123664671D01*
X157614525Y-123682135D01*
X157625475Y-123682135D01*
X157825091Y-123664671D01*
X157835878Y-123662769D01*
X158029429Y-123610907D01*
X158039723Y-123607159D01*
X158221323Y-123522479D01*
X158230811Y-123517001D01*
X158261248Y-123495689D01*
X158269623Y-123485212D01*
X158262554Y-123471764D01*
X157632812Y-122842022D01*
X157618868Y-122834408D01*
X157617035Y-122834539D01*
X157610420Y-122838790D01*
X156976724Y-123472486D01*
X156970294Y-123484261D01*
X135062415Y-123484261D01*
X135849212Y-122475475D01*
X156407865Y-122475475D01*
X156425329Y-122675091D01*
X156427231Y-122685878D01*
X156479093Y-122879429D01*
X156482841Y-122889723D01*
X156567521Y-123071323D01*
X156572999Y-123080811D01*
X156594311Y-123111248D01*
X156604788Y-123119623D01*
X156618236Y-123112554D01*
X157247978Y-122482812D01*
X157254356Y-122471132D01*
X157984408Y-122471132D01*
X157984539Y-122472965D01*
X157988790Y-122479580D01*
X158622486Y-123113276D01*
X158634261Y-123119706D01*
X158646276Y-123110410D01*
X158667001Y-123080811D01*
X158672479Y-123071323D01*
X158757159Y-122889723D01*
X158760907Y-122879429D01*
X158812769Y-122685878D01*
X158814671Y-122675091D01*
X158832135Y-122475475D01*
X158832135Y-122464525D01*
X158814671Y-122264909D01*
X158812769Y-122254122D01*
X158760907Y-122060571D01*
X158757159Y-122050277D01*
X158672479Y-121868677D01*
X158667001Y-121859189D01*
X158645689Y-121828752D01*
X158635212Y-121820377D01*
X158621764Y-121827446D01*
X157992022Y-122457188D01*
X157984408Y-122471132D01*
X157254356Y-122471132D01*
X157255592Y-122468868D01*
X157255461Y-122467035D01*
X157251210Y-122460420D01*
X156617514Y-121826724D01*
X156605739Y-121820294D01*
X156593724Y-121829590D01*
X156572999Y-121859189D01*
X156567521Y-121868677D01*
X156482841Y-122050277D01*
X156479093Y-122060571D01*
X156427231Y-122254122D01*
X156425329Y-122264909D01*
X156407865Y-122464525D01*
X156407865Y-122475475D01*
X135849212Y-122475475D01*
X136384164Y-121789590D01*
X136645291Y-121454788D01*
X156970377Y-121454788D01*
X156977446Y-121468236D01*
X157607188Y-122097978D01*
X157621132Y-122105592D01*
X157622965Y-122105461D01*
X157629580Y-122101210D01*
X158263276Y-121467514D01*
X158269706Y-121455739D01*
X158260410Y-121443724D01*
X158230811Y-121422999D01*
X158221323Y-121417521D01*
X158039723Y-121332841D01*
X158029429Y-121329093D01*
X157835878Y-121277231D01*
X157825091Y-121275329D01*
X157625475Y-121257865D01*
X157614525Y-121257865D01*
X157414909Y-121275329D01*
X157404122Y-121277231D01*
X157210571Y-121329093D01*
X157200277Y-121332841D01*
X157018677Y-121417521D01*
X157009189Y-121422999D01*
X156978752Y-121444311D01*
X156970377Y-121454788D01*
X136645291Y-121454788D01*
X136669672Y-121423528D01*
X136713743Y-121387795D01*
X137357138Y-121073658D01*
X137481835Y-121012775D01*
X137537117Y-121000000D01*
X158629810Y-121000000D01*
X158697931Y-121020002D01*
X158718905Y-121036905D01*
X159153095Y-121471095D01*
X159187121Y-121533407D01*
X159190000Y-121560190D01*
X159190000Y-150239810D01*
X159169998Y-150307931D01*
X159153095Y-150328905D01*
X158718905Y-150763095D01*
X158656593Y-150797121D01*
X158629810Y-150800000D01*
X102410190Y-150800000D01*
X102342069Y-150779998D01*
X102321095Y-150763095D01*
X101886905Y-150328905D01*
X101852879Y-150266593D01*
X101850000Y-150239810D01*
X101850000Y-149898134D01*
X105021500Y-149898134D01*
X105028255Y-149960316D01*
X105079385Y-150096705D01*
X105166739Y-150213261D01*
X105283295Y-150300615D01*
X105419684Y-150351745D01*
X105481866Y-150358500D01*
X107278134Y-150358500D01*
X107340316Y-150351745D01*
X107476705Y-150300615D01*
X107593261Y-150213261D01*
X107680615Y-150096705D01*
X107702799Y-150037529D01*
X107724598Y-149979382D01*
X107767240Y-149922618D01*
X107833802Y-149897918D01*
X107903150Y-149913126D01*
X107937817Y-149941114D01*
X107966250Y-149973938D01*
X108138126Y-150116632D01*
X108331000Y-150229338D01*
X108539692Y-150309030D01*
X108544760Y-150310061D01*
X108544763Y-150310062D01*
X108637380Y-150328905D01*
X108758597Y-150353567D01*
X108763772Y-150353757D01*
X108763774Y-150353757D01*
X108976673Y-150361564D01*
X108976677Y-150361564D01*
X108981837Y-150361753D01*
X108986957Y-150361097D01*
X108986959Y-150361097D01*
X109198288Y-150334025D01*
X109198289Y-150334025D01*
X109203416Y-150333368D01*
X109218292Y-150328905D01*
X109412429Y-150270661D01*
X109412434Y-150270659D01*
X109417384Y-150269174D01*
X109617994Y-150170896D01*
X109799860Y-150041173D01*
X109958096Y-149883489D01*
X110088453Y-149702077D01*
X110089776Y-149703028D01*
X110136645Y-149659857D01*
X110206580Y-149647625D01*
X110272026Y-149675144D01*
X110299875Y-149706994D01*
X110359987Y-149805088D01*
X110506250Y-149973938D01*
X110678126Y-150116632D01*
X110871000Y-150229338D01*
X111079692Y-150309030D01*
X111084760Y-150310061D01*
X111084763Y-150310062D01*
X111177380Y-150328905D01*
X111298597Y-150353567D01*
X111303772Y-150353757D01*
X111303774Y-150353757D01*
X111516673Y-150361564D01*
X111516677Y-150361564D01*
X111521837Y-150361753D01*
X111526957Y-150361097D01*
X111526959Y-150361097D01*
X111738288Y-150334025D01*
X111738289Y-150334025D01*
X111743416Y-150333368D01*
X111758292Y-150328905D01*
X111952429Y-150270661D01*
X111952434Y-150270659D01*
X111957384Y-150269174D01*
X112157994Y-150170896D01*
X112339860Y-150041173D01*
X112498096Y-149883489D01*
X112628453Y-149702077D01*
X112629776Y-149703028D01*
X112676645Y-149659857D01*
X112746580Y-149647625D01*
X112812026Y-149675144D01*
X112839875Y-149706994D01*
X112899987Y-149805088D01*
X113046250Y-149973938D01*
X113218126Y-150116632D01*
X113411000Y-150229338D01*
X113619692Y-150309030D01*
X113624760Y-150310061D01*
X113624763Y-150310062D01*
X113717380Y-150328905D01*
X113838597Y-150353567D01*
X113843772Y-150353757D01*
X113843774Y-150353757D01*
X114056673Y-150361564D01*
X114056677Y-150361564D01*
X114061837Y-150361753D01*
X114066957Y-150361097D01*
X114066959Y-150361097D01*
X114278288Y-150334025D01*
X114278289Y-150334025D01*
X114283416Y-150333368D01*
X114298292Y-150328905D01*
X114492429Y-150270661D01*
X114492434Y-150270659D01*
X114497384Y-150269174D01*
X114697994Y-150170896D01*
X114879860Y-150041173D01*
X115038096Y-149883489D01*
X115168453Y-149702077D01*
X115169776Y-149703028D01*
X115216645Y-149659857D01*
X115286580Y-149647625D01*
X115352026Y-149675144D01*
X115379875Y-149706994D01*
X115439987Y-149805088D01*
X115586250Y-149973938D01*
X115758126Y-150116632D01*
X115951000Y-150229338D01*
X116159692Y-150309030D01*
X116164760Y-150310061D01*
X116164763Y-150310062D01*
X116257380Y-150328905D01*
X116378597Y-150353567D01*
X116383772Y-150353757D01*
X116383774Y-150353757D01*
X116596673Y-150361564D01*
X116596677Y-150361564D01*
X116601837Y-150361753D01*
X116606957Y-150361097D01*
X116606959Y-150361097D01*
X116818288Y-150334025D01*
X116818289Y-150334025D01*
X116823416Y-150333368D01*
X116838292Y-150328905D01*
X117032429Y-150270661D01*
X117032434Y-150270659D01*
X117037384Y-150269174D01*
X117237994Y-150170896D01*
X117419860Y-150041173D01*
X117563400Y-149898134D01*
X143121500Y-149898134D01*
X143128255Y-149960316D01*
X143179385Y-150096705D01*
X143266739Y-150213261D01*
X143383295Y-150300615D01*
X143519684Y-150351745D01*
X143581866Y-150358500D01*
X145378134Y-150358500D01*
X145440316Y-150351745D01*
X145576705Y-150300615D01*
X145693261Y-150213261D01*
X145780615Y-150096705D01*
X145802799Y-150037529D01*
X145824598Y-149979382D01*
X145867240Y-149922618D01*
X145933802Y-149897918D01*
X146003150Y-149913126D01*
X146037817Y-149941114D01*
X146066250Y-149973938D01*
X146238126Y-150116632D01*
X146431000Y-150229338D01*
X146639692Y-150309030D01*
X146644760Y-150310061D01*
X146644763Y-150310062D01*
X146737380Y-150328905D01*
X146858597Y-150353567D01*
X146863772Y-150353757D01*
X146863774Y-150353757D01*
X147076673Y-150361564D01*
X147076677Y-150361564D01*
X147081837Y-150361753D01*
X147086957Y-150361097D01*
X147086959Y-150361097D01*
X147298288Y-150334025D01*
X147298289Y-150334025D01*
X147303416Y-150333368D01*
X147318292Y-150328905D01*
X147512429Y-150270661D01*
X147512434Y-150270659D01*
X147517384Y-150269174D01*
X147717994Y-150170896D01*
X147899860Y-150041173D01*
X148058096Y-149883489D01*
X148188453Y-149702077D01*
X148189776Y-149703028D01*
X148236645Y-149659857D01*
X148306580Y-149647625D01*
X148372026Y-149675144D01*
X148399875Y-149706994D01*
X148459987Y-149805088D01*
X148606250Y-149973938D01*
X148778126Y-150116632D01*
X148971000Y-150229338D01*
X149179692Y-150309030D01*
X149184760Y-150310061D01*
X149184763Y-150310062D01*
X149277380Y-150328905D01*
X149398597Y-150353567D01*
X149403772Y-150353757D01*
X149403774Y-150353757D01*
X149616673Y-150361564D01*
X149616677Y-150361564D01*
X149621837Y-150361753D01*
X149626957Y-150361097D01*
X149626959Y-150361097D01*
X149838288Y-150334025D01*
X149838289Y-150334025D01*
X149843416Y-150333368D01*
X149858292Y-150328905D01*
X150052429Y-150270661D01*
X150052434Y-150270659D01*
X150057384Y-150269174D01*
X150257994Y-150170896D01*
X150439860Y-150041173D01*
X150598096Y-149883489D01*
X150728453Y-149702077D01*
X150729776Y-149703028D01*
X150776645Y-149659857D01*
X150846580Y-149647625D01*
X150912026Y-149675144D01*
X150939875Y-149706994D01*
X150999987Y-149805088D01*
X151146250Y-149973938D01*
X151318126Y-150116632D01*
X151511000Y-150229338D01*
X151719692Y-150309030D01*
X151724760Y-150310061D01*
X151724763Y-150310062D01*
X151817380Y-150328905D01*
X151938597Y-150353567D01*
X151943772Y-150353757D01*
X151943774Y-150353757D01*
X152156673Y-150361564D01*
X152156677Y-150361564D01*
X152161837Y-150361753D01*
X152166957Y-150361097D01*
X152166959Y-150361097D01*
X152378288Y-150334025D01*
X152378289Y-150334025D01*
X152383416Y-150333368D01*
X152398292Y-150328905D01*
X152592429Y-150270661D01*
X152592434Y-150270659D01*
X152597384Y-150269174D01*
X152797994Y-150170896D01*
X152979860Y-150041173D01*
X153138096Y-149883489D01*
X153268453Y-149702077D01*
X153269776Y-149703028D01*
X153316645Y-149659857D01*
X153386580Y-149647625D01*
X153452026Y-149675144D01*
X153479875Y-149706994D01*
X153539987Y-149805088D01*
X153686250Y-149973938D01*
X153858126Y-150116632D01*
X154051000Y-150229338D01*
X154259692Y-150309030D01*
X154264760Y-150310061D01*
X154264763Y-150310062D01*
X154357380Y-150328905D01*
X154478597Y-150353567D01*
X154483772Y-150353757D01*
X154483774Y-150353757D01*
X154696673Y-150361564D01*
X154696677Y-150361564D01*
X154701837Y-150361753D01*
X154706957Y-150361097D01*
X154706959Y-150361097D01*
X154918288Y-150334025D01*
X154918289Y-150334025D01*
X154923416Y-150333368D01*
X154938292Y-150328905D01*
X155132429Y-150270661D01*
X155132434Y-150270659D01*
X155137384Y-150269174D01*
X155337994Y-150170896D01*
X155519860Y-150041173D01*
X155678096Y-149883489D01*
X155808453Y-149702077D01*
X155829320Y-149659857D01*
X155905136Y-149506453D01*
X155905137Y-149506451D01*
X155907430Y-149501811D01*
X155972370Y-149288069D01*
X156001529Y-149066590D01*
X156003156Y-149000000D01*
X155984852Y-148777361D01*
X155930431Y-148560702D01*
X155841354Y-148355840D01*
X155720014Y-148168277D01*
X155569670Y-148003051D01*
X155565619Y-147999852D01*
X155565615Y-147999848D01*
X155398414Y-147867800D01*
X155398410Y-147867798D01*
X155394359Y-147864598D01*
X155198789Y-147756638D01*
X155193920Y-147754914D01*
X155193916Y-147754912D01*
X154993087Y-147683795D01*
X154993083Y-147683794D01*
X154988212Y-147682069D01*
X154983119Y-147681162D01*
X154983116Y-147681161D01*
X154773373Y-147643800D01*
X154773367Y-147643799D01*
X154768284Y-147642894D01*
X154694452Y-147641992D01*
X154550081Y-147640228D01*
X154550079Y-147640228D01*
X154544911Y-147640165D01*
X154324091Y-147673955D01*
X154111756Y-147743357D01*
X153913607Y-147846507D01*
X153909474Y-147849610D01*
X153909471Y-147849612D01*
X153739100Y-147977530D01*
X153734965Y-147980635D01*
X153731393Y-147984373D01*
X153623729Y-148097037D01*
X153580629Y-148142138D01*
X153473201Y-148299621D01*
X153418293Y-148344621D01*
X153347768Y-148352792D01*
X153284021Y-148321538D01*
X153263324Y-148297054D01*
X153182822Y-148172617D01*
X153182820Y-148172614D01*
X153180014Y-148168277D01*
X153029670Y-148003051D01*
X153025619Y-147999852D01*
X153025615Y-147999848D01*
X152858414Y-147867800D01*
X152858410Y-147867798D01*
X152854359Y-147864598D01*
X152658789Y-147756638D01*
X152653920Y-147754914D01*
X152653916Y-147754912D01*
X152453087Y-147683795D01*
X152453083Y-147683794D01*
X152448212Y-147682069D01*
X152443119Y-147681162D01*
X152443116Y-147681161D01*
X152233373Y-147643800D01*
X152233367Y-147643799D01*
X152228284Y-147642894D01*
X152154452Y-147641992D01*
X152010081Y-147640228D01*
X152010079Y-147640228D01*
X152004911Y-147640165D01*
X151784091Y-147673955D01*
X151571756Y-147743357D01*
X151373607Y-147846507D01*
X151369474Y-147849610D01*
X151369471Y-147849612D01*
X151199100Y-147977530D01*
X151194965Y-147980635D01*
X151191393Y-147984373D01*
X151083729Y-148097037D01*
X151040629Y-148142138D01*
X150933201Y-148299621D01*
X150878293Y-148344621D01*
X150807768Y-148352792D01*
X150744021Y-148321538D01*
X150723324Y-148297054D01*
X150642822Y-148172617D01*
X150642820Y-148172614D01*
X150640014Y-148168277D01*
X150489670Y-148003051D01*
X150485619Y-147999852D01*
X150485615Y-147999848D01*
X150318414Y-147867800D01*
X150318410Y-147867798D01*
X150314359Y-147864598D01*
X150118789Y-147756638D01*
X150113920Y-147754914D01*
X150113916Y-147754912D01*
X149913087Y-147683795D01*
X149913083Y-147683794D01*
X149908212Y-147682069D01*
X149903119Y-147681162D01*
X149903116Y-147681161D01*
X149693373Y-147643800D01*
X149693367Y-147643799D01*
X149688284Y-147642894D01*
X149614452Y-147641992D01*
X149470081Y-147640228D01*
X149470079Y-147640228D01*
X149464911Y-147640165D01*
X149244091Y-147673955D01*
X149031756Y-147743357D01*
X148833607Y-147846507D01*
X148829474Y-147849610D01*
X148829471Y-147849612D01*
X148659100Y-147977530D01*
X148654965Y-147980635D01*
X148651393Y-147984373D01*
X148543729Y-148097037D01*
X148500629Y-148142138D01*
X148393201Y-148299621D01*
X148338293Y-148344621D01*
X148267768Y-148352792D01*
X148204021Y-148321538D01*
X148183324Y-148297054D01*
X148102822Y-148172617D01*
X148102820Y-148172614D01*
X148100014Y-148168277D01*
X147949670Y-148003051D01*
X147945619Y-147999852D01*
X147945615Y-147999848D01*
X147778414Y-147867800D01*
X147778410Y-147867798D01*
X147774359Y-147864598D01*
X147578789Y-147756638D01*
X147573920Y-147754914D01*
X147573916Y-147754912D01*
X147373087Y-147683795D01*
X147373083Y-147683794D01*
X147368212Y-147682069D01*
X147363119Y-147681162D01*
X147363116Y-147681161D01*
X147153373Y-147643800D01*
X147153367Y-147643799D01*
X147148284Y-147642894D01*
X147074452Y-147641992D01*
X146930081Y-147640228D01*
X146930079Y-147640228D01*
X146924911Y-147640165D01*
X146704091Y-147673955D01*
X146491756Y-147743357D01*
X146293607Y-147846507D01*
X146289474Y-147849610D01*
X146289471Y-147849612D01*
X146119100Y-147977530D01*
X146114965Y-147980635D01*
X146058537Y-148039684D01*
X146034283Y-148065064D01*
X145972759Y-148100494D01*
X145901846Y-148097037D01*
X145844060Y-148055791D01*
X145825207Y-148022243D01*
X145783767Y-147911703D01*
X145780615Y-147903295D01*
X145693261Y-147786739D01*
X145576705Y-147699385D01*
X145440316Y-147648255D01*
X145378134Y-147641500D01*
X143581866Y-147641500D01*
X143519684Y-147648255D01*
X143383295Y-147699385D01*
X143266739Y-147786739D01*
X143179385Y-147903295D01*
X143128255Y-148039684D01*
X143121500Y-148101866D01*
X143121500Y-149898134D01*
X117563400Y-149898134D01*
X117578096Y-149883489D01*
X117708453Y-149702077D01*
X117729320Y-149659857D01*
X117805136Y-149506453D01*
X117805137Y-149506451D01*
X117807430Y-149501811D01*
X117872370Y-149288069D01*
X117901529Y-149066590D01*
X117903156Y-149000000D01*
X117884852Y-148777361D01*
X117830431Y-148560702D01*
X117741354Y-148355840D01*
X117620014Y-148168277D01*
X117469670Y-148003051D01*
X117465619Y-147999852D01*
X117465615Y-147999848D01*
X117298414Y-147867800D01*
X117298410Y-147867798D01*
X117294359Y-147864598D01*
X117098789Y-147756638D01*
X117093920Y-147754914D01*
X117093916Y-147754912D01*
X116893087Y-147683795D01*
X116893083Y-147683794D01*
X116888212Y-147682069D01*
X116883119Y-147681162D01*
X116883116Y-147681161D01*
X116673373Y-147643800D01*
X116673367Y-147643799D01*
X116668284Y-147642894D01*
X116594452Y-147641992D01*
X116450081Y-147640228D01*
X116450079Y-147640228D01*
X116444911Y-147640165D01*
X116224091Y-147673955D01*
X116011756Y-147743357D01*
X115813607Y-147846507D01*
X115809474Y-147849610D01*
X115809471Y-147849612D01*
X115639100Y-147977530D01*
X115634965Y-147980635D01*
X115631393Y-147984373D01*
X115523729Y-148097037D01*
X115480629Y-148142138D01*
X115373201Y-148299621D01*
X115318293Y-148344621D01*
X115247768Y-148352792D01*
X115184021Y-148321538D01*
X115163324Y-148297054D01*
X115082822Y-148172617D01*
X115082820Y-148172614D01*
X115080014Y-148168277D01*
X114929670Y-148003051D01*
X114925619Y-147999852D01*
X114925615Y-147999848D01*
X114758414Y-147867800D01*
X114758410Y-147867798D01*
X114754359Y-147864598D01*
X114558789Y-147756638D01*
X114553920Y-147754914D01*
X114553916Y-147754912D01*
X114353087Y-147683795D01*
X114353083Y-147683794D01*
X114348212Y-147682069D01*
X114343119Y-147681162D01*
X114343116Y-147681161D01*
X114133373Y-147643800D01*
X114133367Y-147643799D01*
X114128284Y-147642894D01*
X114054452Y-147641992D01*
X113910081Y-147640228D01*
X113910079Y-147640228D01*
X113904911Y-147640165D01*
X113684091Y-147673955D01*
X113471756Y-147743357D01*
X113273607Y-147846507D01*
X113269474Y-147849610D01*
X113269471Y-147849612D01*
X113099100Y-147977530D01*
X113094965Y-147980635D01*
X113091393Y-147984373D01*
X112983729Y-148097037D01*
X112940629Y-148142138D01*
X112833201Y-148299621D01*
X112778293Y-148344621D01*
X112707768Y-148352792D01*
X112644021Y-148321538D01*
X112623324Y-148297054D01*
X112542822Y-148172617D01*
X112542820Y-148172614D01*
X112540014Y-148168277D01*
X112389670Y-148003051D01*
X112385619Y-147999852D01*
X112385615Y-147999848D01*
X112218414Y-147867800D01*
X112218410Y-147867798D01*
X112214359Y-147864598D01*
X112018789Y-147756638D01*
X112013920Y-147754914D01*
X112013916Y-147754912D01*
X111813087Y-147683795D01*
X111813083Y-147683794D01*
X111808212Y-147682069D01*
X111803119Y-147681162D01*
X111803116Y-147681161D01*
X111593373Y-147643800D01*
X111593367Y-147643799D01*
X111588284Y-147642894D01*
X111514452Y-147641992D01*
X111370081Y-147640228D01*
X111370079Y-147640228D01*
X111364911Y-147640165D01*
X111144091Y-147673955D01*
X110931756Y-147743357D01*
X110733607Y-147846507D01*
X110729474Y-147849610D01*
X110729471Y-147849612D01*
X110559100Y-147977530D01*
X110554965Y-147980635D01*
X110551393Y-147984373D01*
X110443729Y-148097037D01*
X110400629Y-148142138D01*
X110293201Y-148299621D01*
X110238293Y-148344621D01*
X110167768Y-148352792D01*
X110104021Y-148321538D01*
X110083324Y-148297054D01*
X110002822Y-148172617D01*
X110002820Y-148172614D01*
X110000014Y-148168277D01*
X109849670Y-148003051D01*
X109845619Y-147999852D01*
X109845615Y-147999848D01*
X109678414Y-147867800D01*
X109678410Y-147867798D01*
X109674359Y-147864598D01*
X109478789Y-147756638D01*
X109473920Y-147754914D01*
X109473916Y-147754912D01*
X109273087Y-147683795D01*
X109273083Y-147683794D01*
X109268212Y-147682069D01*
X109263119Y-147681162D01*
X109263116Y-147681161D01*
X109053373Y-147643800D01*
X109053367Y-147643799D01*
X109048284Y-147642894D01*
X108974452Y-147641992D01*
X108830081Y-147640228D01*
X108830079Y-147640228D01*
X108824911Y-147640165D01*
X108604091Y-147673955D01*
X108391756Y-147743357D01*
X108193607Y-147846507D01*
X108189474Y-147849610D01*
X108189471Y-147849612D01*
X108019100Y-147977530D01*
X108014965Y-147980635D01*
X107958537Y-148039684D01*
X107934283Y-148065064D01*
X107872759Y-148100494D01*
X107801846Y-148097037D01*
X107744060Y-148055791D01*
X107725207Y-148022243D01*
X107683767Y-147911703D01*
X107680615Y-147903295D01*
X107593261Y-147786739D01*
X107476705Y-147699385D01*
X107340316Y-147648255D01*
X107278134Y-147641500D01*
X105481866Y-147641500D01*
X105419684Y-147648255D01*
X105283295Y-147699385D01*
X105166739Y-147786739D01*
X105079385Y-147903295D01*
X105028255Y-148039684D01*
X105021500Y-148101866D01*
X105021500Y-149898134D01*
X101850000Y-149898134D01*
X101850000Y-144550000D01*
X102286884Y-144550000D01*
X102305314Y-144760655D01*
X102306738Y-144765968D01*
X102306738Y-144765970D01*
X102327447Y-144843255D01*
X102360044Y-144964910D01*
X102362366Y-144969891D01*
X102362367Y-144969892D01*
X102418892Y-145091109D01*
X102449411Y-145156558D01*
X102570699Y-145329776D01*
X102720224Y-145479301D01*
X102893442Y-145600589D01*
X102898420Y-145602910D01*
X102898423Y-145602912D01*
X103036791Y-145667434D01*
X103085090Y-145689956D01*
X103090398Y-145691378D01*
X103090400Y-145691379D01*
X103284030Y-145743262D01*
X103284032Y-145743262D01*
X103289345Y-145744686D01*
X103500000Y-145763116D01*
X103710655Y-145744686D01*
X103715968Y-145743262D01*
X103715970Y-145743262D01*
X103909600Y-145691379D01*
X103909602Y-145691378D01*
X103914910Y-145689956D01*
X103963209Y-145667434D01*
X104101577Y-145602912D01*
X104101580Y-145602910D01*
X104106558Y-145600589D01*
X104279776Y-145479301D01*
X104429301Y-145329776D01*
X104550589Y-145156558D01*
X104581109Y-145091109D01*
X104637633Y-144969892D01*
X104637634Y-144969891D01*
X104639956Y-144964910D01*
X104672554Y-144843255D01*
X104693262Y-144765970D01*
X104693262Y-144765968D01*
X104694686Y-144760655D01*
X104712241Y-144560000D01*
X105786884Y-144560000D01*
X105805314Y-144770655D01*
X105806738Y-144775968D01*
X105806738Y-144775970D01*
X105857365Y-144964910D01*
X105860044Y-144974910D01*
X105862366Y-144979891D01*
X105862367Y-144979892D01*
X105946849Y-145161063D01*
X105949411Y-145166558D01*
X106070699Y-145339776D01*
X106220224Y-145489301D01*
X106393442Y-145610589D01*
X106398420Y-145612910D01*
X106398423Y-145612912D01*
X106580108Y-145697633D01*
X106585090Y-145699956D01*
X106590398Y-145701378D01*
X106590400Y-145701379D01*
X106784030Y-145753262D01*
X106784032Y-145753262D01*
X106789345Y-145754686D01*
X107000000Y-145773116D01*
X107210655Y-145754686D01*
X107215968Y-145753262D01*
X107215970Y-145753262D01*
X107409600Y-145701379D01*
X107409602Y-145701378D01*
X107414910Y-145699956D01*
X107419892Y-145697633D01*
X107601577Y-145612912D01*
X107601580Y-145612910D01*
X107606558Y-145610589D01*
X107779776Y-145489301D01*
X107929301Y-145339776D01*
X108050589Y-145166558D01*
X108053152Y-145161063D01*
X108137633Y-144979892D01*
X108137634Y-144979891D01*
X108139956Y-144974910D01*
X108142636Y-144964910D01*
X108193262Y-144775970D01*
X108193262Y-144775968D01*
X108194686Y-144770655D01*
X108213116Y-144560000D01*
X108194686Y-144349345D01*
X108192007Y-144339345D01*
X108141379Y-144150400D01*
X108141378Y-144150398D01*
X108139956Y-144145090D01*
X108080890Y-144018423D01*
X108052912Y-143958423D01*
X108052910Y-143958420D01*
X108050589Y-143953442D01*
X107929301Y-143780224D01*
X107779776Y-143630699D01*
X107606558Y-143509411D01*
X107601580Y-143507090D01*
X107601577Y-143507088D01*
X107419892Y-143422367D01*
X107419891Y-143422366D01*
X107414910Y-143420044D01*
X107409602Y-143418622D01*
X107409600Y-143418621D01*
X107215970Y-143366738D01*
X107215968Y-143366738D01*
X107210655Y-143365314D01*
X107000000Y-143346884D01*
X106789345Y-143365314D01*
X106784032Y-143366738D01*
X106784030Y-143366738D01*
X106590400Y-143418621D01*
X106590398Y-143418622D01*
X106585090Y-143420044D01*
X106580109Y-143422366D01*
X106580108Y-143422367D01*
X106398423Y-143507088D01*
X106398420Y-143507090D01*
X106393442Y-143509411D01*
X106220224Y-143630699D01*
X106070699Y-143780224D01*
X105949411Y-143953442D01*
X105947090Y-143958420D01*
X105947088Y-143958423D01*
X105919110Y-144018423D01*
X105860044Y-144145090D01*
X105858622Y-144150398D01*
X105858621Y-144150400D01*
X105807993Y-144339345D01*
X105805314Y-144349345D01*
X105786884Y-144560000D01*
X104712241Y-144560000D01*
X104713116Y-144550000D01*
X104694686Y-144339345D01*
X104660135Y-144210400D01*
X104641379Y-144140400D01*
X104641378Y-144140398D01*
X104639956Y-144135090D01*
X104555252Y-143953442D01*
X104552912Y-143948423D01*
X104552910Y-143948420D01*
X104550589Y-143943442D01*
X104429301Y-143770224D01*
X104279776Y-143620699D01*
X104106558Y-143499411D01*
X104101580Y-143497090D01*
X104101577Y-143497088D01*
X103919892Y-143412367D01*
X103919891Y-143412366D01*
X103914910Y-143410044D01*
X103909602Y-143408622D01*
X103909600Y-143408621D01*
X103715970Y-143356738D01*
X103715968Y-143356738D01*
X103710655Y-143355314D01*
X103500000Y-143336884D01*
X103289345Y-143355314D01*
X103284032Y-143356738D01*
X103284030Y-143356738D01*
X103090400Y-143408621D01*
X103090398Y-143408622D01*
X103085090Y-143410044D01*
X103080109Y-143412366D01*
X103080108Y-143412367D01*
X102898423Y-143497088D01*
X102898420Y-143497090D01*
X102893442Y-143499411D01*
X102720224Y-143620699D01*
X102570699Y-143770224D01*
X102449411Y-143943442D01*
X102447090Y-143948420D01*
X102447088Y-143948423D01*
X102444748Y-143953442D01*
X102360044Y-144135090D01*
X102358622Y-144140398D01*
X102358621Y-144140400D01*
X102339865Y-144210400D01*
X102305314Y-144339345D01*
X102286884Y-144550000D01*
X101850000Y-144550000D01*
X101850000Y-141852750D01*
X110676524Y-141852750D01*
X110694894Y-142054596D01*
X110752119Y-142249029D01*
X110754972Y-142254486D01*
X110754973Y-142254489D01*
X110759127Y-142262435D01*
X110846019Y-142428645D01*
X110849879Y-142433445D01*
X110849879Y-142433446D01*
X110855729Y-142440722D01*
X110973019Y-142586601D01*
X111128281Y-142716881D01*
X111133673Y-142719845D01*
X111133677Y-142719848D01*
X111278659Y-142799552D01*
X111305891Y-142814523D01*
X111499084Y-142875807D01*
X111505201Y-142876493D01*
X111505205Y-142876494D01*
X111568273Y-142883568D01*
X111656817Y-142893500D01*
X112216004Y-142893500D01*
X112366713Y-142878723D01*
X112560742Y-142820142D01*
X112739698Y-142724990D01*
X112792723Y-142681744D01*
X112850532Y-142634595D01*
X112896763Y-142596890D01*
X112909246Y-142581801D01*
X113022027Y-142445472D01*
X113022029Y-142445469D01*
X113025956Y-142440722D01*
X113122356Y-142262435D01*
X113182290Y-142068820D01*
X113203476Y-141867250D01*
X113185106Y-141665404D01*
X113181027Y-141651543D01*
X113129620Y-141476880D01*
X113127881Y-141470971D01*
X113123951Y-141463452D01*
X113068361Y-141357118D01*
X113033981Y-141291355D01*
X113034016Y-141291337D01*
X113014111Y-141225559D01*
X113029271Y-141164591D01*
X113036151Y-141151866D01*
X113122356Y-140992435D01*
X113163305Y-140860151D01*
X113180468Y-140804707D01*
X113180469Y-140804704D01*
X113182290Y-140798820D01*
X113185770Y-140765716D01*
X113202832Y-140603378D01*
X113202832Y-140603377D01*
X113203476Y-140597250D01*
X113195898Y-140513986D01*
X113185665Y-140401543D01*
X113185664Y-140401540D01*
X113185106Y-140395404D01*
X113181027Y-140381543D01*
X113129620Y-140206879D01*
X113129619Y-140206877D01*
X113127881Y-140200971D01*
X113128740Y-140200718D01*
X113122286Y-140135338D01*
X113135452Y-140098594D01*
X113140615Y-140091705D01*
X113143766Y-140083299D01*
X113143768Y-140083296D01*
X113152401Y-140060269D01*
X113195043Y-140003505D01*
X113261605Y-139978806D01*
X113270382Y-139978500D01*
X118595050Y-139978500D01*
X118663171Y-139998502D01*
X118684145Y-140015405D01*
X119144514Y-140475774D01*
X119178540Y-140538086D01*
X119173475Y-140608901D01*
X119130928Y-140665737D01*
X119064408Y-140690548D01*
X119044437Y-140690389D01*
X119005486Y-140686981D01*
X119005475Y-140686981D01*
X119000000Y-140686502D01*
X118771913Y-140706457D01*
X118766600Y-140707881D01*
X118766598Y-140707881D01*
X118556067Y-140764293D01*
X118556065Y-140764294D01*
X118550757Y-140765716D01*
X118545776Y-140768039D01*
X118545775Y-140768039D01*
X118348238Y-140860151D01*
X118348233Y-140860154D01*
X118343251Y-140862477D01*
X118238389Y-140935902D01*
X118160211Y-140990643D01*
X118160208Y-140990645D01*
X118155700Y-140993802D01*
X118010000Y-141139502D01*
X117947688Y-141173528D01*
X117876873Y-141168463D01*
X117820037Y-141125916D01*
X117802868Y-141089263D01*
X117801745Y-141089684D01*
X117753767Y-140961703D01*
X117750615Y-140953295D01*
X117663261Y-140836739D01*
X117546705Y-140749385D01*
X117410316Y-140698255D01*
X117348134Y-140691500D01*
X115651866Y-140691500D01*
X115589684Y-140698255D01*
X115453295Y-140749385D01*
X115336739Y-140836739D01*
X115249385Y-140953295D01*
X115198255Y-141089684D01*
X115191500Y-141151866D01*
X115191500Y-142848134D01*
X115198255Y-142910316D01*
X115249385Y-143046705D01*
X115336739Y-143163261D01*
X115453295Y-143250615D01*
X115589684Y-143301745D01*
X115651866Y-143308500D01*
X115717140Y-143308500D01*
X115785261Y-143328502D01*
X115831754Y-143382158D01*
X115843078Y-143430543D01*
X115844438Y-143473831D01*
X115846650Y-143481444D01*
X115846650Y-143481445D01*
X115850419Y-143494416D01*
X115854430Y-143513782D01*
X115857118Y-143535064D01*
X115860034Y-143542429D01*
X115860035Y-143542433D01*
X115874126Y-143578021D01*
X115877965Y-143589231D01*
X115890855Y-143633600D01*
X115901775Y-143652065D01*
X115910466Y-143669805D01*
X115918365Y-143689756D01*
X115945516Y-143727126D01*
X115952033Y-143737048D01*
X115971507Y-143769977D01*
X115971510Y-143769981D01*
X115975547Y-143776807D01*
X115990711Y-143791971D01*
X116003551Y-143807004D01*
X116016159Y-143824357D01*
X116022265Y-143829408D01*
X116051753Y-143853803D01*
X116060532Y-143861792D01*
X116586345Y-144387604D01*
X116594335Y-144396385D01*
X116598584Y-144403080D01*
X116604362Y-144408506D01*
X116604363Y-144408507D01*
X116650273Y-144451619D01*
X116653115Y-144454374D01*
X116673667Y-144474926D01*
X116676801Y-144477357D01*
X116677163Y-144477638D01*
X116686191Y-144485348D01*
X116719867Y-144516972D01*
X116726818Y-144520793D01*
X116726819Y-144520794D01*
X116738655Y-144527301D01*
X116755184Y-144538158D01*
X116765869Y-144546447D01*
X116765871Y-144546448D01*
X116772131Y-144551304D01*
X116814544Y-144569657D01*
X116825181Y-144574868D01*
X116865663Y-144597124D01*
X116873342Y-144599096D01*
X116873343Y-144599096D01*
X116886434Y-144602457D01*
X116905136Y-144608859D01*
X116924823Y-144617379D01*
X116932652Y-144618619D01*
X116970448Y-144624605D01*
X116982074Y-144627013D01*
X117019135Y-144636529D01*
X117019136Y-144636529D01*
X117026812Y-144638500D01*
X117048258Y-144638500D01*
X117067968Y-144640051D01*
X117089151Y-144643406D01*
X117135140Y-144639059D01*
X117146995Y-144638500D01*
X129460816Y-144638500D01*
X129528937Y-144658502D01*
X129575430Y-144712158D01*
X129585534Y-144782432D01*
X129556040Y-144847012D01*
X129505046Y-144882482D01*
X129473295Y-144894385D01*
X129356739Y-144981739D01*
X129269385Y-145098295D01*
X129218255Y-145234684D01*
X129211500Y-145296866D01*
X129211500Y-147093134D01*
X129218255Y-147155316D01*
X129269385Y-147291705D01*
X129356739Y-147408261D01*
X129473295Y-147495615D01*
X129609684Y-147546745D01*
X129671866Y-147553500D01*
X131468134Y-147553500D01*
X131530316Y-147546745D01*
X131666705Y-147495615D01*
X131783261Y-147408261D01*
X131870615Y-147291705D01*
X131921745Y-147155316D01*
X131928500Y-147093134D01*
X131928500Y-145296866D01*
X131921745Y-145234684D01*
X131870615Y-145098295D01*
X131783261Y-144981739D01*
X131666705Y-144894385D01*
X131634954Y-144882482D01*
X131578190Y-144839840D01*
X131553490Y-144773279D01*
X131568698Y-144703930D01*
X131618984Y-144653812D01*
X131679184Y-144638500D01*
X146807944Y-144638500D01*
X146819800Y-144639059D01*
X146819803Y-144639059D01*
X146827537Y-144640788D01*
X146898369Y-144638562D01*
X146902327Y-144638500D01*
X146931432Y-144638500D01*
X146935832Y-144637944D01*
X146947664Y-144637012D01*
X146993831Y-144635562D01*
X147014421Y-144629580D01*
X147033782Y-144625570D01*
X147041424Y-144624605D01*
X147047204Y-144623875D01*
X147047205Y-144623875D01*
X147055064Y-144622882D01*
X147062343Y-144620000D01*
X153036884Y-144620000D01*
X153055314Y-144830655D01*
X153056738Y-144835968D01*
X153056738Y-144835970D01*
X153091288Y-144964910D01*
X153110044Y-145034910D01*
X153112366Y-145039891D01*
X153112367Y-145039892D01*
X153171433Y-145166558D01*
X153199411Y-145226558D01*
X153320699Y-145399776D01*
X153470224Y-145549301D01*
X153643442Y-145670589D01*
X153648420Y-145672910D01*
X153648423Y-145672912D01*
X153830108Y-145757633D01*
X153835090Y-145759956D01*
X153840398Y-145761378D01*
X153840400Y-145761379D01*
X154034030Y-145813262D01*
X154034032Y-145813262D01*
X154039345Y-145814686D01*
X154250000Y-145833116D01*
X154460655Y-145814686D01*
X154465968Y-145813262D01*
X154465970Y-145813262D01*
X154659600Y-145761379D01*
X154659602Y-145761378D01*
X154664910Y-145759956D01*
X154669892Y-145757633D01*
X154851577Y-145672912D01*
X154851580Y-145672910D01*
X154856558Y-145670589D01*
X155029776Y-145549301D01*
X155179301Y-145399776D01*
X155300589Y-145226558D01*
X155328568Y-145166558D01*
X155387633Y-145039892D01*
X155387634Y-145039891D01*
X155389956Y-145034910D01*
X155408713Y-144964910D01*
X155443262Y-144835970D01*
X155443262Y-144835968D01*
X155444686Y-144830655D01*
X155463116Y-144620000D01*
X156426884Y-144620000D01*
X156445314Y-144830655D01*
X156446738Y-144835968D01*
X156446738Y-144835970D01*
X156481288Y-144964910D01*
X156500044Y-145034910D01*
X156502366Y-145039891D01*
X156502367Y-145039892D01*
X156561433Y-145166558D01*
X156589411Y-145226558D01*
X156710699Y-145399776D01*
X156860224Y-145549301D01*
X157033442Y-145670589D01*
X157038420Y-145672910D01*
X157038423Y-145672912D01*
X157220108Y-145757633D01*
X157225090Y-145759956D01*
X157230398Y-145761378D01*
X157230400Y-145761379D01*
X157424030Y-145813262D01*
X157424032Y-145813262D01*
X157429345Y-145814686D01*
X157640000Y-145833116D01*
X157850655Y-145814686D01*
X157855968Y-145813262D01*
X157855970Y-145813262D01*
X158049600Y-145761379D01*
X158049602Y-145761378D01*
X158054910Y-145759956D01*
X158059892Y-145757633D01*
X158241577Y-145672912D01*
X158241580Y-145672910D01*
X158246558Y-145670589D01*
X158419776Y-145549301D01*
X158569301Y-145399776D01*
X158690589Y-145226558D01*
X158718568Y-145166558D01*
X158777633Y-145039892D01*
X158777634Y-145039891D01*
X158779956Y-145034910D01*
X158798713Y-144964910D01*
X158833262Y-144835970D01*
X158833262Y-144835968D01*
X158834686Y-144830655D01*
X158853116Y-144620000D01*
X158834686Y-144409345D01*
X158833007Y-144403080D01*
X158781379Y-144210400D01*
X158781378Y-144210398D01*
X158779956Y-144205090D01*
X158749791Y-144140400D01*
X158692912Y-144018423D01*
X158692910Y-144018420D01*
X158690589Y-144013442D01*
X158569301Y-143840224D01*
X158419776Y-143690699D01*
X158246558Y-143569411D01*
X158241580Y-143567090D01*
X158241577Y-143567088D01*
X158059892Y-143482367D01*
X158059891Y-143482366D01*
X158054910Y-143480044D01*
X158049602Y-143478622D01*
X158049600Y-143478621D01*
X157855970Y-143426738D01*
X157855968Y-143426738D01*
X157850655Y-143425314D01*
X157640000Y-143406884D01*
X157429345Y-143425314D01*
X157424032Y-143426738D01*
X157424030Y-143426738D01*
X157230400Y-143478621D01*
X157230398Y-143478622D01*
X157225090Y-143480044D01*
X157220109Y-143482366D01*
X157220108Y-143482367D01*
X157038423Y-143567088D01*
X157038420Y-143567090D01*
X157033442Y-143569411D01*
X156860224Y-143690699D01*
X156710699Y-143840224D01*
X156589411Y-144013442D01*
X156587090Y-144018420D01*
X156587088Y-144018423D01*
X156530209Y-144140400D01*
X156500044Y-144205090D01*
X156498622Y-144210398D01*
X156498621Y-144210400D01*
X156446993Y-144403080D01*
X156445314Y-144409345D01*
X156426884Y-144620000D01*
X155463116Y-144620000D01*
X155444686Y-144409345D01*
X155443007Y-144403080D01*
X155391379Y-144210400D01*
X155391378Y-144210398D01*
X155389956Y-144205090D01*
X155359791Y-144140400D01*
X155302912Y-144018423D01*
X155302910Y-144018420D01*
X155300589Y-144013442D01*
X155179301Y-143840224D01*
X155029776Y-143690699D01*
X154856558Y-143569411D01*
X154851580Y-143567090D01*
X154851577Y-143567088D01*
X154669892Y-143482367D01*
X154669891Y-143482366D01*
X154664910Y-143480044D01*
X154659602Y-143478622D01*
X154659600Y-143478621D01*
X154465970Y-143426738D01*
X154465968Y-143426738D01*
X154460655Y-143425314D01*
X154250000Y-143406884D01*
X154039345Y-143425314D01*
X154034032Y-143426738D01*
X154034030Y-143426738D01*
X153840400Y-143478621D01*
X153840398Y-143478622D01*
X153835090Y-143480044D01*
X153830109Y-143482366D01*
X153830108Y-143482367D01*
X153648423Y-143567088D01*
X153648420Y-143567090D01*
X153643442Y-143569411D01*
X153470224Y-143690699D01*
X153320699Y-143840224D01*
X153199411Y-144013442D01*
X153197090Y-144018420D01*
X153197088Y-144018423D01*
X153140209Y-144140400D01*
X153110044Y-144205090D01*
X153108622Y-144210398D01*
X153108621Y-144210400D01*
X153056993Y-144403080D01*
X153055314Y-144409345D01*
X153036884Y-144620000D01*
X147062343Y-144620000D01*
X147062429Y-144619966D01*
X147062433Y-144619965D01*
X147098021Y-144605874D01*
X147109231Y-144602035D01*
X147153600Y-144589145D01*
X147172065Y-144578225D01*
X147189805Y-144569534D01*
X147209756Y-144561635D01*
X147247129Y-144534482D01*
X147257048Y-144527967D01*
X147289977Y-144508493D01*
X147289981Y-144508490D01*
X147296807Y-144504453D01*
X147311971Y-144489289D01*
X147327005Y-144476448D01*
X147337943Y-144468501D01*
X147344357Y-144463841D01*
X147373803Y-144428247D01*
X147381792Y-144419468D01*
X148617605Y-143183655D01*
X148626385Y-143175665D01*
X148626387Y-143175663D01*
X148633080Y-143171416D01*
X148647481Y-143156081D01*
X148681604Y-143119743D01*
X148684359Y-143116901D01*
X148704927Y-143096333D01*
X148707647Y-143092826D01*
X148715353Y-143083804D01*
X148741544Y-143055913D01*
X148746972Y-143050133D01*
X148753479Y-143038297D01*
X148757303Y-143031342D01*
X148768157Y-143014818D01*
X148776445Y-143004132D01*
X148781304Y-142997868D01*
X148784452Y-142990594D01*
X148799654Y-142955465D01*
X148804876Y-142944805D01*
X148823305Y-142911284D01*
X148823306Y-142911282D01*
X148827124Y-142904337D01*
X148832459Y-142883559D01*
X148838858Y-142864869D01*
X148847380Y-142845176D01*
X148854606Y-142799552D01*
X148857013Y-142787929D01*
X148866528Y-142750868D01*
X148868500Y-142743188D01*
X148868500Y-142721741D01*
X148870052Y-142702028D01*
X148873265Y-142681744D01*
X148903678Y-142617592D01*
X148963947Y-142580066D01*
X149034936Y-142581081D01*
X149078703Y-142604935D01*
X149188281Y-142696881D01*
X149193673Y-142699845D01*
X149193677Y-142699848D01*
X149360494Y-142791556D01*
X149365891Y-142794523D01*
X149371764Y-142796386D01*
X149508589Y-142839789D01*
X149559084Y-142855807D01*
X149565201Y-142856493D01*
X149565205Y-142856494D01*
X149639348Y-142864810D01*
X149716817Y-142873500D01*
X150276004Y-142873500D01*
X150426713Y-142858723D01*
X150620742Y-142800142D01*
X150799698Y-142704990D01*
X150811451Y-142695405D01*
X150932241Y-142596890D01*
X150956763Y-142576890D01*
X151058240Y-142454225D01*
X151082027Y-142425472D01*
X151082029Y-142425469D01*
X151085956Y-142420722D01*
X151182356Y-142242435D01*
X151236099Y-142068820D01*
X151240468Y-142054707D01*
X151240469Y-142054704D01*
X151242290Y-142048820D01*
X151263476Y-141847250D01*
X151246926Y-141665404D01*
X151245665Y-141651543D01*
X151245664Y-141651540D01*
X151245106Y-141645404D01*
X151215784Y-141545775D01*
X151189620Y-141456880D01*
X151187881Y-141450971D01*
X151173273Y-141423027D01*
X151130910Y-141341995D01*
X151093981Y-141271355D01*
X151094016Y-141271337D01*
X151074111Y-141205559D01*
X151089271Y-141144591D01*
X151099369Y-141125916D01*
X151182356Y-140972435D01*
X151217114Y-140860151D01*
X151240468Y-140784707D01*
X151240469Y-140784704D01*
X151242290Y-140778820D01*
X151250848Y-140697402D01*
X151262832Y-140583378D01*
X151262832Y-140583377D01*
X151263476Y-140577250D01*
X151246926Y-140395404D01*
X151245665Y-140381543D01*
X151245664Y-140381540D01*
X151245106Y-140375404D01*
X151193768Y-140200971D01*
X151189620Y-140186879D01*
X151189619Y-140186877D01*
X151187881Y-140180971D01*
X151188740Y-140180718D01*
X151182286Y-140115338D01*
X151195452Y-140078594D01*
X151200615Y-140071705D01*
X151204903Y-140060269D01*
X151235556Y-139978500D01*
X151251745Y-139935316D01*
X151258500Y-139873134D01*
X151258500Y-138726866D01*
X151251745Y-138664684D01*
X151200615Y-138528295D01*
X151113261Y-138411739D01*
X150996705Y-138324385D01*
X150860316Y-138273255D01*
X150798134Y-138266500D01*
X149201866Y-138266500D01*
X149139684Y-138273255D01*
X149003295Y-138324385D01*
X148886739Y-138411739D01*
X148799385Y-138528295D01*
X148796233Y-138536703D01*
X148796231Y-138536707D01*
X148787599Y-138559731D01*
X148744957Y-138616495D01*
X148678395Y-138641194D01*
X148669618Y-138641500D01*
X148662056Y-138641500D01*
X148650200Y-138640941D01*
X148650197Y-138640941D01*
X148642463Y-138639212D01*
X148587446Y-138640941D01*
X148571631Y-138641438D01*
X148567673Y-138641500D01*
X148538568Y-138641500D01*
X148534168Y-138642056D01*
X148522336Y-138642988D01*
X148476169Y-138644438D01*
X148455579Y-138650420D01*
X148436218Y-138654430D01*
X148429230Y-138655312D01*
X148422796Y-138656125D01*
X148422795Y-138656125D01*
X148414936Y-138657118D01*
X148407571Y-138660034D01*
X148407567Y-138660035D01*
X148371979Y-138674126D01*
X148360769Y-138677965D01*
X148316400Y-138690855D01*
X148297935Y-138701775D01*
X148280195Y-138710466D01*
X148260244Y-138718365D01*
X148222874Y-138745516D01*
X148212952Y-138752033D01*
X148180023Y-138771507D01*
X148180019Y-138771510D01*
X148173193Y-138775547D01*
X148158029Y-138790711D01*
X148142996Y-138803551D01*
X148125643Y-138816159D01*
X148100084Y-138847055D01*
X148096198Y-138851752D01*
X148088208Y-138860532D01*
X147802395Y-139146345D01*
X147793615Y-139154335D01*
X147793613Y-139154337D01*
X147786920Y-139158584D01*
X147781494Y-139164362D01*
X147781493Y-139164363D01*
X147738396Y-139210257D01*
X147735641Y-139213099D01*
X147715073Y-139233667D01*
X147712356Y-139237170D01*
X147704648Y-139246195D01*
X147673028Y-139279867D01*
X147669207Y-139286818D01*
X147669206Y-139286819D01*
X147662697Y-139298658D01*
X147651843Y-139315182D01*
X147644018Y-139325271D01*
X147638696Y-139332132D01*
X147635549Y-139339404D01*
X147635548Y-139339406D01*
X147620346Y-139374535D01*
X147615124Y-139385195D01*
X147592876Y-139425663D01*
X147587541Y-139446441D01*
X147581142Y-139465131D01*
X147572620Y-139484824D01*
X147571380Y-139492655D01*
X147565394Y-139530448D01*
X147562987Y-139542071D01*
X147551500Y-139586812D01*
X147551500Y-139608259D01*
X147549949Y-139627969D01*
X147546594Y-139649152D01*
X147547340Y-139657043D01*
X147550941Y-139695138D01*
X147551500Y-139706996D01*
X147551500Y-142335050D01*
X147531498Y-142403171D01*
X147514595Y-142424145D01*
X146654145Y-143284595D01*
X146591833Y-143318621D01*
X146565050Y-143321500D01*
X145543624Y-143321500D01*
X145475503Y-143301498D01*
X145429010Y-143247842D01*
X145418906Y-143177568D01*
X145448400Y-143112988D01*
X145471353Y-143092287D01*
X145589789Y-143009357D01*
X145589792Y-143009355D01*
X145594300Y-143006198D01*
X145756198Y-142844300D01*
X145764525Y-142832409D01*
X145826998Y-142743188D01*
X145887523Y-142656749D01*
X145889846Y-142651767D01*
X145889849Y-142651762D01*
X145981961Y-142454225D01*
X145981961Y-142454224D01*
X145984284Y-142449243D01*
X145990654Y-142425472D01*
X146042119Y-142233402D01*
X146042119Y-142233400D01*
X146043543Y-142228087D01*
X146063498Y-142000000D01*
X146043543Y-141771913D01*
X146011290Y-141651543D01*
X145985707Y-141556067D01*
X145985706Y-141556065D01*
X145984284Y-141550757D01*
X145981961Y-141545775D01*
X145889849Y-141348238D01*
X145889846Y-141348233D01*
X145887523Y-141343251D01*
X145790537Y-141204741D01*
X145759357Y-141160211D01*
X145759355Y-141160208D01*
X145756198Y-141155700D01*
X145594300Y-140993802D01*
X145589792Y-140990645D01*
X145589789Y-140990643D01*
X145511611Y-140935902D01*
X145406749Y-140862477D01*
X145401767Y-140860154D01*
X145401762Y-140860151D01*
X145204225Y-140768039D01*
X145204224Y-140768039D01*
X145199243Y-140765716D01*
X145193935Y-140764294D01*
X145193933Y-140764293D01*
X144983402Y-140707881D01*
X144983400Y-140707881D01*
X144978087Y-140706457D01*
X144750000Y-140686502D01*
X144521913Y-140706457D01*
X144516600Y-140707881D01*
X144516598Y-140707881D01*
X144306067Y-140764293D01*
X144306065Y-140764294D01*
X144300757Y-140765716D01*
X144295776Y-140768039D01*
X144295775Y-140768039D01*
X144098238Y-140860151D01*
X144098233Y-140860154D01*
X144093251Y-140862477D01*
X143988389Y-140935902D01*
X143910211Y-140990643D01*
X143910208Y-140990645D01*
X143905700Y-140993802D01*
X143760000Y-141139502D01*
X143697688Y-141173528D01*
X143626873Y-141168463D01*
X143570037Y-141125916D01*
X143552868Y-141089263D01*
X143551745Y-141089684D01*
X143503767Y-140961703D01*
X143500615Y-140953295D01*
X143413261Y-140836739D01*
X143296705Y-140749385D01*
X143160316Y-140698255D01*
X143098134Y-140691500D01*
X141401866Y-140691500D01*
X141339684Y-140698255D01*
X141203295Y-140749385D01*
X141086739Y-140836739D01*
X140999385Y-140953295D01*
X140948255Y-141089684D01*
X140941500Y-141151866D01*
X140941500Y-141215500D01*
X140921498Y-141283621D01*
X140867842Y-141330114D01*
X140815500Y-141341500D01*
X139982056Y-141341500D01*
X139970200Y-141340941D01*
X139970197Y-141340941D01*
X139962463Y-141339212D01*
X139907446Y-141340941D01*
X139891631Y-141341438D01*
X139887673Y-141341500D01*
X139858568Y-141341500D01*
X139854168Y-141342056D01*
X139842336Y-141342988D01*
X139796169Y-141344438D01*
X139775579Y-141350420D01*
X139756218Y-141354430D01*
X139749230Y-141355312D01*
X139742796Y-141356125D01*
X139742795Y-141356125D01*
X139734936Y-141357118D01*
X139727571Y-141360034D01*
X139727567Y-141360035D01*
X139691979Y-141374126D01*
X139680769Y-141377965D01*
X139636400Y-141390855D01*
X139617935Y-141401775D01*
X139600195Y-141410466D01*
X139580244Y-141418365D01*
X139542881Y-141445511D01*
X139542874Y-141445516D01*
X139532952Y-141452033D01*
X139500023Y-141471507D01*
X139500019Y-141471510D01*
X139493193Y-141475547D01*
X139478029Y-141490711D01*
X139462996Y-141503551D01*
X139445643Y-141516159D01*
X139421143Y-141545775D01*
X139416198Y-141551752D01*
X139408208Y-141560532D01*
X138334145Y-142634595D01*
X138271833Y-142668621D01*
X138245050Y-142671500D01*
X123254949Y-142671500D01*
X123186828Y-142651498D01*
X123165854Y-142634595D01*
X121315967Y-140784707D01*
X119443655Y-138912395D01*
X119435665Y-138903615D01*
X119435663Y-138903613D01*
X119431416Y-138896920D01*
X119379742Y-138848395D01*
X119376901Y-138845641D01*
X119356333Y-138825073D01*
X119352826Y-138822353D01*
X119343804Y-138814647D01*
X119325784Y-138797725D01*
X119310133Y-138783028D01*
X119303181Y-138779206D01*
X119291342Y-138772697D01*
X119274818Y-138761843D01*
X119264132Y-138753555D01*
X119257868Y-138748696D01*
X119250596Y-138745549D01*
X119250594Y-138745548D01*
X119215465Y-138730346D01*
X119204805Y-138725124D01*
X119171284Y-138706695D01*
X119171282Y-138706694D01*
X119164337Y-138702876D01*
X119143559Y-138697541D01*
X119124869Y-138691142D01*
X119105176Y-138682620D01*
X119059552Y-138675394D01*
X119047929Y-138672987D01*
X119015589Y-138664684D01*
X119003188Y-138661500D01*
X118981741Y-138661500D01*
X118962031Y-138659949D01*
X118948677Y-138657834D01*
X118940848Y-138656594D01*
X118894859Y-138660941D01*
X118883004Y-138661500D01*
X113270382Y-138661500D01*
X113202261Y-138641498D01*
X113155768Y-138587842D01*
X113152401Y-138579731D01*
X113143769Y-138556707D01*
X113143767Y-138556703D01*
X113140615Y-138548295D01*
X113053261Y-138431739D01*
X112936705Y-138344385D01*
X112800316Y-138293255D01*
X112738134Y-138286500D01*
X111141866Y-138286500D01*
X111079684Y-138293255D01*
X110943295Y-138344385D01*
X110826739Y-138431739D01*
X110739385Y-138548295D01*
X110688255Y-138684684D01*
X110681500Y-138746866D01*
X110681500Y-139893134D01*
X110688255Y-139955316D01*
X110691029Y-139962715D01*
X110736232Y-140083296D01*
X110736234Y-140083299D01*
X110739385Y-140091705D01*
X110744773Y-140098894D01*
X110744906Y-140099137D01*
X110760076Y-140168494D01*
X110754752Y-140196907D01*
X110697710Y-140381180D01*
X110676524Y-140582750D01*
X110678904Y-140608901D01*
X110693176Y-140765716D01*
X110694894Y-140784596D01*
X110696632Y-140790502D01*
X110696633Y-140790506D01*
X110712354Y-140843919D01*
X110752119Y-140979029D01*
X110754972Y-140984486D01*
X110754973Y-140984489D01*
X110759127Y-140992435D01*
X110845923Y-141158460D01*
X110845923Y-141158462D01*
X110846019Y-141158645D01*
X110845984Y-141158663D01*
X110865889Y-141224441D01*
X110850729Y-141285409D01*
X110757644Y-141457565D01*
X110743409Y-141503552D01*
X110722544Y-141570956D01*
X110697710Y-141651180D01*
X110676524Y-141852750D01*
X101850000Y-141852750D01*
X101850000Y-136930000D01*
X102286884Y-136930000D01*
X102305314Y-137140655D01*
X102306738Y-137145968D01*
X102306738Y-137145970D01*
X102351232Y-137312022D01*
X102360044Y-137344910D01*
X102362366Y-137349891D01*
X102362367Y-137349892D01*
X102395009Y-137419892D01*
X102449411Y-137536558D01*
X102570699Y-137709776D01*
X102720224Y-137859301D01*
X102893442Y-137980589D01*
X102898420Y-137982910D01*
X102898423Y-137982912D01*
X103036791Y-138047434D01*
X103085090Y-138069956D01*
X103090398Y-138071378D01*
X103090400Y-138071379D01*
X103284030Y-138123262D01*
X103284032Y-138123262D01*
X103289345Y-138124686D01*
X103500000Y-138143116D01*
X103710655Y-138124686D01*
X103715968Y-138123262D01*
X103715970Y-138123262D01*
X103909600Y-138071379D01*
X103909602Y-138071378D01*
X103914910Y-138069956D01*
X103963209Y-138047434D01*
X104101577Y-137982912D01*
X104101580Y-137982910D01*
X104106558Y-137980589D01*
X104144158Y-137954261D01*
X106350294Y-137954261D01*
X106359590Y-137966276D01*
X106389189Y-137987001D01*
X106398677Y-137992479D01*
X106580277Y-138077159D01*
X106590571Y-138080907D01*
X106784122Y-138132769D01*
X106794909Y-138134671D01*
X106994525Y-138152135D01*
X107005475Y-138152135D01*
X107205091Y-138134671D01*
X107215878Y-138132769D01*
X107409429Y-138080907D01*
X107419723Y-138077159D01*
X107554611Y-138014261D01*
X153600294Y-138014261D01*
X153609590Y-138026276D01*
X153639189Y-138047001D01*
X153648677Y-138052479D01*
X153830277Y-138137159D01*
X153840571Y-138140907D01*
X154034122Y-138192769D01*
X154044909Y-138194671D01*
X154244525Y-138212135D01*
X154255475Y-138212135D01*
X154455091Y-138194671D01*
X154465878Y-138192769D01*
X154659429Y-138140907D01*
X154669723Y-138137159D01*
X154851323Y-138052479D01*
X154860811Y-138047001D01*
X154891248Y-138025689D01*
X154899623Y-138015212D01*
X154892554Y-138001764D01*
X154262812Y-137372022D01*
X154248868Y-137364408D01*
X154247035Y-137364539D01*
X154240420Y-137368790D01*
X153606724Y-138002486D01*
X153600294Y-138014261D01*
X107554611Y-138014261D01*
X107601323Y-137992479D01*
X107610811Y-137987001D01*
X107641248Y-137965689D01*
X107649623Y-137955212D01*
X107642554Y-137941764D01*
X107012812Y-137312022D01*
X106998868Y-137304408D01*
X106997035Y-137304539D01*
X106990420Y-137308790D01*
X106356724Y-137942486D01*
X106350294Y-137954261D01*
X104144158Y-137954261D01*
X104279776Y-137859301D01*
X104429301Y-137709776D01*
X104550589Y-137536558D01*
X104604992Y-137419892D01*
X104637633Y-137349892D01*
X104637634Y-137349891D01*
X104639956Y-137344910D01*
X104648769Y-137312022D01*
X104693262Y-137145970D01*
X104693262Y-137145968D01*
X104694686Y-137140655D01*
X104711762Y-136945475D01*
X105787865Y-136945475D01*
X105805329Y-137145091D01*
X105807231Y-137155878D01*
X105859093Y-137349429D01*
X105862841Y-137359723D01*
X105947521Y-137541323D01*
X105952999Y-137550811D01*
X105974311Y-137581248D01*
X105984788Y-137589623D01*
X105998236Y-137582554D01*
X106627978Y-136952812D01*
X106634356Y-136941132D01*
X107364408Y-136941132D01*
X107364539Y-136942965D01*
X107368790Y-136949580D01*
X108002486Y-137583276D01*
X108014261Y-137589706D01*
X108026276Y-137580410D01*
X108047001Y-137550811D01*
X108052479Y-137541323D01*
X108137159Y-137359723D01*
X108140907Y-137349429D01*
X108192769Y-137155878D01*
X108194671Y-137145091D01*
X108206886Y-137005475D01*
X153037865Y-137005475D01*
X153055329Y-137205091D01*
X153057231Y-137215878D01*
X153109093Y-137409429D01*
X153112841Y-137419723D01*
X153197521Y-137601323D01*
X153202999Y-137610811D01*
X153224311Y-137641248D01*
X153234788Y-137649623D01*
X153248236Y-137642554D01*
X153877978Y-137012812D01*
X153884356Y-137001132D01*
X154614408Y-137001132D01*
X154614539Y-137002965D01*
X154618790Y-137009580D01*
X155252486Y-137643276D01*
X155264261Y-137649706D01*
X155276276Y-137640410D01*
X155297001Y-137610811D01*
X155302479Y-137601323D01*
X155387159Y-137419723D01*
X155390907Y-137409429D01*
X155442769Y-137215878D01*
X155444671Y-137205091D01*
X155462135Y-137005475D01*
X155462135Y-137000000D01*
X156426884Y-137000000D01*
X156445314Y-137210655D01*
X156446738Y-137215968D01*
X156446738Y-137215970D01*
X156485257Y-137359723D01*
X156500044Y-137414910D01*
X156502366Y-137419891D01*
X156502367Y-137419892D01*
X156581553Y-137589706D01*
X156589411Y-137606558D01*
X156710699Y-137779776D01*
X156860224Y-137929301D01*
X157033442Y-138050589D01*
X157038420Y-138052910D01*
X157038423Y-138052912D01*
X157209677Y-138132769D01*
X157225090Y-138139956D01*
X157230398Y-138141378D01*
X157230400Y-138141379D01*
X157424030Y-138193262D01*
X157424032Y-138193262D01*
X157429345Y-138194686D01*
X157640000Y-138213116D01*
X157850655Y-138194686D01*
X157855968Y-138193262D01*
X157855970Y-138193262D01*
X158049600Y-138141379D01*
X158049602Y-138141378D01*
X158054910Y-138139956D01*
X158070323Y-138132769D01*
X158241577Y-138052912D01*
X158241580Y-138052910D01*
X158246558Y-138050589D01*
X158419776Y-137929301D01*
X158569301Y-137779776D01*
X158690589Y-137606558D01*
X158698448Y-137589706D01*
X158777633Y-137419892D01*
X158777634Y-137419891D01*
X158779956Y-137414910D01*
X158794744Y-137359723D01*
X158833262Y-137215970D01*
X158833262Y-137215968D01*
X158834686Y-137210655D01*
X158853116Y-137000000D01*
X158834686Y-136789345D01*
X158815930Y-136719345D01*
X158781379Y-136590400D01*
X158781378Y-136590398D01*
X158779956Y-136585090D01*
X158771977Y-136567978D01*
X158692912Y-136398423D01*
X158692910Y-136398420D01*
X158690589Y-136393442D01*
X158569301Y-136220224D01*
X158419776Y-136070699D01*
X158246558Y-135949411D01*
X158241580Y-135947090D01*
X158241577Y-135947088D01*
X158059892Y-135862367D01*
X158059891Y-135862366D01*
X158054910Y-135860044D01*
X158049602Y-135858622D01*
X158049600Y-135858621D01*
X157855970Y-135806738D01*
X157855968Y-135806738D01*
X157850655Y-135805314D01*
X157640000Y-135786884D01*
X157429345Y-135805314D01*
X157424032Y-135806738D01*
X157424030Y-135806738D01*
X157230400Y-135858621D01*
X157230398Y-135858622D01*
X157225090Y-135860044D01*
X157220109Y-135862366D01*
X157220108Y-135862367D01*
X157038423Y-135947088D01*
X157038420Y-135947090D01*
X157033442Y-135949411D01*
X156860224Y-136070699D01*
X156710699Y-136220224D01*
X156589411Y-136393442D01*
X156587090Y-136398420D01*
X156587088Y-136398423D01*
X156508023Y-136567978D01*
X156500044Y-136585090D01*
X156498622Y-136590398D01*
X156498621Y-136590400D01*
X156464070Y-136719345D01*
X156445314Y-136789345D01*
X156426884Y-137000000D01*
X155462135Y-137000000D01*
X155462135Y-136994525D01*
X155444671Y-136794909D01*
X155442769Y-136784122D01*
X155390907Y-136590571D01*
X155387159Y-136580277D01*
X155302479Y-136398677D01*
X155297001Y-136389189D01*
X155275689Y-136358752D01*
X155265212Y-136350377D01*
X155251764Y-136357446D01*
X154622022Y-136987188D01*
X154614408Y-137001132D01*
X153884356Y-137001132D01*
X153885592Y-136998868D01*
X153885461Y-136997035D01*
X153881210Y-136990420D01*
X153247514Y-136356724D01*
X153235739Y-136350294D01*
X153223724Y-136359590D01*
X153202999Y-136389189D01*
X153197521Y-136398677D01*
X153112841Y-136580277D01*
X153109093Y-136590571D01*
X153057231Y-136784122D01*
X153055329Y-136794909D01*
X153037865Y-136994525D01*
X153037865Y-137005475D01*
X108206886Y-137005475D01*
X108212135Y-136945475D01*
X108212135Y-136934525D01*
X108194671Y-136734909D01*
X108192769Y-136724122D01*
X108140907Y-136530571D01*
X108137159Y-136520277D01*
X108052479Y-136338677D01*
X108047001Y-136329189D01*
X108025689Y-136298752D01*
X108015212Y-136290377D01*
X108001764Y-136297446D01*
X107372022Y-136927188D01*
X107364408Y-136941132D01*
X106634356Y-136941132D01*
X106635592Y-136938868D01*
X106635461Y-136937035D01*
X106631210Y-136930420D01*
X105997514Y-136296724D01*
X105985739Y-136290294D01*
X105973724Y-136299590D01*
X105952999Y-136329189D01*
X105947521Y-136338677D01*
X105862841Y-136520277D01*
X105859093Y-136530571D01*
X105807231Y-136724122D01*
X105805329Y-136734909D01*
X105787865Y-136934525D01*
X105787865Y-136945475D01*
X104711762Y-136945475D01*
X104713116Y-136930000D01*
X104694686Y-136719345D01*
X104693262Y-136714030D01*
X104641379Y-136520400D01*
X104641378Y-136520398D01*
X104639956Y-136515090D01*
X104583231Y-136393442D01*
X104552912Y-136328423D01*
X104552910Y-136328420D01*
X104550589Y-136323442D01*
X104429301Y-136150224D01*
X104279776Y-136000699D01*
X104171363Y-135924788D01*
X106350377Y-135924788D01*
X106357446Y-135938236D01*
X106987188Y-136567978D01*
X107001132Y-136575592D01*
X107002965Y-136575461D01*
X107009580Y-136571210D01*
X107596002Y-135984788D01*
X153600377Y-135984788D01*
X153607446Y-135998236D01*
X154237188Y-136627978D01*
X154251132Y-136635592D01*
X154252965Y-136635461D01*
X154259580Y-136631210D01*
X154893276Y-135997514D01*
X154899706Y-135985739D01*
X154890410Y-135973724D01*
X154860811Y-135952999D01*
X154851323Y-135947521D01*
X154669723Y-135862841D01*
X154659429Y-135859093D01*
X154465878Y-135807231D01*
X154455091Y-135805329D01*
X154255475Y-135787865D01*
X154244525Y-135787865D01*
X154044909Y-135805329D01*
X154034122Y-135807231D01*
X153840571Y-135859093D01*
X153830277Y-135862841D01*
X153648677Y-135947521D01*
X153639189Y-135952999D01*
X153608752Y-135974311D01*
X153600377Y-135984788D01*
X107596002Y-135984788D01*
X107643276Y-135937514D01*
X107649706Y-135925739D01*
X107640410Y-135913724D01*
X107610811Y-135892999D01*
X107601323Y-135887521D01*
X107419723Y-135802841D01*
X107409429Y-135799093D01*
X107215878Y-135747231D01*
X107205091Y-135745329D01*
X107005475Y-135727865D01*
X106994525Y-135727865D01*
X106794909Y-135745329D01*
X106784122Y-135747231D01*
X106590571Y-135799093D01*
X106580277Y-135802841D01*
X106398677Y-135887521D01*
X106389189Y-135892999D01*
X106358752Y-135914311D01*
X106350377Y-135924788D01*
X104171363Y-135924788D01*
X104106558Y-135879411D01*
X104101580Y-135877090D01*
X104101577Y-135877088D01*
X103919892Y-135792367D01*
X103919891Y-135792366D01*
X103914910Y-135790044D01*
X103909602Y-135788622D01*
X103909600Y-135788621D01*
X103715970Y-135736738D01*
X103715968Y-135736738D01*
X103710655Y-135735314D01*
X103500000Y-135716884D01*
X103289345Y-135735314D01*
X103284032Y-135736738D01*
X103284030Y-135736738D01*
X103090400Y-135788621D01*
X103090398Y-135788622D01*
X103085090Y-135790044D01*
X103080109Y-135792366D01*
X103080108Y-135792367D01*
X102898423Y-135877088D01*
X102898420Y-135877090D01*
X102893442Y-135879411D01*
X102720224Y-136000699D01*
X102570699Y-136150224D01*
X102449411Y-136323442D01*
X102447090Y-136328420D01*
X102447088Y-136328423D01*
X102416769Y-136393442D01*
X102360044Y-136515090D01*
X102358622Y-136520398D01*
X102358621Y-136520400D01*
X102306738Y-136714030D01*
X102305314Y-136719345D01*
X102286884Y-136930000D01*
X101850000Y-136930000D01*
X101850000Y-134014261D01*
X108540294Y-134014261D01*
X108549590Y-134026276D01*
X108579189Y-134047001D01*
X108588677Y-134052479D01*
X108770277Y-134137159D01*
X108780571Y-134140907D01*
X108974122Y-134192769D01*
X108984909Y-134194671D01*
X109184525Y-134212135D01*
X109195475Y-134212135D01*
X109395091Y-134194671D01*
X109405878Y-134192769D01*
X109599429Y-134140907D01*
X109609723Y-134137159D01*
X109791323Y-134052479D01*
X109800811Y-134047001D01*
X109831248Y-134025689D01*
X109839623Y-134015212D01*
X109832554Y-134001764D01*
X109202812Y-133372022D01*
X109188868Y-133364408D01*
X109187035Y-133364539D01*
X109180420Y-133368790D01*
X108546724Y-134002486D01*
X108540294Y-134014261D01*
X101850000Y-134014261D01*
X101850000Y-133005475D01*
X107977865Y-133005475D01*
X107995329Y-133205091D01*
X107997231Y-133215878D01*
X108049093Y-133409429D01*
X108052841Y-133419723D01*
X108137521Y-133601323D01*
X108142999Y-133610811D01*
X108164311Y-133641248D01*
X108174788Y-133649623D01*
X108188236Y-133642554D01*
X108817978Y-133012812D01*
X108824356Y-133001132D01*
X109554408Y-133001132D01*
X109554539Y-133002965D01*
X109558790Y-133009580D01*
X110192486Y-133643276D01*
X110204261Y-133649706D01*
X110216276Y-133640410D01*
X110237001Y-133610811D01*
X110242479Y-133601323D01*
X110327159Y-133419723D01*
X110330907Y-133409429D01*
X110382769Y-133215878D01*
X110384671Y-133205091D01*
X110402135Y-133005475D01*
X110402135Y-133000000D01*
X115596884Y-133000000D01*
X115615314Y-133210655D01*
X115670044Y-133414910D01*
X115759411Y-133606558D01*
X115880699Y-133779776D01*
X116030224Y-133929301D01*
X116203442Y-134050589D01*
X116208420Y-134052910D01*
X116208423Y-134052912D01*
X116389092Y-134137159D01*
X116395090Y-134139956D01*
X116400398Y-134141378D01*
X116400400Y-134141379D01*
X116594030Y-134193262D01*
X116594032Y-134193262D01*
X116599345Y-134194686D01*
X116810000Y-134213116D01*
X117020655Y-134194686D01*
X117025968Y-134193262D01*
X117025970Y-134193262D01*
X117219600Y-134141379D01*
X117219602Y-134141378D01*
X117224910Y-134139956D01*
X117230908Y-134137159D01*
X117411577Y-134052912D01*
X117411580Y-134052910D01*
X117416558Y-134050589D01*
X117468440Y-134014261D01*
X143040294Y-134014261D01*
X143049590Y-134026276D01*
X143079189Y-134047001D01*
X143088677Y-134052479D01*
X143270277Y-134137159D01*
X143280571Y-134140907D01*
X143474122Y-134192769D01*
X143484909Y-134194671D01*
X143684525Y-134212135D01*
X143695475Y-134212135D01*
X143895091Y-134194671D01*
X143905878Y-134192769D01*
X144099429Y-134140907D01*
X144109723Y-134137159D01*
X144291323Y-134052479D01*
X144300811Y-134047001D01*
X144331248Y-134025689D01*
X144339623Y-134015212D01*
X144332554Y-134001764D01*
X143702812Y-133372022D01*
X143688868Y-133364408D01*
X143687035Y-133364539D01*
X143680420Y-133368790D01*
X143046724Y-134002486D01*
X143040294Y-134014261D01*
X117468440Y-134014261D01*
X117589776Y-133929301D01*
X117739301Y-133779776D01*
X117860589Y-133606558D01*
X117949956Y-133414910D01*
X118004686Y-133210655D01*
X118022637Y-133005475D01*
X142477865Y-133005475D01*
X142495329Y-133205091D01*
X142497231Y-133215878D01*
X142549093Y-133409429D01*
X142552841Y-133419723D01*
X142637521Y-133601323D01*
X142642999Y-133610811D01*
X142664311Y-133641248D01*
X142674788Y-133649623D01*
X142688236Y-133642554D01*
X143317978Y-133012812D01*
X143324356Y-133001132D01*
X144054408Y-133001132D01*
X144054539Y-133002965D01*
X144058790Y-133009580D01*
X144692486Y-133643276D01*
X144704261Y-133649706D01*
X144716276Y-133640410D01*
X144737001Y-133610811D01*
X144742479Y-133601323D01*
X144827159Y-133419723D01*
X144830907Y-133409429D01*
X144882769Y-133215878D01*
X144884671Y-133205091D01*
X144902135Y-133005475D01*
X144902135Y-133000000D01*
X150096884Y-133000000D01*
X150115314Y-133210655D01*
X150170044Y-133414910D01*
X150259411Y-133606558D01*
X150380699Y-133779776D01*
X150530224Y-133929301D01*
X150703442Y-134050589D01*
X150708420Y-134052910D01*
X150708423Y-134052912D01*
X150889092Y-134137159D01*
X150895090Y-134139956D01*
X150900398Y-134141378D01*
X150900400Y-134141379D01*
X151094030Y-134193262D01*
X151094032Y-134193262D01*
X151099345Y-134194686D01*
X151310000Y-134213116D01*
X151520655Y-134194686D01*
X151525968Y-134193262D01*
X151525970Y-134193262D01*
X151719600Y-134141379D01*
X151719602Y-134141378D01*
X151724910Y-134139956D01*
X151730908Y-134137159D01*
X151911577Y-134052912D01*
X151911580Y-134052910D01*
X151916558Y-134050589D01*
X152089776Y-133929301D01*
X152239301Y-133779776D01*
X152360589Y-133606558D01*
X152449956Y-133414910D01*
X152504686Y-133210655D01*
X152523116Y-133000000D01*
X152504686Y-132789345D01*
X152449956Y-132585090D01*
X152360589Y-132393442D01*
X152239301Y-132220224D01*
X152089776Y-132070699D01*
X151916558Y-131949411D01*
X151911580Y-131947090D01*
X151911577Y-131947088D01*
X151729892Y-131862367D01*
X151729891Y-131862366D01*
X151724910Y-131860044D01*
X151719602Y-131858622D01*
X151719600Y-131858621D01*
X151525970Y-131806738D01*
X151525968Y-131806738D01*
X151520655Y-131805314D01*
X151310000Y-131786884D01*
X151099345Y-131805314D01*
X151094032Y-131806738D01*
X151094030Y-131806738D01*
X150900400Y-131858621D01*
X150900398Y-131858622D01*
X150895090Y-131860044D01*
X150890109Y-131862366D01*
X150890108Y-131862367D01*
X150708423Y-131947088D01*
X150708420Y-131947090D01*
X150703442Y-131949411D01*
X150530224Y-132070699D01*
X150380699Y-132220224D01*
X150259411Y-132393442D01*
X150170044Y-132585090D01*
X150115314Y-132789345D01*
X150096884Y-133000000D01*
X144902135Y-133000000D01*
X144902135Y-132994525D01*
X144884671Y-132794909D01*
X144882769Y-132784122D01*
X144830907Y-132590571D01*
X144827159Y-132580277D01*
X144742479Y-132398677D01*
X144737001Y-132389189D01*
X144715689Y-132358752D01*
X144705212Y-132350377D01*
X144691764Y-132357446D01*
X144062022Y-132987188D01*
X144054408Y-133001132D01*
X143324356Y-133001132D01*
X143325592Y-132998868D01*
X143325461Y-132997035D01*
X143321210Y-132990420D01*
X142687514Y-132356724D01*
X142675739Y-132350294D01*
X142663724Y-132359590D01*
X142642999Y-132389189D01*
X142637521Y-132398677D01*
X142552841Y-132580277D01*
X142549093Y-132590571D01*
X142497231Y-132784122D01*
X142495329Y-132794909D01*
X142477865Y-132994525D01*
X142477865Y-133005475D01*
X118022637Y-133005475D01*
X118023116Y-133000000D01*
X118004686Y-132789345D01*
X117949956Y-132585090D01*
X117860589Y-132393442D01*
X117739301Y-132220224D01*
X117589776Y-132070699D01*
X117467082Y-131984788D01*
X143040377Y-131984788D01*
X143047446Y-131998236D01*
X143677188Y-132627978D01*
X143691132Y-132635592D01*
X143692965Y-132635461D01*
X143699580Y-132631210D01*
X144333276Y-131997514D01*
X144339706Y-131985739D01*
X144330410Y-131973724D01*
X144300811Y-131952999D01*
X144291323Y-131947521D01*
X144109723Y-131862841D01*
X144099429Y-131859093D01*
X143905878Y-131807231D01*
X143895091Y-131805329D01*
X143695475Y-131787865D01*
X143684525Y-131787865D01*
X143484909Y-131805329D01*
X143474122Y-131807231D01*
X143280571Y-131859093D01*
X143270277Y-131862841D01*
X143088677Y-131947521D01*
X143079189Y-131952999D01*
X143048752Y-131974311D01*
X143040377Y-131984788D01*
X117467082Y-131984788D01*
X117416558Y-131949411D01*
X117411580Y-131947090D01*
X117411577Y-131947088D01*
X117229892Y-131862367D01*
X117229891Y-131862366D01*
X117224910Y-131860044D01*
X117219602Y-131858622D01*
X117219600Y-131858621D01*
X117025970Y-131806738D01*
X117025968Y-131806738D01*
X117020655Y-131805314D01*
X116810000Y-131786884D01*
X116599345Y-131805314D01*
X116594032Y-131806738D01*
X116594030Y-131806738D01*
X116400400Y-131858621D01*
X116400398Y-131858622D01*
X116395090Y-131860044D01*
X116390109Y-131862366D01*
X116390108Y-131862367D01*
X116208423Y-131947088D01*
X116208420Y-131947090D01*
X116203442Y-131949411D01*
X116030224Y-132070699D01*
X115880699Y-132220224D01*
X115759411Y-132393442D01*
X115670044Y-132585090D01*
X115615314Y-132789345D01*
X115596884Y-133000000D01*
X110402135Y-133000000D01*
X110402135Y-132994525D01*
X110384671Y-132794909D01*
X110382769Y-132784122D01*
X110330907Y-132590571D01*
X110327159Y-132580277D01*
X110242479Y-132398677D01*
X110237001Y-132389189D01*
X110215689Y-132358752D01*
X110205212Y-132350377D01*
X110191764Y-132357446D01*
X109562022Y-132987188D01*
X109554408Y-133001132D01*
X108824356Y-133001132D01*
X108825592Y-132998868D01*
X108825461Y-132997035D01*
X108821210Y-132990420D01*
X108187514Y-132356724D01*
X108175739Y-132350294D01*
X108163724Y-132359590D01*
X108142999Y-132389189D01*
X108137521Y-132398677D01*
X108052841Y-132580277D01*
X108049093Y-132590571D01*
X107997231Y-132784122D01*
X107995329Y-132794909D01*
X107977865Y-132994525D01*
X107977865Y-133005475D01*
X101850000Y-133005475D01*
X101850000Y-131984788D01*
X108540377Y-131984788D01*
X108547446Y-131998236D01*
X109177188Y-132627978D01*
X109191132Y-132635592D01*
X109192965Y-132635461D01*
X109199580Y-132631210D01*
X109833276Y-131997514D01*
X109839706Y-131985739D01*
X109830410Y-131973724D01*
X109800811Y-131952999D01*
X109791323Y-131947521D01*
X109609723Y-131862841D01*
X109599429Y-131859093D01*
X109405878Y-131807231D01*
X109395091Y-131805329D01*
X109195475Y-131787865D01*
X109184525Y-131787865D01*
X108984909Y-131805329D01*
X108974122Y-131807231D01*
X108780571Y-131859093D01*
X108770277Y-131862841D01*
X108588677Y-131947521D01*
X108579189Y-131952999D01*
X108548752Y-131974311D01*
X108540377Y-131984788D01*
X101850000Y-131984788D01*
X101850000Y-130050000D01*
X102266884Y-130050000D01*
X102285314Y-130260655D01*
X102286738Y-130265968D01*
X102286738Y-130265970D01*
X102294564Y-130295175D01*
X102340044Y-130464910D01*
X102429411Y-130656558D01*
X102550699Y-130829776D01*
X102700224Y-130979301D01*
X102873442Y-131100589D01*
X102878420Y-131102910D01*
X102878423Y-131102912D01*
X103060108Y-131187633D01*
X103065090Y-131189956D01*
X103070398Y-131191378D01*
X103070400Y-131191379D01*
X103264030Y-131243262D01*
X103264032Y-131243262D01*
X103269345Y-131244686D01*
X103480000Y-131263116D01*
X103690655Y-131244686D01*
X103695968Y-131243262D01*
X103695970Y-131243262D01*
X103889600Y-131191379D01*
X103889602Y-131191378D01*
X103894910Y-131189956D01*
X103899892Y-131187633D01*
X104081577Y-131102912D01*
X104081580Y-131102910D01*
X104086558Y-131100589D01*
X104259776Y-130979301D01*
X104409301Y-130829776D01*
X104530589Y-130656558D01*
X104619956Y-130464910D01*
X104665437Y-130295175D01*
X104673262Y-130265970D01*
X104673262Y-130265968D01*
X104674686Y-130260655D01*
X104689616Y-130090000D01*
X156406884Y-130090000D01*
X156425314Y-130300655D01*
X156480044Y-130504910D01*
X156482366Y-130509891D01*
X156482367Y-130509892D01*
X156550759Y-130656558D01*
X156569411Y-130696558D01*
X156690699Y-130869776D01*
X156840224Y-131019301D01*
X157013442Y-131140589D01*
X157018420Y-131142910D01*
X157018423Y-131142912D01*
X157122361Y-131191379D01*
X157205090Y-131229956D01*
X157210398Y-131231378D01*
X157210400Y-131231379D01*
X157404030Y-131283262D01*
X157404032Y-131283262D01*
X157409345Y-131284686D01*
X157620000Y-131303116D01*
X157830655Y-131284686D01*
X157835968Y-131283262D01*
X157835970Y-131283262D01*
X158029600Y-131231379D01*
X158029602Y-131231378D01*
X158034910Y-131229956D01*
X158117639Y-131191379D01*
X158221577Y-131142912D01*
X158221580Y-131142910D01*
X158226558Y-131140589D01*
X158399776Y-131019301D01*
X158549301Y-130869776D01*
X158670589Y-130696558D01*
X158689242Y-130656558D01*
X158757633Y-130509892D01*
X158757634Y-130509891D01*
X158759956Y-130504910D01*
X158814686Y-130300655D01*
X158833116Y-130090000D01*
X158814686Y-129879345D01*
X158813262Y-129874030D01*
X158761379Y-129680400D01*
X158761378Y-129680398D01*
X158759956Y-129675090D01*
X158670589Y-129483442D01*
X158549301Y-129310224D01*
X158399776Y-129160699D01*
X158226558Y-129039411D01*
X158221580Y-129037090D01*
X158221577Y-129037088D01*
X158039892Y-128952367D01*
X158039891Y-128952366D01*
X158034910Y-128950044D01*
X158029602Y-128948622D01*
X158029600Y-128948621D01*
X157835970Y-128896738D01*
X157835968Y-128896738D01*
X157830655Y-128895314D01*
X157620000Y-128876884D01*
X157409345Y-128895314D01*
X157404032Y-128896738D01*
X157404030Y-128896738D01*
X157210400Y-128948621D01*
X157210398Y-128948622D01*
X157205090Y-128950044D01*
X157200109Y-128952366D01*
X157200108Y-128952367D01*
X157018423Y-129037088D01*
X157018420Y-129037090D01*
X157013442Y-129039411D01*
X156840224Y-129160699D01*
X156690699Y-129310224D01*
X156569411Y-129483442D01*
X156480044Y-129675090D01*
X156478622Y-129680398D01*
X156478621Y-129680400D01*
X156426738Y-129874030D01*
X156425314Y-129879345D01*
X156406884Y-130090000D01*
X104689616Y-130090000D01*
X104693116Y-130050000D01*
X104674686Y-129839345D01*
X104619956Y-129635090D01*
X104551564Y-129488423D01*
X104532912Y-129448423D01*
X104532910Y-129448420D01*
X104530589Y-129443442D01*
X104409301Y-129270224D01*
X104259776Y-129120699D01*
X104086558Y-128999411D01*
X104081580Y-128997090D01*
X104081577Y-128997088D01*
X103899892Y-128912367D01*
X103899891Y-128912366D01*
X103894910Y-128910044D01*
X103889602Y-128908622D01*
X103889600Y-128908621D01*
X103695970Y-128856738D01*
X103695968Y-128856738D01*
X103690655Y-128855314D01*
X103480000Y-128836884D01*
X103269345Y-128855314D01*
X103264032Y-128856738D01*
X103264030Y-128856738D01*
X103070400Y-128908621D01*
X103070398Y-128908622D01*
X103065090Y-128910044D01*
X103060109Y-128912366D01*
X103060108Y-128912367D01*
X102878423Y-128997088D01*
X102878420Y-128997090D01*
X102873442Y-128999411D01*
X102700224Y-129120699D01*
X102550699Y-129270224D01*
X102429411Y-129443442D01*
X102427090Y-129448420D01*
X102427088Y-129448423D01*
X102408436Y-129488423D01*
X102340044Y-129635090D01*
X102285314Y-129839345D01*
X102266884Y-130050000D01*
X101850000Y-130050000D01*
X101850000Y-127845768D01*
X115136363Y-127845768D01*
X115170846Y-127962932D01*
X115175439Y-127974300D01*
X115263586Y-128142911D01*
X115270302Y-128153173D01*
X115389515Y-128301443D01*
X115398103Y-128310213D01*
X115543838Y-128432499D01*
X115553969Y-128439437D01*
X115720692Y-128531094D01*
X115731962Y-128535924D01*
X115913315Y-128593452D01*
X115925309Y-128596002D01*
X116073350Y-128612607D01*
X116080374Y-128613000D01*
X116087885Y-128613000D01*
X116103124Y-128608525D01*
X116104329Y-128607135D01*
X116106000Y-128599452D01*
X116106000Y-128594885D01*
X116614000Y-128594885D01*
X116618475Y-128610124D01*
X116619865Y-128611329D01*
X116627548Y-128613000D01*
X116632890Y-128613000D01*
X116639035Y-128612700D01*
X116780481Y-128598830D01*
X116792519Y-128596447D01*
X116974651Y-128541458D01*
X116985993Y-128536783D01*
X117153977Y-128447465D01*
X117164193Y-128440678D01*
X117311634Y-128320428D01*
X117320338Y-128311784D01*
X117441610Y-128165191D01*
X117448470Y-128155020D01*
X117538962Y-127987658D01*
X117543714Y-127976353D01*
X117581041Y-127855768D01*
X143906363Y-127855768D01*
X143940846Y-127972932D01*
X143945439Y-127984300D01*
X144033586Y-128152911D01*
X144040302Y-128163173D01*
X144159515Y-128311443D01*
X144168103Y-128320213D01*
X144313838Y-128442499D01*
X144323969Y-128449437D01*
X144490692Y-128541094D01*
X144501962Y-128545924D01*
X144683315Y-128603452D01*
X144695309Y-128606002D01*
X144843350Y-128622607D01*
X144850374Y-128623000D01*
X144857885Y-128623000D01*
X144873124Y-128618525D01*
X144874329Y-128617135D01*
X144876000Y-128609452D01*
X144876000Y-128604885D01*
X145384000Y-128604885D01*
X145388475Y-128620124D01*
X145389865Y-128621329D01*
X145397548Y-128623000D01*
X145402890Y-128623000D01*
X145409035Y-128622700D01*
X145550481Y-128608830D01*
X145562519Y-128606447D01*
X145744651Y-128551458D01*
X145755993Y-128546783D01*
X145923977Y-128457465D01*
X145934193Y-128450678D01*
X146081634Y-128330428D01*
X146090338Y-128321784D01*
X146211610Y-128175191D01*
X146218470Y-128165020D01*
X146308962Y-127997658D01*
X146313714Y-127986353D01*
X146352422Y-127861308D01*
X146352628Y-127847205D01*
X146345873Y-127844000D01*
X145402115Y-127844000D01*
X145386876Y-127848475D01*
X145385671Y-127849865D01*
X145384000Y-127857548D01*
X145384000Y-128604885D01*
X144876000Y-128604885D01*
X144876000Y-127862115D01*
X144871525Y-127846876D01*
X144870135Y-127845671D01*
X144862452Y-127844000D01*
X143921014Y-127844000D01*
X143907483Y-127847973D01*
X143906363Y-127855768D01*
X117581041Y-127855768D01*
X117582422Y-127851308D01*
X117582628Y-127837205D01*
X117575873Y-127834000D01*
X116632115Y-127834000D01*
X116616876Y-127838475D01*
X116615671Y-127839865D01*
X116614000Y-127847548D01*
X116614000Y-128594885D01*
X116106000Y-128594885D01*
X116106000Y-127852115D01*
X116101525Y-127836876D01*
X116100135Y-127835671D01*
X116092452Y-127834000D01*
X115151014Y-127834000D01*
X115137483Y-127837973D01*
X115136363Y-127845768D01*
X101850000Y-127845768D01*
X101850000Y-127148134D01*
X106641500Y-127148134D01*
X106648255Y-127210316D01*
X106699385Y-127346705D01*
X106786739Y-127463261D01*
X106903295Y-127550615D01*
X107039684Y-127601745D01*
X107101866Y-127608500D01*
X108798134Y-127608500D01*
X108860316Y-127601745D01*
X108996705Y-127550615D01*
X109113261Y-127463261D01*
X109171119Y-127386062D01*
X109728493Y-127386062D01*
X109737789Y-127398077D01*
X109788994Y-127433931D01*
X109798489Y-127439414D01*
X109995947Y-127531490D01*
X110006239Y-127535236D01*
X110216688Y-127591625D01*
X110227481Y-127593528D01*
X110444525Y-127612517D01*
X110455475Y-127612517D01*
X110672519Y-127593528D01*
X110683312Y-127591625D01*
X110893761Y-127535236D01*
X110904053Y-127531490D01*
X111101511Y-127439414D01*
X111111006Y-127433931D01*
X111163048Y-127397491D01*
X111171424Y-127387012D01*
X111164356Y-127373566D01*
X110462812Y-126672022D01*
X110448868Y-126664408D01*
X110447035Y-126664539D01*
X110440420Y-126668790D01*
X109734923Y-127374287D01*
X109728493Y-127386062D01*
X109171119Y-127386062D01*
X109200615Y-127346705D01*
X109251745Y-127210316D01*
X109258500Y-127148134D01*
X109258500Y-127144815D01*
X109282153Y-127077890D01*
X109328156Y-127042196D01*
X109327141Y-127040266D01*
X109338000Y-127034558D01*
X109338245Y-127034368D01*
X109338403Y-127034347D01*
X109376434Y-127014356D01*
X110077978Y-126312812D01*
X110084356Y-126301132D01*
X110814408Y-126301132D01*
X110814539Y-126302965D01*
X110818790Y-126309580D01*
X111524287Y-127015077D01*
X111536062Y-127021507D01*
X111548077Y-127012211D01*
X111583931Y-126961006D01*
X111589414Y-126951511D01*
X111681490Y-126754053D01*
X111685236Y-126743761D01*
X111741625Y-126533312D01*
X111743528Y-126522519D01*
X111762517Y-126305475D01*
X111762517Y-126302750D01*
X115096524Y-126302750D01*
X115114894Y-126504596D01*
X115116632Y-126510502D01*
X115116633Y-126510506D01*
X115132316Y-126563790D01*
X115172119Y-126699029D01*
X115174972Y-126704486D01*
X115174973Y-126704489D01*
X115263162Y-126873181D01*
X115263165Y-126873185D01*
X115266019Y-126878645D01*
X115266221Y-126878897D01*
X115286201Y-126944912D01*
X115271041Y-127005885D01*
X115181038Y-127172342D01*
X115176286Y-127183647D01*
X115137578Y-127308692D01*
X115137372Y-127322795D01*
X115144127Y-127326000D01*
X115913758Y-127326000D01*
X115927803Y-127326785D01*
X116076817Y-127343500D01*
X116636004Y-127343500D01*
X116786713Y-127328723D01*
X116789002Y-127328032D01*
X116809724Y-127326000D01*
X117568986Y-127326000D01*
X117582517Y-127322027D01*
X117582829Y-127319853D01*
X129809977Y-127319853D01*
X129815258Y-127326907D01*
X129976756Y-127421279D01*
X129986042Y-127425729D01*
X130185001Y-127501703D01*
X130194899Y-127504579D01*
X130403595Y-127547038D01*
X130413823Y-127548257D01*
X130626650Y-127556062D01*
X130636936Y-127555595D01*
X130848185Y-127528534D01*
X130858262Y-127526392D01*
X131062255Y-127465191D01*
X131071842Y-127461433D01*
X131263098Y-127367738D01*
X131271944Y-127362465D01*
X131319247Y-127328723D01*
X131327648Y-127318023D01*
X131320660Y-127304870D01*
X130582812Y-126567022D01*
X130568868Y-126559408D01*
X130567035Y-126559539D01*
X130560420Y-126563790D01*
X129816737Y-127307473D01*
X129809977Y-127319853D01*
X117582829Y-127319853D01*
X117583637Y-127314232D01*
X117549154Y-127197068D01*
X117544561Y-127185700D01*
X117456416Y-127017093D01*
X117454403Y-127014017D01*
X117453846Y-127012178D01*
X117453560Y-127011630D01*
X117453664Y-127011576D01*
X117433839Y-126946064D01*
X117448999Y-126885094D01*
X117487551Y-126813794D01*
X117542356Y-126712435D01*
X117587369Y-126567022D01*
X117600468Y-126524707D01*
X117600469Y-126524704D01*
X117602290Y-126518820D01*
X117615862Y-126389697D01*
X117622832Y-126323378D01*
X117622832Y-126323377D01*
X117623476Y-126317250D01*
X117609789Y-126166863D01*
X129208050Y-126166863D01*
X129220309Y-126379477D01*
X129221745Y-126389697D01*
X129268565Y-126597446D01*
X129271645Y-126607275D01*
X129351770Y-126804603D01*
X129356413Y-126813794D01*
X129436460Y-126944420D01*
X129446916Y-126953880D01*
X129455694Y-126950096D01*
X130197978Y-126207812D01*
X130204356Y-126196132D01*
X130934408Y-126196132D01*
X130934539Y-126197965D01*
X130938790Y-126204580D01*
X131680474Y-126946264D01*
X131692484Y-126952823D01*
X131704223Y-126943855D01*
X131735004Y-126901019D01*
X131740315Y-126892180D01*
X131834670Y-126701267D01*
X131838469Y-126691672D01*
X131900376Y-126487915D01*
X131902555Y-126477834D01*
X131924289Y-126312750D01*
X143866524Y-126312750D01*
X143884894Y-126514596D01*
X143886632Y-126520502D01*
X143886633Y-126520506D01*
X143900324Y-126567022D01*
X143942119Y-126709029D01*
X143944972Y-126714486D01*
X143944973Y-126714489D01*
X144033162Y-126883181D01*
X144033165Y-126883185D01*
X144036019Y-126888645D01*
X144036221Y-126888897D01*
X144056201Y-126954912D01*
X144041041Y-127015885D01*
X143951038Y-127182342D01*
X143946286Y-127193647D01*
X143907578Y-127318692D01*
X143907372Y-127332795D01*
X143914127Y-127336000D01*
X144683758Y-127336000D01*
X144697803Y-127336785D01*
X144846817Y-127353500D01*
X145406004Y-127353500D01*
X145556713Y-127338723D01*
X145559002Y-127338032D01*
X145579724Y-127336000D01*
X146338986Y-127336000D01*
X146352517Y-127332027D01*
X146353637Y-127324232D01*
X146319154Y-127207068D01*
X146314561Y-127195700D01*
X146310606Y-127188134D01*
X149191500Y-127188134D01*
X149198255Y-127250316D01*
X149249385Y-127386705D01*
X149336739Y-127503261D01*
X149453295Y-127590615D01*
X149589684Y-127641745D01*
X149651866Y-127648500D01*
X151348134Y-127648500D01*
X151410316Y-127641745D01*
X151546705Y-127590615D01*
X151663261Y-127503261D01*
X151721119Y-127426062D01*
X152278493Y-127426062D01*
X152287789Y-127438077D01*
X152338994Y-127473931D01*
X152348489Y-127479414D01*
X152545947Y-127571490D01*
X152556239Y-127575236D01*
X152766688Y-127631625D01*
X152777481Y-127633528D01*
X152994525Y-127652517D01*
X153005475Y-127652517D01*
X153222519Y-127633528D01*
X153233312Y-127631625D01*
X153443761Y-127575236D01*
X153454053Y-127571490D01*
X153651511Y-127479414D01*
X153661006Y-127473931D01*
X153713048Y-127437491D01*
X153721424Y-127427012D01*
X153714356Y-127413566D01*
X153012812Y-126712022D01*
X152998868Y-126704408D01*
X152997035Y-126704539D01*
X152990420Y-126708790D01*
X152284923Y-127414287D01*
X152278493Y-127426062D01*
X151721119Y-127426062D01*
X151750615Y-127386705D01*
X151801745Y-127250316D01*
X151806944Y-127202460D01*
X151808133Y-127191514D01*
X151808133Y-127191511D01*
X151808500Y-127188134D01*
X151808500Y-127184815D01*
X151832153Y-127117890D01*
X151878156Y-127082196D01*
X151877141Y-127080266D01*
X151888000Y-127074558D01*
X151888245Y-127074368D01*
X151888403Y-127074347D01*
X151926434Y-127054356D01*
X152627978Y-126352812D01*
X152634356Y-126341132D01*
X153364408Y-126341132D01*
X153364539Y-126342965D01*
X153368790Y-126349580D01*
X154074287Y-127055077D01*
X154086062Y-127061507D01*
X154098077Y-127052211D01*
X154133931Y-127001006D01*
X154139414Y-126991511D01*
X154231490Y-126794053D01*
X154235236Y-126783761D01*
X154291625Y-126573312D01*
X154293528Y-126562519D01*
X154312517Y-126345475D01*
X154312517Y-126334525D01*
X154293528Y-126117481D01*
X154291625Y-126106688D01*
X154235236Y-125896239D01*
X154231490Y-125885947D01*
X154139414Y-125688489D01*
X154133931Y-125678994D01*
X154097491Y-125626952D01*
X154087012Y-125618576D01*
X154073566Y-125625644D01*
X153372022Y-126327188D01*
X153364408Y-126341132D01*
X152634356Y-126341132D01*
X152635592Y-126338868D01*
X152635461Y-126337035D01*
X152631210Y-126330420D01*
X151925713Y-125624923D01*
X151883971Y-125602129D01*
X151873971Y-125599953D01*
X151823773Y-125549747D01*
X151808549Y-125496186D01*
X151808500Y-125495281D01*
X151808500Y-125491866D01*
X151801745Y-125429684D01*
X151750615Y-125293295D01*
X151720407Y-125252988D01*
X152278576Y-125252988D01*
X152285644Y-125266434D01*
X152987188Y-125967978D01*
X153001132Y-125975592D01*
X153002965Y-125975461D01*
X153009580Y-125971210D01*
X153715077Y-125265713D01*
X153721507Y-125253938D01*
X153712211Y-125241923D01*
X153661006Y-125206069D01*
X153651511Y-125200586D01*
X153454053Y-125108510D01*
X153443761Y-125104764D01*
X153233312Y-125048375D01*
X153222519Y-125046472D01*
X153005475Y-125027483D01*
X152994525Y-125027483D01*
X152777481Y-125046472D01*
X152766688Y-125048375D01*
X152556239Y-125104764D01*
X152545947Y-125108510D01*
X152348489Y-125200586D01*
X152338994Y-125206069D01*
X152286952Y-125242509D01*
X152278576Y-125252988D01*
X151720407Y-125252988D01*
X151663261Y-125176739D01*
X151546705Y-125089385D01*
X151410316Y-125038255D01*
X151348134Y-125031500D01*
X149651866Y-125031500D01*
X149589684Y-125038255D01*
X149453295Y-125089385D01*
X149336739Y-125176739D01*
X149249385Y-125293295D01*
X149198255Y-125429684D01*
X149191500Y-125491866D01*
X149191500Y-127188134D01*
X146310606Y-127188134D01*
X146226416Y-127027093D01*
X146224403Y-127024017D01*
X146223846Y-127022178D01*
X146223560Y-127021630D01*
X146223664Y-127021576D01*
X146203839Y-126956064D01*
X146218999Y-126895094D01*
X146262958Y-126813794D01*
X146312356Y-126722435D01*
X146351047Y-126597446D01*
X146370468Y-126534707D01*
X146370469Y-126534704D01*
X146372290Y-126528820D01*
X146391561Y-126345475D01*
X146392832Y-126333378D01*
X146392832Y-126333377D01*
X146393476Y-126327250D01*
X146375106Y-126125404D01*
X146372775Y-126117481D01*
X146319620Y-125936879D01*
X146319619Y-125936877D01*
X146319203Y-125935461D01*
X146317881Y-125930971D01*
X146318740Y-125930718D01*
X146312286Y-125865338D01*
X146325452Y-125828594D01*
X146330615Y-125821705D01*
X146333768Y-125813296D01*
X146378971Y-125692715D01*
X146381745Y-125685316D01*
X146388500Y-125623134D01*
X146388500Y-124476866D01*
X146381745Y-124414684D01*
X146330615Y-124278295D01*
X146243261Y-124161739D01*
X146126705Y-124074385D01*
X145990316Y-124023255D01*
X145928134Y-124016500D01*
X144331866Y-124016500D01*
X144269684Y-124023255D01*
X144133295Y-124074385D01*
X144016739Y-124161739D01*
X143929385Y-124278295D01*
X143878255Y-124414684D01*
X143871500Y-124476866D01*
X143871500Y-125623134D01*
X143878255Y-125685316D01*
X143881029Y-125692715D01*
X143926232Y-125813296D01*
X143926234Y-125813299D01*
X143929385Y-125821705D01*
X143934773Y-125828894D01*
X143934906Y-125829137D01*
X143950076Y-125898494D01*
X143944752Y-125926907D01*
X143887710Y-126111180D01*
X143887066Y-126117305D01*
X143887066Y-126117306D01*
X143868219Y-126296622D01*
X143866524Y-126312750D01*
X131924289Y-126312750D01*
X131930590Y-126264887D01*
X131931109Y-126258212D01*
X131932572Y-126198364D01*
X131932378Y-126191646D01*
X131914781Y-125977604D01*
X131913096Y-125967424D01*
X131861214Y-125760875D01*
X131857894Y-125751124D01*
X131772972Y-125555814D01*
X131768105Y-125546739D01*
X131703063Y-125446197D01*
X131692377Y-125436995D01*
X131682812Y-125441398D01*
X130942022Y-126182188D01*
X130934408Y-126196132D01*
X130204356Y-126196132D01*
X130205592Y-126193868D01*
X130205461Y-126192035D01*
X130201210Y-126185420D01*
X129459849Y-125444059D01*
X129448313Y-125437759D01*
X129436031Y-125447382D01*
X129388089Y-125517662D01*
X129383004Y-125526613D01*
X129293338Y-125719783D01*
X129289775Y-125729470D01*
X129232864Y-125934681D01*
X129230933Y-125944800D01*
X129208302Y-126156574D01*
X129208050Y-126166863D01*
X117609789Y-126166863D01*
X117605106Y-126115404D01*
X117602131Y-126105294D01*
X117549620Y-125926879D01*
X117549619Y-125926877D01*
X117547881Y-125920971D01*
X117548740Y-125920718D01*
X117542286Y-125855338D01*
X117555452Y-125818594D01*
X117560615Y-125811705D01*
X117563768Y-125803296D01*
X117605222Y-125692715D01*
X117611745Y-125675316D01*
X117618500Y-125613134D01*
X117618500Y-125071427D01*
X129811223Y-125071427D01*
X129817968Y-125083758D01*
X130557188Y-125822978D01*
X130571132Y-125830592D01*
X130572965Y-125830461D01*
X130579580Y-125826210D01*
X131323389Y-125082401D01*
X131330410Y-125069544D01*
X131323611Y-125060213D01*
X131319554Y-125057518D01*
X131133117Y-124954599D01*
X131123705Y-124950369D01*
X130922959Y-124879280D01*
X130912989Y-124876646D01*
X130703327Y-124839301D01*
X130693073Y-124838331D01*
X130480116Y-124835728D01*
X130469832Y-124836448D01*
X130259321Y-124868661D01*
X130249293Y-124871050D01*
X130046868Y-124937212D01*
X130037359Y-124941209D01*
X129848466Y-125039540D01*
X129839734Y-125045039D01*
X129819677Y-125060099D01*
X129811223Y-125071427D01*
X117618500Y-125071427D01*
X117618500Y-124466866D01*
X117611745Y-124404684D01*
X117560615Y-124268295D01*
X117473261Y-124151739D01*
X117356705Y-124064385D01*
X117220316Y-124013255D01*
X117158134Y-124006500D01*
X115561866Y-124006500D01*
X115499684Y-124013255D01*
X115363295Y-124064385D01*
X115246739Y-124151739D01*
X115159385Y-124268295D01*
X115108255Y-124404684D01*
X115101500Y-124466866D01*
X115101500Y-125613134D01*
X115108255Y-125675316D01*
X115114778Y-125692715D01*
X115156232Y-125803296D01*
X115156234Y-125803299D01*
X115159385Y-125811705D01*
X115164773Y-125818894D01*
X115164906Y-125819137D01*
X115180076Y-125888494D01*
X115174752Y-125916907D01*
X115117710Y-126101180D01*
X115117066Y-126107305D01*
X115117066Y-126107306D01*
X115098160Y-126287188D01*
X115096524Y-126302750D01*
X111762517Y-126302750D01*
X111762517Y-126294525D01*
X111743528Y-126077481D01*
X111741625Y-126066688D01*
X111685236Y-125856239D01*
X111681490Y-125845947D01*
X111589414Y-125648489D01*
X111583931Y-125638994D01*
X111547491Y-125586952D01*
X111537012Y-125578576D01*
X111523566Y-125585644D01*
X110822022Y-126287188D01*
X110814408Y-126301132D01*
X110084356Y-126301132D01*
X110085592Y-126298868D01*
X110085461Y-126297035D01*
X110081210Y-126290420D01*
X109375713Y-125584923D01*
X109333971Y-125562129D01*
X109323971Y-125559953D01*
X109273773Y-125509747D01*
X109258549Y-125456186D01*
X109258500Y-125455281D01*
X109258500Y-125451866D01*
X109251745Y-125389684D01*
X109200615Y-125253295D01*
X109170407Y-125212988D01*
X109728576Y-125212988D01*
X109735644Y-125226434D01*
X110437188Y-125927978D01*
X110451132Y-125935592D01*
X110452965Y-125935461D01*
X110459580Y-125931210D01*
X111165077Y-125225713D01*
X111171507Y-125213938D01*
X111162211Y-125201923D01*
X111111006Y-125166069D01*
X111101511Y-125160586D01*
X110904053Y-125068510D01*
X110893761Y-125064764D01*
X110683312Y-125008375D01*
X110672519Y-125006472D01*
X110455475Y-124987483D01*
X110444525Y-124987483D01*
X110227481Y-125006472D01*
X110216688Y-125008375D01*
X110006239Y-125064764D01*
X109995947Y-125068510D01*
X109798489Y-125160586D01*
X109788994Y-125166069D01*
X109736952Y-125202509D01*
X109728576Y-125212988D01*
X109170407Y-125212988D01*
X109113261Y-125136739D01*
X108996705Y-125049385D01*
X108860316Y-124998255D01*
X108798134Y-124991500D01*
X107101866Y-124991500D01*
X107039684Y-124998255D01*
X106903295Y-125049385D01*
X106786739Y-125136739D01*
X106699385Y-125253295D01*
X106648255Y-125389684D01*
X106641500Y-125451866D01*
X106641500Y-127148134D01*
X101850000Y-127148134D01*
X101850000Y-123444261D01*
X102830294Y-123444261D01*
X102839590Y-123456276D01*
X102869189Y-123477001D01*
X102878677Y-123482479D01*
X103060277Y-123567159D01*
X103070571Y-123570907D01*
X103264122Y-123622769D01*
X103274909Y-123624671D01*
X103474525Y-123642135D01*
X103485475Y-123642135D01*
X103685091Y-123624671D01*
X103695878Y-123622769D01*
X103889429Y-123570907D01*
X103899723Y-123567159D01*
X104081323Y-123482479D01*
X104090811Y-123477001D01*
X104121248Y-123455689D01*
X104129623Y-123445212D01*
X104122554Y-123431764D01*
X103492812Y-122802022D01*
X103478868Y-122794408D01*
X103477035Y-122794539D01*
X103470420Y-122798790D01*
X102836724Y-123432486D01*
X102830294Y-123444261D01*
X101850000Y-123444261D01*
X101850000Y-122435475D01*
X102267865Y-122435475D01*
X102285329Y-122635091D01*
X102287231Y-122645878D01*
X102339093Y-122839429D01*
X102342841Y-122849723D01*
X102427521Y-123031323D01*
X102432999Y-123040811D01*
X102454311Y-123071248D01*
X102464788Y-123079623D01*
X102478236Y-123072554D01*
X103107978Y-122442812D01*
X103114356Y-122431132D01*
X103844408Y-122431132D01*
X103844539Y-122432965D01*
X103848790Y-122439580D01*
X104482486Y-123073276D01*
X104494261Y-123079706D01*
X104506276Y-123070410D01*
X104527001Y-123040811D01*
X104532479Y-123031323D01*
X104617159Y-122849723D01*
X104620907Y-122839429D01*
X104672769Y-122645878D01*
X104674671Y-122635091D01*
X104692135Y-122435475D01*
X104692135Y-122424525D01*
X104674671Y-122224909D01*
X104672769Y-122214122D01*
X104620907Y-122020571D01*
X104617159Y-122010277D01*
X104532479Y-121828677D01*
X104527001Y-121819189D01*
X104505689Y-121788752D01*
X104495212Y-121780377D01*
X104481764Y-121787446D01*
X103852022Y-122417188D01*
X103844408Y-122431132D01*
X103114356Y-122431132D01*
X103115592Y-122428868D01*
X103115461Y-122427035D01*
X103111210Y-122420420D01*
X102477514Y-121786724D01*
X102465739Y-121780294D01*
X102453724Y-121789590D01*
X102432999Y-121819189D01*
X102427521Y-121828677D01*
X102342841Y-122010277D01*
X102339093Y-122020571D01*
X102287231Y-122214122D01*
X102285329Y-122224909D01*
X102267865Y-122424525D01*
X102267865Y-122435475D01*
X101850000Y-122435475D01*
X101850000Y-121560190D01*
X101870002Y-121492069D01*
X101886905Y-121471095D01*
X102321095Y-121036905D01*
X102383407Y-121002879D01*
X102410190Y-121000000D01*
X103192413Y-121000000D01*
X103260534Y-121020002D01*
G37*
G04 #@! TD.AperFunction*
M02*
