G04 #@! TF.GenerationSoftware,KiCad,Pcbnew,(6.0.11)*
G04 #@! TF.CreationDate,2023-07-10T16:30:22-05:00*
G04 #@! TF.ProjectId,sailor_moon,7361696c-6f72-45f6-9d6f-6f6e2e6b6963,rev?*
G04 #@! TF.SameCoordinates,Original*
G04 #@! TF.FileFunction,Soldermask,Bot*
G04 #@! TF.FilePolarity,Negative*
%FSLAX46Y46*%
G04 Gerber Fmt 4.6, Leading zero omitted, Abs format (unit mm)*
G04 Created by KiCad (PCBNEW (6.0.11)) date 2023-07-10 16:30:22*
%MOMM*%
%LPD*%
G01*
G04 APERTURE LIST*
G04 Aperture macros list*
%AMRotRect*
0 Rectangle, with rotation*
0 The origin of the aperture is its center*
0 $1 length*
0 $2 width*
0 $3 Rotation angle, in degrees counterclockwise*
0 Add horizontal line*
21,1,$1,$2,0,0,$3*%
G04 Aperture macros list end*
%ADD10RotRect,1.800000X1.800000X240.000000*%
%ADD11C,1.800000*%
%ADD12C,1.400000*%
%ADD13R,1.600000X1.600000*%
%ADD14C,1.600000*%
%ADD15R,1.500000X1.050000*%
%ADD16O,1.500000X1.050000*%
%ADD17R,1.700000X1.700000*%
%ADD18C,1.700000*%
%ADD19RotRect,1.800000X1.800000X135.000000*%
%ADD20O,1.700000X1.700000*%
%ADD21RotRect,1.800000X1.800000X315.000000*%
%ADD22RotRect,1.800000X1.800000X45.000000*%
G04 APERTURE END LIST*
G36*
X130477606Y-61224919D02*
G01*
X130690401Y-61230145D01*
X130895799Y-61238467D01*
X131105668Y-61250171D01*
X131331876Y-61265541D01*
X131568069Y-61283435D01*
X132392588Y-61354192D01*
X133178442Y-61434231D01*
X133920654Y-61522882D01*
X134614243Y-61619472D01*
X135254232Y-61723327D01*
X135835642Y-61833777D01*
X136152324Y-61902480D01*
X136788858Y-62058835D01*
X137470099Y-62246222D01*
X138184056Y-62460443D01*
X138918733Y-62697303D01*
X139662136Y-62952606D01*
X140402271Y-63222156D01*
X141127145Y-63501756D01*
X141824763Y-63787212D01*
X142483131Y-64074326D01*
X142866229Y-64251273D01*
X143819540Y-64729638D01*
X144769267Y-65259711D01*
X145707103Y-65835535D01*
X146624743Y-66451153D01*
X147513879Y-67100608D01*
X148366205Y-67777942D01*
X149173414Y-68477199D01*
X149927200Y-69192422D01*
X150326329Y-69601328D01*
X150778974Y-70083698D01*
X151187642Y-70529870D01*
X151558780Y-70947395D01*
X151898830Y-71343825D01*
X152214236Y-71726710D01*
X152511444Y-72103602D01*
X152796897Y-72482052D01*
X152871687Y-72583968D01*
X153371990Y-73300348D01*
X153869438Y-74072290D01*
X154358208Y-74888668D01*
X154832479Y-75738357D01*
X155286427Y-76610229D01*
X155714232Y-77493160D01*
X156110070Y-78376023D01*
X156468120Y-79247692D01*
X156740357Y-79977003D01*
X156945030Y-80584092D01*
X157140982Y-81224330D01*
X157325838Y-81887012D01*
X157497219Y-82561429D01*
X157652749Y-83236873D01*
X157790051Y-83902638D01*
X157906746Y-84548016D01*
X158000459Y-85162298D01*
X158068812Y-85734778D01*
X158100077Y-86101708D01*
X158129026Y-86623487D01*
X158148204Y-87194579D01*
X158157765Y-87799235D01*
X158157862Y-88421708D01*
X158148652Y-89046249D01*
X158130287Y-89657110D01*
X158102922Y-90238543D01*
X158066711Y-90774800D01*
X158052648Y-90941392D01*
X157991802Y-91596806D01*
X157930834Y-92194893D01*
X157868085Y-92745064D01*
X157801899Y-93256730D01*
X157730619Y-93739302D01*
X157652588Y-94202189D01*
X157566148Y-94654802D01*
X157469643Y-95106552D01*
X157361414Y-95566849D01*
X157239806Y-96045104D01*
X157103160Y-96550727D01*
X157000546Y-96915900D01*
X156882418Y-97327840D01*
X156777722Y-97685391D01*
X156683058Y-97998762D01*
X156595029Y-98278162D01*
X156510237Y-98533799D01*
X156425284Y-98775882D01*
X156336771Y-99014621D01*
X156241300Y-99260224D01*
X156135474Y-99522900D01*
X156120961Y-99558389D01*
X155838212Y-100233515D01*
X155563423Y-100856746D01*
X155290026Y-101441343D01*
X155011452Y-102000565D01*
X154721133Y-102547672D01*
X154412502Y-103095924D01*
X154139765Y-103557950D01*
X153822526Y-104079824D01*
X153528161Y-104551885D01*
X153249791Y-104984081D01*
X152980542Y-105386358D01*
X152713536Y-105768661D01*
X152441897Y-106140939D01*
X152158749Y-106513136D01*
X151857215Y-106895201D01*
X151686969Y-107105868D01*
X151296024Y-107581743D01*
X150938536Y-108007326D01*
X150610201Y-108387376D01*
X150306716Y-108726650D01*
X150023777Y-109029905D01*
X149757081Y-109301899D01*
X149502323Y-109547387D01*
X149360821Y-109677265D01*
X148543695Y-110382942D01*
X147716604Y-111034510D01*
X146863030Y-111644293D01*
X145966454Y-112224612D01*
X145853483Y-112293898D01*
X145277162Y-112642515D01*
X144747490Y-112956432D01*
X144256633Y-113239520D01*
X143796755Y-113495650D01*
X143360023Y-113728694D01*
X142938601Y-113942522D01*
X142524656Y-114141005D01*
X142110353Y-114328015D01*
X141687858Y-114507423D01*
X141249336Y-114683100D01*
X140786953Y-114858916D01*
X140312878Y-115031592D01*
X139429671Y-115339797D01*
X138592738Y-115615305D01*
X137791812Y-115860905D01*
X137016626Y-116079387D01*
X136256914Y-116273541D01*
X135502410Y-116446156D01*
X134742846Y-116600022D01*
X134140258Y-116708819D01*
X133950125Y-116746437D01*
X133808031Y-116791756D01*
X133702141Y-116855644D01*
X133620618Y-116948966D01*
X133551626Y-117082591D01*
X133483329Y-117267384D01*
X133462205Y-117331352D01*
X133270034Y-117994110D01*
X133127629Y-118645693D01*
X133037181Y-119275273D01*
X133014206Y-119545597D01*
X133008973Y-119810207D01*
X133022836Y-120118572D01*
X133053516Y-120451208D01*
X133098732Y-120788632D01*
X133156208Y-121111360D01*
X133223663Y-121399906D01*
X133236466Y-121445929D01*
X133265790Y-121546995D01*
X133294037Y-121638985D01*
X133324063Y-121728171D01*
X133358726Y-121820824D01*
X133400884Y-121923216D01*
X133453394Y-122041618D01*
X133519114Y-122182302D01*
X133600901Y-122351539D01*
X133701613Y-122555601D01*
X133824108Y-122800760D01*
X133971242Y-123093286D01*
X134134715Y-123417345D01*
X134206887Y-123623993D01*
X134235964Y-123857246D01*
X134220775Y-124091764D01*
X134174003Y-124268462D01*
X134125516Y-124376510D01*
X134065017Y-124461653D01*
X133974978Y-124545163D01*
X133895721Y-124606119D01*
X133778310Y-124686981D01*
X133664939Y-124755019D01*
X133578820Y-124796381D01*
X133574060Y-124798037D01*
X133475125Y-124817339D01*
X133334518Y-124828411D01*
X133176855Y-124830929D01*
X133026747Y-124824571D01*
X132908809Y-124809014D01*
X132899532Y-124806891D01*
X132837192Y-124777323D01*
X132739710Y-124714753D01*
X132622626Y-124629627D01*
X132545948Y-124569243D01*
X132363455Y-124400475D01*
X132156749Y-124171445D01*
X131926976Y-123883639D01*
X131675280Y-123538545D01*
X131402808Y-123137651D01*
X131191191Y-122810222D01*
X131053704Y-122590799D01*
X130942968Y-122406105D01*
X130850109Y-122238795D01*
X130766251Y-122071525D01*
X130682520Y-121886950D01*
X130590040Y-121667726D01*
X130525110Y-121508514D01*
X130429182Y-121269097D01*
X130354550Y-121074941D01*
X130296284Y-120909919D01*
X130249454Y-120757906D01*
X130209128Y-120602776D01*
X130170376Y-120428404D01*
X130128268Y-120218662D01*
X130123942Y-120196452D01*
X130081051Y-119960775D01*
X130040161Y-119708714D01*
X130004597Y-119462750D01*
X129977685Y-119245366D01*
X129966652Y-119133003D01*
X129929448Y-118687032D01*
X129749310Y-118464079D01*
X129569172Y-118241125D01*
X129191813Y-118119304D01*
X129028494Y-118066804D01*
X128874979Y-118017851D01*
X128750139Y-117978441D01*
X128680946Y-117957008D01*
X128593626Y-117923640D01*
X128468149Y-117867068D01*
X128324647Y-117796623D01*
X128241083Y-117753083D01*
X128152023Y-117708439D01*
X128045992Y-117661212D01*
X127916967Y-117609280D01*
X127758930Y-117550520D01*
X127565857Y-117482812D01*
X127331730Y-117404033D01*
X127050526Y-117312062D01*
X126716225Y-117204776D01*
X126405340Y-117106125D01*
X126028505Y-116987864D01*
X125611847Y-116858628D01*
X125172085Y-116723507D01*
X124725937Y-116587590D01*
X124290121Y-116455966D01*
X123881354Y-116333724D01*
X123516356Y-116225954D01*
X123455865Y-116208272D01*
X122980081Y-116066838D01*
X122532481Y-115927873D01*
X122103426Y-115787766D01*
X121683279Y-115642907D01*
X121262399Y-115489685D01*
X120831150Y-115324492D01*
X120379891Y-115143716D01*
X119898984Y-114943748D01*
X119378792Y-114720978D01*
X118809674Y-114471794D01*
X118754349Y-114447340D01*
X117767991Y-113991380D01*
X116833653Y-113519330D01*
X115954249Y-113032871D01*
X115132698Y-112533685D01*
X114371914Y-112023453D01*
X113745974Y-111559617D01*
X113526221Y-111392012D01*
X113353152Y-111268039D01*
X113224363Y-111186093D01*
X113137449Y-111144567D01*
X113116902Y-111139354D01*
X112963623Y-111146554D01*
X112788693Y-111212146D01*
X112598025Y-111333725D01*
X112553944Y-111368239D01*
X112448828Y-111446962D01*
X112308207Y-111543764D01*
X112154472Y-111643500D01*
X112069976Y-111695605D01*
X111941467Y-111770311D01*
X111824483Y-111830269D01*
X111703057Y-111881710D01*
X111561217Y-111930862D01*
X111382995Y-111983957D01*
X111205154Y-112033008D01*
X110914858Y-112103357D01*
X110576648Y-112171689D01*
X110206186Y-112235866D01*
X109819129Y-112293751D01*
X109431140Y-112343203D01*
X109057876Y-112382086D01*
X108714999Y-112408261D01*
X108418168Y-112419588D01*
X108371946Y-112419885D01*
X107939044Y-112404351D01*
X107562642Y-112357239D01*
X107243322Y-112278726D01*
X106981666Y-112168987D01*
X106778257Y-112028196D01*
X106667624Y-111906923D01*
X106615081Y-111828153D01*
X106585204Y-111755259D01*
X106571780Y-111664337D01*
X106568597Y-111531488D01*
X106568594Y-111525929D01*
X106570493Y-111402331D01*
X106581341Y-111313389D01*
X106608868Y-111235758D01*
X106660800Y-111146095D01*
X106727136Y-111047045D01*
X106796224Y-110951994D01*
X106871043Y-110864911D01*
X106962115Y-110776059D01*
X107079960Y-110675705D01*
X107235101Y-110554114D01*
X107369646Y-110452555D01*
X107571881Y-110303167D01*
X107805917Y-110133252D01*
X108048266Y-109959690D01*
X108275439Y-109799363D01*
X108370960Y-109732918D01*
X108702348Y-109503481D01*
X108982444Y-109308541D01*
X109215076Y-109144941D01*
X109404073Y-109009524D01*
X109553263Y-108899134D01*
X109666476Y-108810614D01*
X109747539Y-108740806D01*
X109800281Y-108686556D01*
X109828531Y-108644704D01*
X109836118Y-108612096D01*
X109826870Y-108585574D01*
X109804616Y-108561982D01*
X109797832Y-108556457D01*
X109751547Y-108541611D01*
X109651333Y-108522322D01*
X109509707Y-108500594D01*
X109339182Y-108478431D01*
X109238765Y-108466910D01*
X108883882Y-108424539D01*
X108589690Y-108380336D01*
X108350131Y-108331509D01*
X108159149Y-108275268D01*
X108010686Y-108208821D01*
X107898687Y-108129379D01*
X107817093Y-108034151D01*
X107759849Y-107920346D01*
X107720897Y-107785174D01*
X107716825Y-107765711D01*
X107680167Y-107584098D01*
X107833645Y-107435823D01*
X107936018Y-107350571D01*
X108081293Y-107247208D01*
X108252182Y-107136491D01*
X108431398Y-107029179D01*
X108601654Y-106936029D01*
X108745661Y-106867797D01*
X108748157Y-106866759D01*
X108826956Y-106830109D01*
X108854531Y-106798269D01*
X108842592Y-106753795D01*
X108834515Y-106738113D01*
X108779712Y-106653949D01*
X108687084Y-106532016D01*
X108565384Y-106382362D01*
X108423370Y-106215032D01*
X108269794Y-106040075D01*
X108113412Y-105867537D01*
X107962979Y-105707465D01*
X107827250Y-105569907D01*
X107762726Y-105508126D01*
X107397815Y-105187369D01*
X107041150Y-104915223D01*
X106674667Y-104678951D01*
X106295316Y-104473293D01*
X105957186Y-104295557D01*
X105664978Y-104120998D01*
X105399792Y-103936855D01*
X105142725Y-103730365D01*
X104975464Y-103582172D01*
X104850225Y-103462877D01*
X104734090Y-103340326D01*
X104617256Y-103202658D01*
X104489915Y-103038013D01*
X104342263Y-102834530D01*
X104255747Y-102711643D01*
X104100179Y-102485903D01*
X103975731Y-102296462D01*
X103872801Y-102126728D01*
X103781788Y-101960104D01*
X103693090Y-101779997D01*
X103603977Y-101585214D01*
X103408254Y-101120300D01*
X103216091Y-100613295D01*
X103035125Y-100086794D01*
X102872996Y-99563390D01*
X102737342Y-99065675D01*
X102699437Y-98909851D01*
X102584244Y-98361471D01*
X102503000Y-97832726D01*
X102452923Y-97299129D01*
X102431233Y-96736196D01*
X102429829Y-96536702D01*
X102434246Y-96280967D01*
X102448419Y-96024871D01*
X102473730Y-95758378D01*
X102511564Y-95471453D01*
X102563304Y-95154061D01*
X102630333Y-94796168D01*
X102714034Y-94387738D01*
X102747945Y-94229040D01*
X102800185Y-93974392D01*
X102839658Y-93747365D01*
X102867035Y-93534455D01*
X102882984Y-93322159D01*
X102888174Y-93096974D01*
X102883274Y-92845395D01*
X102868955Y-92553921D01*
X102847173Y-92226897D01*
X102831601Y-91959239D01*
X102819030Y-91637156D01*
X102809388Y-91269345D01*
X102802604Y-90864502D01*
X102798604Y-90431324D01*
X102797319Y-89978508D01*
X102798676Y-89514750D01*
X102802604Y-89048748D01*
X102809031Y-88589196D01*
X102817885Y-88144793D01*
X102829095Y-87724236D01*
X102842589Y-87336219D01*
X102858295Y-86989441D01*
X102876142Y-86692598D01*
X102894610Y-86468856D01*
X102957574Y-85873807D01*
X103028102Y-85293100D01*
X103108375Y-84712149D01*
X103200576Y-84116369D01*
X103306886Y-83491175D01*
X103429486Y-82821980D01*
X103478754Y-82563731D01*
X103545250Y-82249467D01*
X103635516Y-81873825D01*
X103749612Y-81436583D01*
X103887595Y-80937518D01*
X104049523Y-80376407D01*
X104063917Y-80327463D01*
X104223887Y-79823911D01*
X104417463Y-79281173D01*
X104638432Y-78713643D01*
X104880587Y-78135717D01*
X105137716Y-77561790D01*
X105403609Y-77006257D01*
X105672057Y-76483511D01*
X105899810Y-76071879D01*
X105970161Y-75954060D01*
X106073320Y-75787577D01*
X106204918Y-75579207D01*
X106360587Y-75335729D01*
X106535958Y-75063921D01*
X106726662Y-74770561D01*
X106928329Y-74462427D01*
X107136591Y-74146299D01*
X107295223Y-73906926D01*
X107532241Y-73550571D01*
X107738242Y-73242078D01*
X107918938Y-72973568D01*
X108080041Y-72737159D01*
X108227262Y-72524974D01*
X108366313Y-72329131D01*
X108502905Y-72141751D01*
X108642750Y-71954954D01*
X108791559Y-71760860D01*
X108955044Y-71551590D01*
X109138917Y-71319262D01*
X109348889Y-71055998D01*
X109484665Y-70886295D01*
X109746788Y-70559762D01*
X109974569Y-70278303D01*
X110174618Y-70034276D01*
X110353548Y-69820041D01*
X110517970Y-69627956D01*
X110674497Y-69450380D01*
X110829739Y-69279671D01*
X110990308Y-69108190D01*
X111162817Y-68928293D01*
X111307021Y-68780175D01*
X111547377Y-68536761D01*
X111766149Y-68320823D01*
X111975455Y-68121294D01*
X112187412Y-67927105D01*
X112414137Y-67727189D01*
X112667749Y-67510477D01*
X112960365Y-67265902D01*
X113009255Y-67225396D01*
X113259526Y-67018580D01*
X113467655Y-66847993D01*
X113642753Y-66707099D01*
X113793933Y-66589359D01*
X113930307Y-66488235D01*
X114060987Y-66397189D01*
X114195085Y-66309683D01*
X114341713Y-66219178D01*
X114509982Y-66119138D01*
X114709006Y-66003023D01*
X114729304Y-65991233D01*
X115124802Y-65764857D01*
X115555699Y-65524232D01*
X116014675Y-65273095D01*
X116494412Y-65015185D01*
X116987591Y-64754239D01*
X117486892Y-64493996D01*
X117984996Y-64238194D01*
X118474585Y-63990570D01*
X118948339Y-63754863D01*
X119398939Y-63534811D01*
X119819066Y-63334151D01*
X120201400Y-63156622D01*
X120538624Y-63005961D01*
X120753877Y-62914360D01*
X121410328Y-62654584D01*
X122064596Y-62420536D01*
X122725269Y-62210128D01*
X123400936Y-62021273D01*
X124100187Y-61851882D01*
X124831609Y-61699867D01*
X125603793Y-61563141D01*
X126425327Y-61439616D01*
X127262418Y-61332224D01*
X127461970Y-61309390D01*
X127646501Y-61290603D01*
X127826511Y-61275336D01*
X128012500Y-61263063D01*
X128214967Y-61253257D01*
X128444414Y-61245391D01*
X128711340Y-61238938D01*
X129026245Y-61233373D01*
X129315112Y-61229267D01*
X129676167Y-61224962D01*
X129982356Y-61222613D01*
X130245547Y-61222503D01*
X130477606Y-61224919D01*
G37*
D10*
X156857500Y-102705818D03*
D11*
X155587500Y-104905523D03*
D12*
X154250000Y-137000000D03*
X154250000Y-144620000D03*
D13*
X116500000Y-142000000D03*
D14*
X119000000Y-142000000D03*
D15*
X145130000Y-125050000D03*
D16*
X145130000Y-126320000D03*
X145130000Y-127590000D03*
D17*
X130570000Y-146195000D03*
D18*
X130570000Y-126195000D03*
D13*
X107950000Y-126300000D03*
D14*
X110450000Y-126300000D03*
D19*
X105110000Y-106410000D03*
D11*
X103313949Y-104613949D03*
D12*
X109190000Y-133000000D03*
X116810000Y-133000000D03*
X103500000Y-136930000D03*
X103500000Y-144550000D03*
D15*
X111940000Y-139320000D03*
D16*
X111940000Y-140590000D03*
X111940000Y-141860000D03*
D12*
X157620000Y-130090000D03*
X157620000Y-122470000D03*
D17*
X106380000Y-149000000D03*
D20*
X108920000Y-149000000D03*
X111460000Y-149000000D03*
X114000000Y-149000000D03*
X116540000Y-149000000D03*
D15*
X116360000Y-125040000D03*
D16*
X116360000Y-126310000D03*
X116360000Y-127580000D03*
D12*
X143690000Y-133000000D03*
X151310000Y-133000000D03*
D13*
X142250000Y-142000000D03*
D14*
X144750000Y-142000000D03*
D12*
X107000000Y-136940000D03*
X107000000Y-144560000D03*
X157640000Y-137000000D03*
X157640000Y-144620000D03*
D13*
X150500000Y-126340000D03*
D14*
X153000000Y-126340000D03*
D21*
X148868439Y-65487834D03*
D11*
X150664490Y-67283885D03*
D17*
X144480000Y-149000000D03*
D20*
X147020000Y-149000000D03*
X149560000Y-149000000D03*
X152100000Y-149000000D03*
X154640000Y-149000000D03*
D12*
X103480000Y-130050000D03*
X103480000Y-122430000D03*
D15*
X150000000Y-139300000D03*
D16*
X150000000Y-140570000D03*
X150000000Y-141840000D03*
D22*
X110150000Y-67380000D03*
D11*
X111946051Y-65583949D03*
M02*
