G04 #@! TF.GenerationSoftware,KiCad,Pcbnew,(6.0.11)*
G04 #@! TF.CreationDate,2023-07-10T16:30:22-05:00*
G04 #@! TF.ProjectId,sailor_moon,7361696c-6f72-45f6-9d6f-6f6e2e6b6963,rev?*
G04 #@! TF.SameCoordinates,Original*
G04 #@! TF.FileFunction,Profile,NP*
%FSLAX46Y46*%
G04 Gerber Fmt 4.6, Leading zero omitted, Abs format (unit mm)*
G04 Created by KiCad (PCBNEW (6.0.11)) date 2023-07-10 16:30:22*
%MOMM*%
%LPD*%
G01*
G04 APERTURE LIST*
G04 #@! TA.AperFunction,Profile*
%ADD10C,0.100000*%
G04 #@! TD*
G04 APERTURE END LIST*
D10*
X155675000Y-67600000D02*
X156275000Y-68750000D01*
X153925000Y-64825000D02*
X154625000Y-65850000D01*
X151200000Y-61300000D02*
X152200000Y-62425000D01*
X130800000Y-56000000D02*
X130500000Y-56000000D01*
X100500000Y-82250000D02*
X100675000Y-80775000D01*
X143525000Y-56325000D02*
X145325000Y-57200000D01*
X160500000Y-82500000D02*
X160500000Y-82250000D01*
X158650000Y-73750000D02*
X159050000Y-74850000D01*
X111975000Y-59425000D02*
X113300000Y-58525000D01*
X149025000Y-59425000D02*
X150075000Y-60225000D01*
X125025000Y-54425000D02*
X127850000Y-54100000D01*
X108800000Y-62425000D02*
X109800000Y-61300000D01*
X132100000Y-56300000D02*
X131500000Y-56100000D01*
X106375000Y-65850000D02*
X107075000Y-64825000D01*
X119900000Y-55425000D02*
X122525000Y-54775000D01*
X130500000Y-56000000D02*
X130200000Y-56000000D01*
X133200000Y-57500000D02*
X133100000Y-57200000D01*
X159450000Y-76425000D02*
X159800000Y-78075000D01*
X113300000Y-58525000D02*
X114675000Y-57675000D01*
X114675000Y-57675000D02*
X115675000Y-57200000D01*
X100675000Y-80775000D02*
X100950000Y-79375000D01*
X127900000Y-57200000D02*
X127800000Y-57500000D01*
X101550000Y-76425000D02*
X101950000Y-74850000D01*
X101950000Y-74850000D02*
X102350000Y-73750000D01*
X141100000Y-55425000D02*
X143525000Y-56325000D01*
X132600000Y-56600000D02*
X132100000Y-56300000D01*
X160500000Y-152000000D02*
X160500000Y-82500000D01*
X110925000Y-60225000D02*
X111975000Y-59425000D01*
X160050000Y-79375000D02*
X160325000Y-80775000D01*
X100950000Y-79375000D02*
X101200000Y-78075000D01*
X133150000Y-54100000D02*
X135975000Y-54425000D01*
X100500000Y-152000000D02*
X100500000Y-82500000D01*
X105325000Y-67600000D02*
X105850000Y-66725000D01*
X101200000Y-78075000D02*
X101550000Y-76425000D01*
X159050000Y-74850000D02*
X159450000Y-76425000D01*
X133100000Y-57200000D02*
X132900000Y-56900000D01*
X147700000Y-58525000D02*
X149025000Y-59425000D01*
X109800000Y-61300000D02*
X110925000Y-60225000D01*
X128100000Y-56900000D02*
X127900000Y-57200000D01*
X145325000Y-57200000D02*
X146325000Y-57675000D01*
X146325000Y-57675000D02*
X147700000Y-58525000D01*
X128400000Y-56600000D02*
X128100000Y-56900000D01*
X157825000Y-71850000D02*
X158225000Y-72750000D01*
X157425000Y-71000000D02*
X157825000Y-71850000D01*
X127800000Y-59500000D02*
X133200000Y-59500000D01*
X156275000Y-68750000D02*
X156925000Y-70025000D01*
X117475000Y-56325000D02*
X119900000Y-55425000D01*
X131500000Y-56100000D02*
X130800000Y-56000000D01*
X132900000Y-56900000D02*
X132600000Y-56600000D01*
X115675000Y-57200000D02*
X117475000Y-56325000D01*
X158225000Y-72750000D02*
X158650000Y-73750000D01*
X131500000Y-54000000D02*
X133150000Y-54100000D01*
X152200000Y-62425000D02*
X153175000Y-63775000D01*
X122525000Y-54775000D02*
X125025000Y-54425000D01*
X100500000Y-82500000D02*
X100500000Y-82250000D01*
X127850000Y-54100000D02*
X129500000Y-54000000D01*
X100500000Y-152000000D02*
X160500000Y-152000000D01*
X104075000Y-70025000D02*
X104725000Y-68750000D01*
X138475000Y-54775000D02*
X141100000Y-55425000D01*
X107075000Y-64825000D02*
X107825000Y-63775000D01*
X155150000Y-66725000D02*
X155675000Y-67600000D01*
X104725000Y-68750000D02*
X105325000Y-67600000D01*
X103175000Y-71850000D02*
X103575000Y-71000000D01*
X128900000Y-56300000D02*
X128400000Y-56600000D01*
X160325000Y-80775000D02*
X160500000Y-82250000D01*
X159800000Y-78075000D02*
X160050000Y-79375000D01*
X133200000Y-59500000D02*
X133200000Y-57500000D01*
X129500000Y-56100000D02*
X128900000Y-56300000D01*
X150075000Y-60225000D02*
X151200000Y-61300000D01*
X107825000Y-63775000D02*
X108800000Y-62425000D01*
X129500000Y-54000000D02*
X131500000Y-54000000D01*
X102350000Y-73750000D02*
X102775000Y-72750000D01*
X130200000Y-56000000D02*
X129500000Y-56100000D01*
X105850000Y-66725000D02*
X106375000Y-65850000D01*
X154625000Y-65850000D02*
X155150000Y-66725000D01*
X103575000Y-71000000D02*
X104075000Y-70025000D01*
X102775000Y-72750000D02*
X103175000Y-71850000D01*
X127800000Y-57500000D02*
X127800000Y-59500000D01*
X156925000Y-70025000D02*
X157425000Y-71000000D01*
X153175000Y-63775000D02*
X153925000Y-64825000D01*
X135975000Y-54425000D02*
X138475000Y-54775000D01*
M02*
