M48
; DRILL file {KiCad (6.0.11)} date Mon Jul 10 16:30:46 2023
; FORMAT={2:4/ absolute / inch / suppress leading zeros}
; #@! TF.CreationDate,2023-07-10T16:30:46-05:00
; #@! TF.GenerationSoftware,Kicad,Pcbnew,(6.0.11)
; #@! TF.FileFunction,Plated,1,2,PTH
FMAT,2
INCH,TZ
; #@! TA.AperFunction,Plated,PTH,ComponentDrill
T1C0.0276
; #@! TA.AperFunction,Plated,PTH,ComponentDrill
T2C0.0295
; #@! TA.AperFunction,Plated,PTH,ComponentDrill
T3C0.0315
; #@! TA.AperFunction,Plated,PTH,ComponentDrill
T4C0.0354
; #@! TA.AperFunction,Plated,PTH,ComponentDrill
T5C0.0394
%
G90
G05
T1
X40740Y-48201
X40740Y-51201
X40748Y-53909
X40748Y-56909
X42126Y-53913
X42126Y-56913
X42988Y-52362
X45988Y-52362
X56571Y-52362
X59571Y-52362
X60728Y-53937
X60728Y-56937
X62055Y-48217
X62055Y-51217
X62063Y-53937
X62063Y-56937
T2
X44071Y-54850
X44071Y-55350
X44071Y-55850
X45811Y-49228
X45811Y-49728
X45811Y-50228
X57138Y-49232
X57138Y-49732
X57138Y-50232
X59055Y-54843
X59055Y-55343
X59055Y-55843
T3
X42500Y-49724
X43484Y-49724
X45866Y-55906
X46850Y-55906
X56004Y-55906
X56988Y-55906
X59252Y-49740
X60236Y-49740
T4
X40675Y-41187
X41382Y-41894
X43366Y-26528
X44073Y-25820
X58610Y-25783
X59317Y-26490
X61255Y-41301
X61755Y-40435
T5
X41882Y-58661
X42882Y-58661
X43882Y-58661
X44882Y-58661
X45882Y-58661
X51406Y-49683
X51406Y-57557
X56882Y-58661
X57882Y-58661
X58882Y-58661
X59882Y-58661
X60882Y-58661
T0
M30
