G04 #@! TF.GenerationSoftware,KiCad,Pcbnew,(6.0.11)*
G04 #@! TF.CreationDate,2023-07-10T16:30:22-05:00*
G04 #@! TF.ProjectId,sailor_moon,7361696c-6f72-45f6-9d6f-6f6e2e6b6963,rev?*
G04 #@! TF.SameCoordinates,Original*
G04 #@! TF.FileFunction,Soldermask,Top*
G04 #@! TF.FilePolarity,Negative*
%FSLAX46Y46*%
G04 Gerber Fmt 4.6, Leading zero omitted, Abs format (unit mm)*
G04 Created by KiCad (PCBNEW (6.0.11)) date 2023-07-10 16:30:22*
%MOMM*%
%LPD*%
G01*
G04 APERTURE LIST*
G04 Aperture macros list*
%AMRotRect*
0 Rectangle, with rotation*
0 The origin of the aperture is its center*
0 $1 length*
0 $2 width*
0 $3 Rotation angle, in degrees counterclockwise*
0 Add horizontal line*
21,1,$1,$2,0,0,$3*%
G04 Aperture macros list end*
%ADD10RotRect,1.800000X1.800000X240.000000*%
%ADD11C,1.800000*%
%ADD12C,1.400000*%
%ADD13R,1.600000X1.600000*%
%ADD14C,1.600000*%
%ADD15R,1.500000X1.050000*%
%ADD16O,1.500000X1.050000*%
%ADD17R,1.700000X1.700000*%
%ADD18C,1.700000*%
%ADD19RotRect,1.800000X1.800000X135.000000*%
%ADD20O,1.700000X1.700000*%
%ADD21RotRect,1.800000X1.800000X315.000000*%
%ADD22RotRect,1.800000X1.800000X45.000000*%
G04 APERTURE END LIST*
G36*
X126878581Y-62879859D02*
G01*
X127340745Y-62882955D01*
X127752983Y-62892256D01*
X128131947Y-62909087D01*
X128494287Y-62934775D01*
X128856654Y-62970646D01*
X129235699Y-63018025D01*
X129648072Y-63078239D01*
X129928614Y-63122733D01*
X130202587Y-63168946D01*
X130465149Y-63217245D01*
X130725142Y-63269786D01*
X130991409Y-63328728D01*
X131272792Y-63396228D01*
X131578132Y-63474444D01*
X131916271Y-63565533D01*
X132296052Y-63671654D01*
X132726316Y-63794965D01*
X132953220Y-63860849D01*
X133713304Y-64089012D01*
X134416126Y-64314806D01*
X135070875Y-64542221D01*
X135686740Y-64775245D01*
X136272909Y-65017867D01*
X136838571Y-65274078D01*
X137392915Y-65547864D01*
X137945130Y-65843217D01*
X138504405Y-66164124D01*
X139079928Y-66514574D01*
X139111301Y-66534200D01*
X139420683Y-66732272D01*
X139703845Y-66923655D01*
X139973167Y-67117835D01*
X140241027Y-67324297D01*
X140519805Y-67552527D01*
X140821878Y-67812012D01*
X141096006Y-68055090D01*
X141598542Y-68511343D01*
X142054915Y-68939002D01*
X142473722Y-69347650D01*
X142863562Y-69746869D01*
X143233033Y-70146239D01*
X143590733Y-70555342D01*
X143945260Y-70983759D01*
X144305213Y-71441073D01*
X144679189Y-71936865D01*
X145075787Y-72480715D01*
X145109350Y-72527422D01*
X145278574Y-72765135D01*
X145410233Y-72955764D01*
X145507244Y-73105306D01*
X145572521Y-73219758D01*
X145608981Y-73305115D01*
X145619541Y-73367374D01*
X145607116Y-73412530D01*
X145574622Y-73446581D01*
X145560878Y-73455851D01*
X145508525Y-73478509D01*
X145405518Y-73515295D01*
X145265290Y-73561666D01*
X145101279Y-73613082D01*
X145046819Y-73629603D01*
X144860435Y-73688859D01*
X144676839Y-73752782D01*
X144515610Y-73814208D01*
X144396328Y-73865974D01*
X144383851Y-73872165D01*
X144217749Y-73938460D01*
X144028026Y-73985435D01*
X143832081Y-74011597D01*
X143647312Y-74015454D01*
X143491120Y-73995514D01*
X143391427Y-73957284D01*
X143357867Y-73920498D01*
X143297840Y-73839967D01*
X143220500Y-73728399D01*
X143152410Y-73625484D01*
X142990504Y-73392684D01*
X142838126Y-73212388D01*
X142684154Y-73073623D01*
X142517461Y-72965415D01*
X142446461Y-72929059D01*
X142189234Y-72820246D01*
X141940334Y-72748711D01*
X141683767Y-72712515D01*
X141403536Y-72709717D01*
X141083645Y-72738378D01*
X140984704Y-72751788D01*
X140786402Y-72785144D01*
X140628913Y-72824888D01*
X140486304Y-72878589D01*
X140384445Y-72927018D01*
X140081928Y-73116776D01*
X139815277Y-73358901D01*
X139591324Y-73645654D01*
X139416898Y-73969293D01*
X139376439Y-74069250D01*
X139344769Y-74159194D01*
X139322579Y-74242286D01*
X139308280Y-74333193D01*
X139300282Y-74446581D01*
X139296995Y-74597116D01*
X139296830Y-74799467D01*
X139296846Y-74803547D01*
X139298524Y-75007057D01*
X139302982Y-75159099D01*
X139312035Y-75274951D01*
X139327497Y-75369893D01*
X139351181Y-75459204D01*
X139384902Y-75558162D01*
X139387193Y-75564491D01*
X139435475Y-75711278D01*
X139451599Y-75818993D01*
X139430029Y-75905606D01*
X139365230Y-75989091D01*
X139251665Y-76087420D01*
X139217875Y-76114173D01*
X139074876Y-76239401D01*
X138908118Y-76406047D01*
X138730304Y-76599618D01*
X138554141Y-76805618D01*
X138392334Y-77009553D01*
X138257588Y-77196927D01*
X138224534Y-77247440D01*
X138124287Y-77416508D01*
X138054978Y-77566916D01*
X138003336Y-77730021D01*
X137980437Y-77824178D01*
X137938764Y-78046952D01*
X137903878Y-78311351D01*
X137876280Y-78603944D01*
X137856470Y-78911300D01*
X137844948Y-79219990D01*
X137842216Y-79516584D01*
X137848773Y-79787650D01*
X137865120Y-80019758D01*
X137891758Y-80199478D01*
X137891895Y-80200117D01*
X137956955Y-80455539D01*
X138036738Y-80662900D01*
X138142179Y-80839465D01*
X138284210Y-81002496D01*
X138473763Y-81169260D01*
X138537326Y-81219348D01*
X138636285Y-81300837D01*
X138711313Y-81378420D01*
X138760796Y-81458051D01*
X138783120Y-81545681D01*
X138776671Y-81647264D01*
X138739836Y-81768752D01*
X138670999Y-81916096D01*
X138568547Y-82095251D01*
X138430866Y-82312167D01*
X138256343Y-82572797D01*
X138113974Y-82780683D01*
X137830686Y-83156220D01*
X137493144Y-83541470D01*
X137110971Y-83926747D01*
X136693786Y-84302367D01*
X136251211Y-84658645D01*
X136239878Y-84667240D01*
X135724437Y-85019346D01*
X135160016Y-85334202D01*
X134555030Y-85608650D01*
X133917891Y-85839531D01*
X133257014Y-86023686D01*
X132580811Y-86157956D01*
X132102103Y-86220651D01*
X131969155Y-86231222D01*
X131788695Y-86240980D01*
X131568830Y-86249842D01*
X131317672Y-86257723D01*
X131043330Y-86264540D01*
X130753912Y-86270208D01*
X130457530Y-86274643D01*
X130162291Y-86277761D01*
X129876307Y-86279478D01*
X129607687Y-86279710D01*
X129364540Y-86278373D01*
X129154976Y-86275383D01*
X128987104Y-86270655D01*
X128869034Y-86264105D01*
X128808876Y-86255650D01*
X128806654Y-86254825D01*
X128734411Y-86199459D01*
X128644314Y-86085766D01*
X128542529Y-85925123D01*
X128447563Y-85783759D01*
X128311553Y-85607935D01*
X128143493Y-85407374D01*
X127952380Y-85191801D01*
X127747209Y-84970939D01*
X127536976Y-84754512D01*
X127330675Y-84552242D01*
X127137303Y-84373853D01*
X126995401Y-84252789D01*
X126635124Y-83986432D01*
X126281393Y-83781686D01*
X125924574Y-83635396D01*
X125555031Y-83544410D01*
X125163129Y-83505573D01*
X124742444Y-83515491D01*
X124375296Y-83543081D01*
X124074902Y-83416315D01*
X123713809Y-83295149D01*
X123316597Y-83217283D01*
X122898430Y-83183290D01*
X122474474Y-83193738D01*
X122059897Y-83249200D01*
X121738502Y-83328387D01*
X121642546Y-83367878D01*
X121510793Y-83435833D01*
X121361900Y-83522099D01*
X121238241Y-83600617D01*
X121094857Y-83694624D01*
X120993183Y-83756369D01*
X120919969Y-83791478D01*
X120861965Y-83805578D01*
X120805920Y-83804295D01*
X120770961Y-83799042D01*
X120677067Y-83786405D01*
X120540230Y-83772221D01*
X120384146Y-83758846D01*
X120317899Y-83753992D01*
X120163696Y-83741426D01*
X120058596Y-83726091D01*
X119984978Y-83703244D01*
X119925220Y-83668142D01*
X119887367Y-83638114D01*
X119707784Y-83513335D01*
X119476644Y-83399286D01*
X119190311Y-83294660D01*
X118845148Y-83198153D01*
X118437519Y-83108456D01*
X118384100Y-83098063D01*
X117984322Y-83015474D01*
X117648841Y-82933385D01*
X117375215Y-82850913D01*
X117161003Y-82767176D01*
X117003763Y-82681292D01*
X116901051Y-82592379D01*
X116872490Y-82552048D01*
X116816472Y-82433903D01*
X116765855Y-82291047D01*
X116729371Y-82151648D01*
X116715744Y-82046386D01*
X116699053Y-81990010D01*
X116645457Y-81912526D01*
X116549288Y-81806793D01*
X116440443Y-81699511D01*
X116309439Y-81570859D01*
X116225248Y-81472319D01*
X116185373Y-81389009D01*
X116187317Y-81306045D01*
X116228583Y-81208543D01*
X116306676Y-81081620D01*
X116330657Y-81045072D01*
X116410988Y-80918769D01*
X116485764Y-80793844D01*
X116539153Y-80696770D01*
X116540235Y-80694612D01*
X116695067Y-80310858D01*
X116793275Y-79895290D01*
X116834710Y-79451680D01*
X116819228Y-78983800D01*
X116746680Y-78495422D01*
X116642235Y-78074507D01*
X116527318Y-77737126D01*
X116387585Y-77440020D01*
X116210559Y-77160167D01*
X116005966Y-76900415D01*
X115685076Y-76553006D01*
X115363815Y-76265888D01*
X115033586Y-76033105D01*
X114685791Y-75848704D01*
X114311832Y-75706729D01*
X114259129Y-75690565D01*
X113875902Y-75589143D01*
X113518248Y-75524318D01*
X113175231Y-75497065D01*
X112835911Y-75508359D01*
X112489351Y-75559176D01*
X112124614Y-75650490D01*
X111730760Y-75783277D01*
X111308147Y-75953662D01*
X111118439Y-76042211D01*
X110988977Y-76120606D01*
X110914792Y-76192945D01*
X110890915Y-76263326D01*
X110894990Y-76294441D01*
X110948400Y-76373796D01*
X111058423Y-76419435D01*
X111225522Y-76431490D01*
X111351458Y-76422860D01*
X111628574Y-76397723D01*
X111906153Y-76380446D01*
X112168301Y-76371527D01*
X112399123Y-76371462D01*
X112582727Y-76380749D01*
X112609856Y-76383488D01*
X112823596Y-76423608D01*
X113073666Y-76497726D01*
X113342860Y-76599956D01*
X113613976Y-76724416D01*
X113629347Y-76732167D01*
X113764037Y-76818004D01*
X113922479Y-76947039D01*
X114091681Y-77106741D01*
X114258652Y-77284577D01*
X114410399Y-77468014D01*
X114457053Y-77530589D01*
X114613083Y-77799859D01*
X114730061Y-78119877D01*
X114806910Y-78486494D01*
X114842557Y-78895560D01*
X114845065Y-79028268D01*
X114819855Y-79318472D01*
X114745178Y-79635363D01*
X114625676Y-79966533D01*
X114465992Y-80299575D01*
X114270769Y-80622083D01*
X114222623Y-80691642D01*
X114030956Y-80910561D01*
X113783449Y-81110730D01*
X113489807Y-81286050D01*
X113159734Y-81430426D01*
X112926939Y-81505717D01*
X112768805Y-81545980D01*
X112625024Y-81571367D01*
X112470663Y-81584860D01*
X112280789Y-81589440D01*
X112226019Y-81589543D01*
X111999802Y-81585478D01*
X111808239Y-81571029D01*
X111634365Y-81542022D01*
X111461213Y-81494282D01*
X111271816Y-81423634D01*
X111049208Y-81325903D01*
X110931781Y-81271079D01*
X110715866Y-81172049D01*
X110549034Y-81104086D01*
X110422112Y-81065663D01*
X110325926Y-81055255D01*
X110251303Y-81071335D01*
X110189069Y-81112379D01*
X110159041Y-81142546D01*
X110125441Y-81191870D01*
X110119692Y-81250490D01*
X110139567Y-81344387D01*
X110141200Y-81350500D01*
X110230813Y-81558507D01*
X110386000Y-81761441D01*
X110605721Y-81958595D01*
X110888938Y-82149261D01*
X111234614Y-82332730D01*
X111641710Y-82508295D01*
X112059133Y-82658753D01*
X112426282Y-82780822D01*
X112521616Y-82963287D01*
X112616951Y-83145752D01*
X113406110Y-83551662D01*
X113721954Y-83714273D01*
X113983643Y-83849584D01*
X114196462Y-83960680D01*
X114365695Y-84050642D01*
X114496625Y-84122557D01*
X114594538Y-84179507D01*
X114664716Y-84224576D01*
X114712445Y-84260849D01*
X114743008Y-84291410D01*
X114761690Y-84319342D01*
X114773773Y-84347729D01*
X114774721Y-84350421D01*
X114788791Y-84427158D01*
X114765016Y-84482497D01*
X114696870Y-84519338D01*
X114577830Y-84540585D01*
X114401371Y-84549138D01*
X114326779Y-84549671D01*
X114096795Y-84556476D01*
X113813679Y-84575974D01*
X113489552Y-84606787D01*
X113136536Y-84647539D01*
X112766754Y-84696854D01*
X112392327Y-84753354D01*
X112097032Y-84802900D01*
X111732665Y-84874617D01*
X111372218Y-84961924D01*
X111004815Y-85068363D01*
X110619578Y-85197477D01*
X110205632Y-85352809D01*
X109752100Y-85537900D01*
X109472405Y-85657772D01*
X108945431Y-85903308D01*
X108436530Y-86175228D01*
X107931409Y-86482032D01*
X107415774Y-86832216D01*
X107068625Y-87086805D01*
X106756943Y-87335682D01*
X106444470Y-87614687D01*
X106124354Y-87930678D01*
X105789741Y-88290510D01*
X105433776Y-88701039D01*
X105325795Y-88830289D01*
X105202773Y-88976413D01*
X105111987Y-89077491D01*
X105044872Y-89141312D01*
X104992865Y-89175665D01*
X104947401Y-89188338D01*
X104931265Y-89189093D01*
X104854384Y-89174587D01*
X104819753Y-89122342D01*
X104817732Y-89113994D01*
X104808481Y-89056778D01*
X104793335Y-88945945D01*
X104773932Y-88794208D01*
X104751907Y-88614277D01*
X104735003Y-88471484D01*
X104719550Y-88333647D01*
X104704972Y-88190787D01*
X104690831Y-88036570D01*
X104676691Y-87864658D01*
X104662114Y-87668716D01*
X104646663Y-87442410D01*
X104629901Y-87179401D01*
X104611390Y-86873356D01*
X104590694Y-86517938D01*
X104567375Y-86106811D01*
X104548448Y-85767936D01*
X104546553Y-85636317D01*
X104551482Y-85447714D01*
X104562485Y-85211464D01*
X104578810Y-84936907D01*
X104599704Y-84633380D01*
X104624417Y-84310222D01*
X104652197Y-83976771D01*
X104682292Y-83642367D01*
X104713951Y-83316346D01*
X104746422Y-83008048D01*
X104778953Y-82726810D01*
X104810792Y-82481972D01*
X104815756Y-82446911D01*
X104859862Y-82167209D01*
X104918861Y-81835053D01*
X104990148Y-81462412D01*
X105071120Y-81061253D01*
X105159170Y-80643543D01*
X105251694Y-80221251D01*
X105346088Y-79806342D01*
X105439748Y-79410785D01*
X105530067Y-79046548D01*
X105614443Y-78725597D01*
X105664607Y-78546752D01*
X105804638Y-78078815D01*
X105949432Y-77624093D01*
X106095965Y-77190923D01*
X106241209Y-76787639D01*
X106382139Y-76422577D01*
X106515729Y-76104072D01*
X106638954Y-75840461D01*
X106666844Y-75785914D01*
X106733118Y-75664489D01*
X106813853Y-75527409D01*
X106912386Y-75369695D01*
X107032051Y-75186372D01*
X107176184Y-74972463D01*
X107348120Y-74722991D01*
X107551196Y-74432980D01*
X107788746Y-74097452D01*
X107953129Y-73866728D01*
X108187839Y-73538284D01*
X108389659Y-73257104D01*
X108564256Y-73015957D01*
X108717297Y-72807616D01*
X108854451Y-72624852D01*
X108981384Y-72460435D01*
X109103765Y-72307137D01*
X109227261Y-72157729D01*
X109357540Y-72004982D01*
X109500270Y-71841666D01*
X109661117Y-71660555D01*
X109835504Y-71465834D01*
X110055296Y-71219839D01*
X110288651Y-70956738D01*
X110524931Y-70688657D01*
X110753495Y-70427723D01*
X110963705Y-70186065D01*
X111144919Y-69975807D01*
X111219739Y-69888115D01*
X111741115Y-69310978D01*
X112324615Y-68733014D01*
X112965765Y-68157983D01*
X113660092Y-67589648D01*
X114403123Y-67031772D01*
X115190386Y-66488117D01*
X115509554Y-66280045D01*
X115955772Y-65996793D01*
X116359281Y-65747791D01*
X116730940Y-65527455D01*
X117081605Y-65330201D01*
X117422135Y-65150444D01*
X117763389Y-64982601D01*
X118116223Y-64821088D01*
X118491496Y-64660320D01*
X118900066Y-64494714D01*
X119236648Y-64363293D01*
X119807293Y-64150072D01*
X120355398Y-63960051D01*
X120891863Y-63790536D01*
X121427590Y-63638833D01*
X121973480Y-63502247D01*
X122540434Y-63378085D01*
X123139354Y-63263653D01*
X123781140Y-63156256D01*
X124476695Y-63053201D01*
X124616118Y-63033849D01*
X125743759Y-62878856D01*
X126878581Y-62879859D01*
G37*
G36*
X115724420Y-89032067D02*
G01*
X116276469Y-89053042D01*
X116809141Y-89092385D01*
X117308833Y-89149739D01*
X117761944Y-89224746D01*
X117894005Y-89252225D01*
X118175504Y-89315513D01*
X118398241Y-89370188D01*
X118569034Y-89420115D01*
X118694698Y-89469162D01*
X118782049Y-89521193D01*
X118837904Y-89580076D01*
X118869079Y-89649677D01*
X118882390Y-89733862D01*
X118884757Y-89814194D01*
X118876600Y-89905607D01*
X118853444Y-90052538D01*
X118817266Y-90245947D01*
X118770041Y-90476792D01*
X118713745Y-90736032D01*
X118650354Y-91014624D01*
X118581842Y-91303528D01*
X118510187Y-91593702D01*
X118437362Y-91876105D01*
X118419666Y-91942706D01*
X118356457Y-92199280D01*
X118294821Y-92486563D01*
X118237014Y-92790498D01*
X118185290Y-93097029D01*
X118141905Y-93392101D01*
X118109115Y-93661657D01*
X118089176Y-93891640D01*
X118083996Y-94034479D01*
X118081051Y-94094012D01*
X118070553Y-94159132D01*
X118049677Y-94237086D01*
X118015600Y-94335120D01*
X117965497Y-94460482D01*
X117896543Y-94620418D01*
X117805915Y-94822175D01*
X117690788Y-95073000D01*
X117617924Y-95230354D01*
X117518029Y-95449512D01*
X117404648Y-95704491D01*
X117289227Y-95969189D01*
X117183208Y-96217501D01*
X117143070Y-96313439D01*
X117046329Y-96541715D01*
X116931500Y-96805115D01*
X116809642Y-97078707D01*
X116691815Y-97337562D01*
X116626453Y-97477985D01*
X116472616Y-97805745D01*
X116340901Y-98088726D01*
X116224440Y-98342276D01*
X116116359Y-98581744D01*
X116009790Y-98822480D01*
X115897861Y-99079834D01*
X115773701Y-99369153D01*
X115652927Y-99652825D01*
X115543785Y-99907690D01*
X115430242Y-100169111D01*
X115318575Y-100422890D01*
X115215067Y-100654834D01*
X115125996Y-100850745D01*
X115069327Y-100972050D01*
X114973100Y-101176749D01*
X114868388Y-101403874D01*
X114767594Y-101626287D01*
X114683119Y-101816851D01*
X114680368Y-101823167D01*
X114622490Y-101949746D01*
X114539753Y-102121960D01*
X114438034Y-102328327D01*
X114323208Y-102557368D01*
X114201150Y-102797603D01*
X114077738Y-103037552D01*
X113958846Y-103265736D01*
X113850351Y-103470674D01*
X113758128Y-103640886D01*
X113688053Y-103764893D01*
X113677039Y-103783427D01*
X113621689Y-103875397D01*
X113474576Y-103770968D01*
X113216830Y-103559076D01*
X113016597Y-103331516D01*
X112972375Y-103266860D01*
X112902475Y-103121021D01*
X112893709Y-102987267D01*
X112945770Y-102851583D01*
X112962698Y-102824142D01*
X112991287Y-102762717D01*
X113030535Y-102655732D01*
X113073722Y-102522078D01*
X113091830Y-102461115D01*
X113134260Y-102298356D01*
X113160367Y-102150306D01*
X113173565Y-101990037D01*
X113177266Y-101790622D01*
X113177267Y-101787166D01*
X113175162Y-101613009D01*
X113166354Y-101474355D01*
X113147100Y-101346990D01*
X113113660Y-101206696D01*
X113062292Y-101029257D01*
X113057946Y-101014882D01*
X112950298Y-100684532D01*
X112845990Y-100415127D01*
X112745840Y-100208599D01*
X112661822Y-100080431D01*
X112564006Y-99982054D01*
X112424944Y-99872566D01*
X112265224Y-99766013D01*
X112105432Y-99676438D01*
X112002147Y-99630436D01*
X111856782Y-99589725D01*
X111704049Y-99570536D01*
X111562601Y-99572870D01*
X111451090Y-99596727D01*
X111396763Y-99630420D01*
X111342715Y-99717666D01*
X111343316Y-99803754D01*
X111401095Y-99892162D01*
X111518583Y-99986369D01*
X111698309Y-100089852D01*
X111749748Y-100115843D01*
X111914132Y-100199158D01*
X112032967Y-100266689D01*
X112121444Y-100330340D01*
X112194755Y-100402014D01*
X112268092Y-100493617D01*
X112315765Y-100559361D01*
X112432592Y-100731026D01*
X112511607Y-100870672D01*
X112559599Y-100995952D01*
X112583353Y-101124517D01*
X112589661Y-101271616D01*
X112583659Y-101430385D01*
X112562222Y-101550042D01*
X112520198Y-101657430D01*
X112512825Y-101672141D01*
X112433476Y-101799036D01*
X112327332Y-101931875D01*
X112212035Y-102051173D01*
X112105223Y-102137445D01*
X112075822Y-102154840D01*
X111921874Y-102209501D01*
X111759282Y-102225815D01*
X111616270Y-102201283D01*
X111604434Y-102196614D01*
X111536631Y-102154888D01*
X111430033Y-102073089D01*
X111292738Y-101958648D01*
X111132848Y-101818999D01*
X110958461Y-101661574D01*
X110777679Y-101493806D01*
X110598600Y-101323129D01*
X110429324Y-101156975D01*
X110277952Y-101002776D01*
X110152584Y-100867966D01*
X110135196Y-100848371D01*
X109690523Y-100319415D01*
X109234013Y-99730243D01*
X108768983Y-99085648D01*
X108298751Y-98390425D01*
X107826635Y-97649369D01*
X107355953Y-96867274D01*
X107229078Y-96648883D01*
X107129325Y-96473195D01*
X107014891Y-96267128D01*
X106890038Y-96038775D01*
X106759029Y-95796231D01*
X106626126Y-95547590D01*
X106495593Y-95300945D01*
X106371690Y-95064392D01*
X106258681Y-94846023D01*
X106160828Y-94653933D01*
X106082394Y-94496217D01*
X106027641Y-94380968D01*
X106001038Y-94316936D01*
X105969862Y-94112358D01*
X106004787Y-93906121D01*
X106105313Y-93701069D01*
X106111213Y-93692150D01*
X106238010Y-93518946D01*
X106408552Y-93310637D01*
X106615310Y-93074859D01*
X106850751Y-92819250D01*
X107107346Y-92551444D01*
X107377564Y-92279080D01*
X107653873Y-92009794D01*
X107928744Y-91751221D01*
X108194645Y-91511000D01*
X108444045Y-91296766D01*
X108592240Y-91176254D01*
X109219172Y-90721513D01*
X109882218Y-90320384D01*
X110574960Y-89976229D01*
X111290980Y-89692411D01*
X111642077Y-89578288D01*
X111863551Y-89515460D01*
X112127872Y-89447029D01*
X112418426Y-89376733D01*
X112718598Y-89308309D01*
X113011771Y-89245497D01*
X113281332Y-89192035D01*
X113510664Y-89151660D01*
X113594481Y-89139014D01*
X114088024Y-89082934D01*
X114616596Y-89046654D01*
X115166595Y-89029818D01*
X115724420Y-89032067D01*
G37*
G36*
X153292555Y-87942337D02*
G01*
X153346649Y-87973493D01*
X153367733Y-87992502D01*
X153383769Y-88019041D01*
X153395381Y-88061543D01*
X153403192Y-88128438D01*
X153407825Y-88228160D01*
X153409903Y-88369138D01*
X153410049Y-88559807D01*
X153408887Y-88808596D01*
X153408849Y-88815204D01*
X153404869Y-89086316D01*
X153396438Y-89379261D01*
X153384447Y-89672731D01*
X153369786Y-89945419D01*
X153353346Y-90176019D01*
X153350654Y-90207095D01*
X153332801Y-90407877D01*
X153310636Y-90658454D01*
X153285628Y-90942120D01*
X153259251Y-91242168D01*
X153232974Y-91541892D01*
X153212524Y-91775821D01*
X153189202Y-92037667D01*
X153165800Y-92290729D01*
X153143433Y-92523653D01*
X153123216Y-92725085D01*
X153106264Y-92883672D01*
X153093692Y-92988060D01*
X153092859Y-92994086D01*
X153060967Y-93178260D01*
X153011178Y-93411567D01*
X152947018Y-93679921D01*
X152872018Y-93969234D01*
X152789704Y-94265418D01*
X152703605Y-94554384D01*
X152695808Y-94579500D01*
X152472084Y-95306235D01*
X152247890Y-96052283D01*
X152066334Y-96668857D01*
X151967258Y-97000760D01*
X151876744Y-97285119D01*
X151788143Y-97539386D01*
X151694803Y-97781016D01*
X151590074Y-98027461D01*
X151467305Y-98296175D01*
X151361713Y-98518002D01*
X151269797Y-98702339D01*
X151153316Y-98925925D01*
X151018339Y-99177946D01*
X150870939Y-99447585D01*
X150717185Y-99724025D01*
X150563149Y-99996452D01*
X150414901Y-100254049D01*
X150278512Y-100486000D01*
X150160052Y-100681488D01*
X150065592Y-100829699D01*
X150057081Y-100842423D01*
X149776207Y-101239516D01*
X149447451Y-101668153D01*
X149076880Y-102120562D01*
X148875103Y-102356373D01*
X148700189Y-102558122D01*
X148509971Y-102777801D01*
X148319209Y-102998346D01*
X148142661Y-103202696D01*
X147995083Y-103373789D01*
X147994578Y-103374375D01*
X147844130Y-103548329D01*
X147685297Y-103730819D01*
X147532749Y-103905066D01*
X147401155Y-104054290D01*
X147344841Y-104117585D01*
X147095790Y-104371173D01*
X146793550Y-104636577D01*
X146448628Y-104905639D01*
X146071530Y-105170205D01*
X145672765Y-105422118D01*
X145636531Y-105443678D01*
X145522469Y-105512152D01*
X145363931Y-105608668D01*
X145172992Y-105725803D01*
X144961731Y-105856134D01*
X144742224Y-105992239D01*
X144601840Y-106079664D01*
X144345324Y-106238232D01*
X144137589Y-106362386D01*
X143971908Y-106454795D01*
X143841552Y-106518124D01*
X143739795Y-106555041D01*
X143659908Y-106568214D01*
X143595166Y-106560309D01*
X143538839Y-106533994D01*
X143509253Y-106512831D01*
X143444991Y-106449591D01*
X143360623Y-106348835D01*
X143264355Y-106222546D01*
X143164393Y-106082707D01*
X143068944Y-105941299D01*
X142986215Y-105810305D01*
X142924412Y-105701707D01*
X142891741Y-105627488D01*
X142888891Y-105607046D01*
X142908772Y-105573608D01*
X142963582Y-105523936D01*
X143058004Y-105454798D01*
X143196719Y-105362961D01*
X143384411Y-105245193D01*
X143625763Y-105098260D01*
X143626747Y-105097667D01*
X143995797Y-104872288D01*
X144306705Y-104675991D01*
X144560920Y-104507774D01*
X144759892Y-104366637D01*
X144905071Y-104251581D01*
X144997908Y-104161604D01*
X145015384Y-104139876D01*
X145070046Y-104020763D01*
X145096316Y-103865943D01*
X145093815Y-103700304D01*
X145062164Y-103548730D01*
X145025602Y-103469253D01*
X144911832Y-103323032D01*
X144745033Y-103159526D01*
X144534343Y-102985770D01*
X144288901Y-102808795D01*
X144017846Y-102635635D01*
X143734034Y-102475287D01*
X143569638Y-102385313D01*
X143457699Y-102315522D01*
X143389626Y-102259101D01*
X143356825Y-102209236D01*
X143350197Y-102170933D01*
X143372761Y-102102755D01*
X143440992Y-101995507D01*
X143555703Y-101848221D01*
X143717705Y-101659928D01*
X143927810Y-101429657D01*
X144186829Y-101156439D01*
X144283187Y-101056677D01*
X144489455Y-100842675D01*
X144717443Y-100603934D01*
X144951477Y-100357012D01*
X145175888Y-100118463D01*
X145375004Y-99904846D01*
X145439243Y-99835316D01*
X145605710Y-99654557D01*
X145805436Y-99437634D01*
X146026486Y-99197512D01*
X146256926Y-98947157D01*
X146484821Y-98699534D01*
X146698237Y-98467607D01*
X146713289Y-98451248D01*
X147359438Y-97758787D01*
X147971176Y-97123349D01*
X148548619Y-96544825D01*
X149091880Y-96023106D01*
X149601074Y-95558080D01*
X150076313Y-95149638D01*
X150438817Y-94858364D01*
X150506025Y-94817601D01*
X150611815Y-94765233D01*
X150723049Y-94716879D01*
X150996481Y-94584033D01*
X151237335Y-94417712D01*
X151451284Y-94211410D01*
X151644006Y-93958621D01*
X151821175Y-93652839D01*
X151988468Y-93287558D01*
X152004854Y-93247553D01*
X152047124Y-93138659D01*
X152083904Y-93030922D01*
X152117249Y-92914882D01*
X152149211Y-92781083D01*
X152181842Y-92620067D01*
X152217197Y-92422376D01*
X152257327Y-92178553D01*
X152304287Y-91879139D01*
X152310179Y-91840965D01*
X152355089Y-91541550D01*
X152388354Y-91297056D01*
X152410611Y-91096788D01*
X152422495Y-90930053D01*
X152424642Y-90786155D01*
X152417688Y-90654402D01*
X152402268Y-90524098D01*
X152392251Y-90460158D01*
X152304138Y-90087676D01*
X152167105Y-89750612D01*
X151975862Y-89439241D01*
X151725115Y-89143834D01*
X151619383Y-89039639D01*
X151470057Y-88893958D01*
X151369006Y-88782609D01*
X151312131Y-88698537D01*
X151295330Y-88634687D01*
X151314503Y-88584004D01*
X151339723Y-88558495D01*
X151399612Y-88524839D01*
X151512751Y-88475591D01*
X151668463Y-88414373D01*
X151856068Y-88344808D01*
X152064888Y-88270518D01*
X152284245Y-88195125D01*
X152503460Y-88122251D01*
X152711855Y-88055520D01*
X152898751Y-87998553D01*
X153053469Y-87954973D01*
X153165331Y-87928403D01*
X153216582Y-87921823D01*
X153292555Y-87942337D01*
G37*
G36*
X141169029Y-82899431D02*
G01*
X141171915Y-82903304D01*
X141205285Y-82973997D01*
X141230705Y-83070524D01*
X141232038Y-83078531D01*
X141277954Y-83307472D01*
X141343000Y-83505502D01*
X141439365Y-83708103D01*
X141463473Y-83752302D01*
X141535092Y-83887819D01*
X141616630Y-84052475D01*
X141703127Y-84235045D01*
X141789622Y-84424302D01*
X141871153Y-84609021D01*
X141942759Y-84777975D01*
X141999481Y-84919938D01*
X142036355Y-85023685D01*
X142048489Y-85076114D01*
X142022268Y-85147086D01*
X141968515Y-85201322D01*
X141899725Y-85282642D01*
X141872247Y-85396977D01*
X141882043Y-85528359D01*
X141925075Y-85660818D01*
X141997305Y-85778386D01*
X142094695Y-85865092D01*
X142142293Y-85888527D01*
X142235523Y-85898401D01*
X142384301Y-85879321D01*
X142453003Y-85864885D01*
X142580396Y-85840776D01*
X142690919Y-85828402D01*
X142760887Y-85830403D01*
X142761414Y-85830533D01*
X142821303Y-85856846D01*
X142919338Y-85911689D01*
X143038866Y-85985466D01*
X143101559Y-86026505D01*
X143258878Y-86128867D01*
X143434919Y-86239282D01*
X143596218Y-86336831D01*
X143623781Y-86352966D01*
X143783064Y-86454750D01*
X143878359Y-86537542D01*
X143909774Y-86600990D01*
X143877420Y-86644738D01*
X143781405Y-86668434D01*
X143621840Y-86671724D01*
X143526779Y-86666261D01*
X143364496Y-86658792D01*
X143205943Y-86663331D01*
X143028720Y-86681428D01*
X142810431Y-86714637D01*
X142797637Y-86716790D01*
X142518431Y-86764822D01*
X142293421Y-86806344D01*
X142110775Y-86844650D01*
X141958660Y-86883032D01*
X141825242Y-86924786D01*
X141698688Y-86973206D01*
X141567166Y-87031584D01*
X141431012Y-87097211D01*
X141248804Y-87181655D01*
X141055044Y-87262638D01*
X140873805Y-87330562D01*
X140738297Y-87373409D01*
X140588365Y-87417481D01*
X140446489Y-87465368D01*
X140337287Y-87508584D01*
X140314069Y-87519629D01*
X140195557Y-87563394D01*
X140070160Y-87586100D01*
X140046445Y-87586990D01*
X139955063Y-87577986D01*
X139876033Y-87543005D01*
X139784251Y-87470096D01*
X139766021Y-87453482D01*
X139652613Y-87367126D01*
X139539689Y-87323536D01*
X139419662Y-87324649D01*
X139284944Y-87372406D01*
X139127946Y-87468746D01*
X138941081Y-87615608D01*
X138860973Y-87684793D01*
X138755616Y-87772825D01*
X138659668Y-87844875D01*
X138591300Y-87887448D01*
X138583439Y-87890895D01*
X138494308Y-87908447D01*
X138353647Y-87916037D01*
X138175886Y-87913963D01*
X137975454Y-87902523D01*
X137766781Y-87882014D01*
X137692773Y-87872517D01*
X137549080Y-87851277D01*
X137423179Y-87829885D01*
X137335269Y-87811879D01*
X137315334Y-87806438D01*
X137255624Y-87763741D01*
X137249102Y-87704042D01*
X137291862Y-87644930D01*
X137359002Y-87609855D01*
X137489976Y-87550506D01*
X137658187Y-87447494D01*
X137856079Y-87306654D01*
X138076097Y-87133818D01*
X138310686Y-86934819D01*
X138552291Y-86715492D01*
X138698201Y-86575858D01*
X138854086Y-86423136D01*
X138981662Y-86295650D01*
X139088842Y-86183576D01*
X139183537Y-86077093D01*
X139273659Y-85966379D01*
X139367120Y-85841610D01*
X139471832Y-85692964D01*
X139595707Y-85510620D01*
X139746658Y-85284755D01*
X139787058Y-85224084D01*
X140037693Y-84842935D01*
X140250142Y-84509024D01*
X140427258Y-84216940D01*
X140571896Y-83961275D01*
X140686908Y-83736617D01*
X140775149Y-83537555D01*
X140839473Y-83358681D01*
X140882733Y-83194583D01*
X140896724Y-83120263D01*
X140926600Y-83011905D01*
X140983225Y-82941028D01*
X141025504Y-82911658D01*
X141097004Y-82871981D01*
X141136938Y-82868357D01*
X141169029Y-82899431D01*
G37*
G36*
X151654925Y-79818591D02*
G01*
X151695983Y-79848410D01*
X151736278Y-79906180D01*
X151778555Y-79998501D01*
X151825559Y-80131976D01*
X151880035Y-80313208D01*
X151944727Y-80548798D01*
X151991934Y-80727989D01*
X152057150Y-80974824D01*
X152134559Y-81262478D01*
X152217802Y-81567646D01*
X152300521Y-81867021D01*
X152376357Y-82137300D01*
X152378971Y-82146517D01*
X152506740Y-82609626D01*
X152617743Y-83041799D01*
X152715601Y-83460051D01*
X152803936Y-83881396D01*
X152886369Y-84322849D01*
X152966522Y-84801424D01*
X153026048Y-85186482D01*
X153074428Y-85513614D01*
X153112005Y-85781080D01*
X153139203Y-85995016D01*
X153156446Y-86161559D01*
X153164159Y-86286846D01*
X153162765Y-86377014D01*
X153152689Y-86438200D01*
X153134355Y-86476540D01*
X153116380Y-86493378D01*
X153090295Y-86509373D01*
X153062612Y-86513685D01*
X153013960Y-86504350D01*
X152924967Y-86479407D01*
X152896058Y-86471054D01*
X152765540Y-86430522D01*
X152632220Y-86384976D01*
X152606488Y-86375531D01*
X152359480Y-86295586D01*
X152098926Y-86237698D01*
X151811143Y-86199938D01*
X151482450Y-86180379D01*
X151193824Y-86176507D01*
X150900203Y-86182082D01*
X150601028Y-86196732D01*
X150311679Y-86219108D01*
X150047536Y-86247861D01*
X149823979Y-86281644D01*
X149700197Y-86307482D01*
X149653287Y-86312840D01*
X149631467Y-86287759D01*
X149625305Y-86216558D01*
X149625099Y-86182618D01*
X149642174Y-86055349D01*
X149685650Y-85918971D01*
X149700197Y-85886950D01*
X149759691Y-85700749D01*
X149766267Y-85486954D01*
X149719998Y-85239383D01*
X149708385Y-85198547D01*
X149670010Y-85044855D01*
X149634659Y-84859856D01*
X149604230Y-84659611D01*
X149580623Y-84460182D01*
X149565737Y-84277628D01*
X149561471Y-84128013D01*
X149569725Y-84027395D01*
X149569835Y-84026887D01*
X149593223Y-83956350D01*
X149638188Y-83875930D01*
X149711759Y-83775805D01*
X149820963Y-83646157D01*
X149928126Y-83526230D01*
X150108142Y-83318697D01*
X150295562Y-83086415D01*
X150482886Y-82840086D01*
X150662612Y-82590408D01*
X150827241Y-82348082D01*
X150969273Y-82123807D01*
X151081206Y-81928284D01*
X151152646Y-81779369D01*
X151283261Y-81418417D01*
X151390152Y-81037948D01*
X151469130Y-80657373D01*
X151516008Y-80296102D01*
X151527596Y-80041343D01*
X151528873Y-79920044D01*
X151536191Y-79850879D01*
X151554784Y-79819229D01*
X151589882Y-79810480D01*
X151610360Y-79810118D01*
X151654925Y-79818591D01*
G37*
G36*
X131914311Y-91236960D02*
G01*
X132214379Y-91247344D01*
X132534183Y-91261601D01*
X132864631Y-91279067D01*
X133196632Y-91299077D01*
X133521092Y-91320966D01*
X133828921Y-91344069D01*
X134111024Y-91367723D01*
X134358312Y-91391261D01*
X134561691Y-91414020D01*
X134712068Y-91435334D01*
X134765225Y-91445390D01*
X134868619Y-91468571D01*
X134949764Y-91492993D01*
X135011593Y-91526509D01*
X135057043Y-91576967D01*
X135089047Y-91652218D01*
X135110543Y-91760112D01*
X135124463Y-91908499D01*
X135133744Y-92105228D01*
X135141321Y-92358149D01*
X135144036Y-92458546D01*
X135161077Y-92888566D01*
X135187505Y-93255278D01*
X135223898Y-93561546D01*
X135270835Y-93810235D01*
X135328893Y-94004208D01*
X135398651Y-94146328D01*
X135480688Y-94239458D01*
X135507399Y-94258041D01*
X135587507Y-94296701D01*
X135662951Y-94306006D01*
X135741738Y-94281222D01*
X135831879Y-94217613D01*
X135941383Y-94110447D01*
X136078260Y-93954989D01*
X136135255Y-93886921D01*
X136242083Y-93763904D01*
X136343689Y-93656852D01*
X136427211Y-93578776D01*
X136472545Y-93545824D01*
X136538888Y-93515918D01*
X136569978Y-93524155D01*
X136587245Y-93570860D01*
X136600317Y-93677788D01*
X136599550Y-93839366D01*
X136586208Y-94045220D01*
X136561552Y-94284977D01*
X136526848Y-94548264D01*
X136483357Y-94824706D01*
X136432344Y-95103931D01*
X136375072Y-95375566D01*
X136359019Y-95444905D01*
X136238186Y-95882116D01*
X136087241Y-96305866D01*
X135911128Y-96706392D01*
X135714795Y-97073933D01*
X135503186Y-97398728D01*
X135281246Y-97671014D01*
X135178929Y-97774180D01*
X135034274Y-97907748D01*
X134919981Y-98000906D01*
X134819538Y-98058402D01*
X134716433Y-98084985D01*
X134594156Y-98085404D01*
X134436194Y-98064407D01*
X134271617Y-98035122D01*
X134062509Y-98015898D01*
X133864790Y-98043208D01*
X133728563Y-98086755D01*
X133566523Y-98130031D01*
X133444183Y-98123556D01*
X133364037Y-98067517D01*
X133358359Y-98059067D01*
X133332773Y-97994689D01*
X133302202Y-97882659D01*
X133271318Y-97741378D01*
X133254575Y-97650197D01*
X133201398Y-97347872D01*
X133141557Y-97025294D01*
X133076871Y-96690938D01*
X133009159Y-96353276D01*
X132940241Y-96020782D01*
X132871937Y-95701931D01*
X132806067Y-95405194D01*
X132744450Y-95139046D01*
X132688905Y-94911961D01*
X132641253Y-94732412D01*
X132603312Y-94608873D01*
X132598754Y-94596189D01*
X132507983Y-94397651D01*
X132400564Y-94258666D01*
X132268225Y-94172559D01*
X132102697Y-94132656D01*
X132018660Y-94128033D01*
X131893767Y-94100291D01*
X131804684Y-94017966D01*
X131766871Y-93942615D01*
X131715981Y-93801763D01*
X131652772Y-93613494D01*
X131580511Y-93388787D01*
X131502462Y-93138619D01*
X131421888Y-92873970D01*
X131342056Y-92605818D01*
X131266229Y-92345140D01*
X131197673Y-92102916D01*
X131139652Y-91890124D01*
X131095431Y-91717742D01*
X131068274Y-91596748D01*
X131066606Y-91587802D01*
X131048337Y-91468437D01*
X131048206Y-91390704D01*
X131067787Y-91331572D01*
X131086244Y-91300584D01*
X131142419Y-91214851D01*
X131914311Y-91236960D01*
G37*
G36*
X123246176Y-97104100D02*
G01*
X123279227Y-97176979D01*
X123307833Y-97294326D01*
X123333756Y-97459875D01*
X123358755Y-97677362D01*
X123384594Y-97950521D01*
X123413031Y-98283087D01*
X123442182Y-98634822D01*
X123508244Y-99329509D01*
X123591209Y-100031207D01*
X123689037Y-100727249D01*
X123799688Y-101404968D01*
X123921122Y-102051697D01*
X124051300Y-102654771D01*
X124161536Y-103101737D01*
X124254533Y-103433853D01*
X124368630Y-103806523D01*
X124497110Y-104199618D01*
X124633256Y-104593010D01*
X124770350Y-104966570D01*
X124865139Y-105210118D01*
X124976069Y-105473221D01*
X125113761Y-105777955D01*
X125270521Y-106108777D01*
X125438655Y-106450142D01*
X125610468Y-106786507D01*
X125778267Y-107102329D01*
X125934356Y-107382064D01*
X125974220Y-107450623D01*
X126089413Y-107650569D01*
X126171678Y-107803436D01*
X126225027Y-107917746D01*
X126253474Y-108002022D01*
X126261104Y-108059756D01*
X126261104Y-108180683D01*
X126102563Y-108176534D01*
X126013830Y-108172371D01*
X125874547Y-108163655D01*
X125700675Y-108151478D01*
X125508178Y-108136933D01*
X125409987Y-108129118D01*
X125117984Y-108102048D01*
X124813224Y-108066677D01*
X124486903Y-108021628D01*
X124130213Y-107965525D01*
X123734350Y-107896989D01*
X123290506Y-107814643D01*
X122843339Y-107727704D01*
X122283130Y-107614901D01*
X121787817Y-107510895D01*
X121356166Y-107415374D01*
X120986942Y-107328020D01*
X120678913Y-107248521D01*
X120430844Y-107176562D01*
X120241501Y-107111827D01*
X120109651Y-107054002D01*
X120047243Y-107014567D01*
X120016943Y-106987708D01*
X119997662Y-106957284D01*
X119988530Y-106910839D01*
X119988678Y-106835915D01*
X119997236Y-106720055D01*
X120013336Y-106550802D01*
X120014244Y-106541527D01*
X120028329Y-106382663D01*
X120036209Y-106242948D01*
X120037088Y-106109181D01*
X120030167Y-105968161D01*
X120014651Y-105806687D01*
X119989741Y-105611558D01*
X119954641Y-105369572D01*
X119936041Y-105246679D01*
X119883089Y-104899403D01*
X119981994Y-104545759D01*
X120036857Y-104347745D01*
X120074819Y-104199751D01*
X120097044Y-104087537D01*
X120104697Y-103996859D01*
X120098944Y-103913476D01*
X120080949Y-103823146D01*
X120051877Y-103711626D01*
X120050610Y-103706929D01*
X120020255Y-103585011D01*
X119999397Y-103471224D01*
X119989274Y-103357822D01*
X119991124Y-103237061D01*
X120006186Y-103101194D01*
X120035698Y-102942476D01*
X120080898Y-102753163D01*
X120143025Y-102525508D01*
X120223316Y-102251766D01*
X120323011Y-101924193D01*
X120349246Y-101839027D01*
X120475250Y-101434373D01*
X120586448Y-101086522D01*
X120685767Y-100787922D01*
X120776131Y-100531019D01*
X120860467Y-100308261D01*
X120941699Y-100112094D01*
X121022753Y-99934967D01*
X121106554Y-99769325D01*
X121196027Y-99607615D01*
X121247703Y-99519316D01*
X121303343Y-99433922D01*
X121394159Y-99304197D01*
X121514023Y-99138250D01*
X121656806Y-98944189D01*
X121816378Y-98730125D01*
X121986611Y-98504166D01*
X122161376Y-98274421D01*
X122334543Y-98049000D01*
X122499984Y-97836012D01*
X122651570Y-97643565D01*
X122783172Y-97479769D01*
X122855915Y-97391524D01*
X122952616Y-97276020D01*
X123034305Y-97182576D01*
X123102745Y-97114928D01*
X123159696Y-97076809D01*
X123206920Y-97071955D01*
X123246176Y-97104100D01*
G37*
D10*
X156857500Y-102705818D03*
D11*
X155587500Y-104905523D03*
D12*
X154250000Y-137000000D03*
X154250000Y-144620000D03*
D13*
X116500000Y-142000000D03*
D14*
X119000000Y-142000000D03*
D15*
X145130000Y-125050000D03*
D16*
X145130000Y-126320000D03*
X145130000Y-127590000D03*
D17*
X130570000Y-146195000D03*
D18*
X130570000Y-126195000D03*
D13*
X107950000Y-126300000D03*
D14*
X110450000Y-126300000D03*
D19*
X105110000Y-106410000D03*
D11*
X103313949Y-104613949D03*
D12*
X109190000Y-133000000D03*
X116810000Y-133000000D03*
X103500000Y-136930000D03*
X103500000Y-144550000D03*
D15*
X111940000Y-139320000D03*
D16*
X111940000Y-140590000D03*
X111940000Y-141860000D03*
D12*
X157620000Y-130090000D03*
X157620000Y-122470000D03*
D17*
X106380000Y-149000000D03*
D20*
X108920000Y-149000000D03*
X111460000Y-149000000D03*
X114000000Y-149000000D03*
X116540000Y-149000000D03*
D15*
X116360000Y-125040000D03*
D16*
X116360000Y-126310000D03*
X116360000Y-127580000D03*
D12*
X143690000Y-133000000D03*
X151310000Y-133000000D03*
D13*
X142250000Y-142000000D03*
D14*
X144750000Y-142000000D03*
D12*
X107000000Y-136940000D03*
X107000000Y-144560000D03*
X157640000Y-137000000D03*
X157640000Y-144620000D03*
D13*
X150500000Y-126340000D03*
D14*
X153000000Y-126340000D03*
D21*
X148868439Y-65487834D03*
D11*
X150664490Y-67283885D03*
D17*
X144480000Y-149000000D03*
D20*
X147020000Y-149000000D03*
X149560000Y-149000000D03*
X152100000Y-149000000D03*
X154640000Y-149000000D03*
D12*
X103480000Y-130050000D03*
X103480000Y-122430000D03*
D15*
X150000000Y-139300000D03*
D16*
X150000000Y-140570000D03*
X150000000Y-141840000D03*
D22*
X110150000Y-67380000D03*
D11*
X111946051Y-65583949D03*
M02*
