G04 #@! TF.GenerationSoftware,KiCad,Pcbnew,(6.0.11)*
G04 #@! TF.CreationDate,2023-07-10T16:30:22-05:00*
G04 #@! TF.ProjectId,sailor_moon,7361696c-6f72-45f6-9d6f-6f6e2e6b6963,rev?*
G04 #@! TF.SameCoordinates,Original*
G04 #@! TF.FileFunction,Copper,L1,Top*
G04 #@! TF.FilePolarity,Positive*
%FSLAX46Y46*%
G04 Gerber Fmt 4.6, Leading zero omitted, Abs format (unit mm)*
G04 Created by KiCad (PCBNEW (6.0.11)) date 2023-07-10 16:30:22*
%MOMM*%
%LPD*%
G01*
G04 APERTURE LIST*
G04 Aperture macros list*
%AMRotRect*
0 Rectangle, with rotation*
0 The origin of the aperture is its center*
0 $1 length*
0 $2 width*
0 $3 Rotation angle, in degrees counterclockwise*
0 Add horizontal line*
21,1,$1,$2,0,0,$3*%
G04 Aperture macros list end*
G04 #@! TA.AperFunction,ComponentPad*
%ADD10RotRect,1.800000X1.800000X240.000000*%
G04 #@! TD*
G04 #@! TA.AperFunction,ComponentPad*
%ADD11C,1.800000*%
G04 #@! TD*
G04 #@! TA.AperFunction,ComponentPad*
%ADD12C,1.400000*%
G04 #@! TD*
G04 #@! TA.AperFunction,ComponentPad*
%ADD13R,1.600000X1.600000*%
G04 #@! TD*
G04 #@! TA.AperFunction,ComponentPad*
%ADD14C,1.600000*%
G04 #@! TD*
G04 #@! TA.AperFunction,ComponentPad*
%ADD15R,1.500000X1.050000*%
G04 #@! TD*
G04 #@! TA.AperFunction,ComponentPad*
%ADD16O,1.500000X1.050000*%
G04 #@! TD*
G04 #@! TA.AperFunction,ComponentPad*
%ADD17R,1.700000X1.700000*%
G04 #@! TD*
G04 #@! TA.AperFunction,ComponentPad*
%ADD18C,1.700000*%
G04 #@! TD*
G04 #@! TA.AperFunction,ComponentPad*
%ADD19RotRect,1.800000X1.800000X135.000000*%
G04 #@! TD*
G04 #@! TA.AperFunction,ComponentPad*
%ADD20O,1.700000X1.700000*%
G04 #@! TD*
G04 #@! TA.AperFunction,ComponentPad*
%ADD21RotRect,1.800000X1.800000X315.000000*%
G04 #@! TD*
G04 #@! TA.AperFunction,ComponentPad*
%ADD22RotRect,1.800000X1.800000X45.000000*%
G04 #@! TD*
G04 #@! TA.AperFunction,Conductor*
%ADD23C,0.300000*%
G04 #@! TD*
G04 APERTURE END LIST*
D10*
X156857500Y-102705818D03*
D11*
X155587500Y-104905523D03*
D12*
X154250000Y-137000000D03*
X154250000Y-144620000D03*
D13*
X116500000Y-142000000D03*
D14*
X119000000Y-142000000D03*
D15*
X145130000Y-125050000D03*
D16*
X145130000Y-126320000D03*
X145130000Y-127590000D03*
D17*
X130570000Y-146195000D03*
D18*
X130570000Y-126195000D03*
D13*
X107950000Y-126300000D03*
D14*
X110450000Y-126300000D03*
D19*
X105110000Y-106410000D03*
D11*
X103313949Y-104613949D03*
D12*
X109190000Y-133000000D03*
X116810000Y-133000000D03*
X103500000Y-136930000D03*
X103500000Y-144550000D03*
D15*
X111940000Y-139320000D03*
D16*
X111940000Y-140590000D03*
X111940000Y-141860000D03*
D12*
X157620000Y-130090000D03*
X157620000Y-122470000D03*
D17*
X106380000Y-149000000D03*
D20*
X108920000Y-149000000D03*
X111460000Y-149000000D03*
X114000000Y-149000000D03*
X116540000Y-149000000D03*
D15*
X116360000Y-125040000D03*
D16*
X116360000Y-126310000D03*
X116360000Y-127580000D03*
D12*
X143690000Y-133000000D03*
X151310000Y-133000000D03*
D13*
X142250000Y-142000000D03*
D14*
X144750000Y-142000000D03*
D12*
X107000000Y-136940000D03*
X107000000Y-144560000D03*
X157640000Y-137000000D03*
X157640000Y-144620000D03*
D13*
X150500000Y-126340000D03*
D14*
X153000000Y-126340000D03*
D21*
X148868439Y-65487834D03*
D11*
X150664490Y-67283885D03*
D17*
X144480000Y-149000000D03*
D20*
X147020000Y-149000000D03*
X149560000Y-149000000D03*
X152100000Y-149000000D03*
X154640000Y-149000000D03*
D12*
X103480000Y-130050000D03*
X103480000Y-122430000D03*
D15*
X150000000Y-139300000D03*
D16*
X150000000Y-140570000D03*
X150000000Y-141840000D03*
D22*
X110150000Y-67380000D03*
D11*
X111946051Y-65583949D03*
D23*
X150500000Y-129020000D02*
X151570000Y-130090000D01*
X145150000Y-126340000D02*
X145130000Y-126320000D01*
X151570000Y-130090000D02*
X157620000Y-130090000D01*
X150500000Y-126340000D02*
X150500000Y-129020000D01*
X157620000Y-136980000D02*
X157640000Y-137000000D01*
X157620000Y-130090000D02*
X157620000Y-136980000D01*
X150500000Y-126340000D02*
X145150000Y-126340000D01*
X151930000Y-139300000D02*
X150000000Y-139300000D01*
X154250000Y-144620000D02*
X152610000Y-142980000D01*
X152610000Y-142980000D02*
X152610000Y-139980000D01*
X157640000Y-144620000D02*
X154250000Y-144620000D01*
X152610000Y-139980000D02*
X151930000Y-139300000D01*
X147180000Y-139070000D02*
X147180000Y-139810000D01*
X150000000Y-140570000D02*
X147940000Y-140570000D01*
X151310000Y-134940000D02*
X147180000Y-139070000D01*
X146800000Y-142000000D02*
X144750000Y-142000000D01*
X147180000Y-141620000D02*
X146800000Y-142000000D01*
X151310000Y-133000000D02*
X151310000Y-134940000D01*
X147940000Y-140570000D02*
X147180000Y-139810000D01*
X147180000Y-139810000D02*
X147180000Y-141620000D01*
X116810000Y-133000000D02*
X116810000Y-137340000D01*
X116810000Y-137340000D02*
X113560000Y-140590000D01*
X113560000Y-140590000D02*
X111940000Y-140590000D01*
X119000000Y-139530000D02*
X116810000Y-137340000D01*
X119000000Y-142000000D02*
X119000000Y-139530000D01*
X109220000Y-143880000D02*
X109220000Y-140070000D01*
X109220000Y-140070000D02*
X109970000Y-139320000D01*
X109970000Y-139320000D02*
X111940000Y-139320000D01*
X107000000Y-144560000D02*
X107020000Y-144580000D01*
X108520000Y-144580000D02*
X109220000Y-143880000D01*
X107020000Y-144580000D02*
X108520000Y-144580000D01*
X106990000Y-144550000D02*
X107000000Y-144560000D01*
X103500000Y-144550000D02*
X106990000Y-144550000D01*
X113040000Y-122810000D02*
X114190000Y-123960000D01*
X114190000Y-125760000D02*
X114740000Y-126310000D01*
X107950000Y-126300000D02*
X107950000Y-128150000D01*
X107950000Y-123820000D02*
X108960000Y-122810000D01*
X114740000Y-126310000D02*
X116360000Y-126310000D01*
X108960000Y-122810000D02*
X113040000Y-122810000D01*
X103480000Y-130050000D02*
X103480000Y-136910000D01*
X114190000Y-123960000D02*
X114190000Y-125760000D01*
X107950000Y-128150000D02*
X106050000Y-130050000D01*
X107950000Y-126300000D02*
X107950000Y-123820000D01*
X103480000Y-136910000D02*
X103500000Y-136930000D01*
X106050000Y-130050000D02*
X103480000Y-130050000D01*
X107120000Y-107060000D02*
X107120000Y-106140000D01*
X105390000Y-104410000D02*
X103517898Y-104410000D01*
X102430000Y-92350000D02*
X102350000Y-90530000D01*
X157600000Y-107040263D02*
X155587500Y-104905523D01*
X111300000Y-68330000D02*
X112000000Y-67610000D01*
X130570000Y-146195000D02*
X116275000Y-146195000D01*
X102090000Y-97730000D02*
X102040000Y-96900000D01*
X103320000Y-102140000D02*
X102980000Y-101170000D01*
X114750000Y-120950000D02*
X111400000Y-120950000D01*
X102350000Y-90530000D02*
X102350000Y-88590000D01*
X136260000Y-128320000D02*
X141570000Y-123010000D01*
X102980000Y-82640000D02*
X103510000Y-80630000D01*
X152010000Y-120000000D02*
X157600000Y-114410000D01*
X124660000Y-140150000D02*
X124660000Y-129570000D01*
X116720000Y-122920000D02*
X114750000Y-120950000D01*
X130570000Y-146195000D02*
X145645000Y-146195000D01*
X112170000Y-67440000D02*
X111946051Y-65583949D01*
X104650000Y-77650000D02*
X105260000Y-76310000D01*
X102210000Y-98550000D02*
X102090000Y-97730000D01*
X103517898Y-104410000D02*
X103313949Y-104613949D01*
X102720000Y-100470000D02*
X102210000Y-98550000D01*
X130570000Y-146195000D02*
X130570000Y-146060000D01*
X106250000Y-74640000D02*
X107230000Y-73210000D01*
X107120000Y-106140000D02*
X105390000Y-104410000D01*
X102440000Y-93530000D02*
X102430000Y-92350000D01*
X102670000Y-84530000D02*
X102980000Y-82640000D01*
X104050000Y-79030000D02*
X104650000Y-77650000D01*
X112000000Y-67610000D02*
X112170000Y-67440000D01*
X102350000Y-94520000D02*
X102430000Y-93970000D01*
X106090000Y-108090000D02*
X107120000Y-107060000D01*
X103510000Y-80630000D02*
X104050000Y-79030000D01*
X105260000Y-76310000D02*
X106250000Y-74640000D01*
X102350000Y-88590000D02*
X102430000Y-86620000D01*
X111400000Y-120950000D02*
X106090000Y-115640000D01*
X130570000Y-146195000D02*
X136260000Y-140505000D01*
X124660000Y-129570000D02*
X118010000Y-122920000D01*
X102430000Y-93970000D02*
X102440000Y-93530000D01*
X147860000Y-120000000D02*
X152010000Y-120000000D01*
X106090000Y-115640000D02*
X106090000Y-108090000D01*
X110280000Y-69380000D02*
X111300000Y-68330000D01*
X102430000Y-86620000D02*
X102670000Y-84530000D01*
X102070000Y-95730000D02*
X102350000Y-94520000D01*
X136260000Y-140505000D02*
X136260000Y-128320000D01*
X102980000Y-101170000D02*
X102720000Y-100470000D01*
X116275000Y-146195000D02*
X111940000Y-141860000D01*
X103313949Y-104613949D02*
X103320000Y-104607898D01*
X144850000Y-123010000D02*
X147860000Y-120000000D01*
X107230000Y-73210000D02*
X108910000Y-70980000D01*
X145645000Y-146195000D02*
X150000000Y-141840000D01*
X102040000Y-96900000D02*
X102070000Y-95730000D01*
X103320000Y-104607898D02*
X103320000Y-102140000D01*
X157600000Y-114410000D02*
X157600000Y-107040263D01*
X141570000Y-123010000D02*
X144850000Y-123010000D01*
X130570000Y-146060000D02*
X124660000Y-140150000D01*
X118010000Y-122920000D02*
X116720000Y-122920000D01*
X108910000Y-70980000D02*
X110280000Y-69380000D01*
X152420000Y-71250000D02*
X151580000Y-70270000D01*
X151580000Y-70270000D02*
X150780000Y-69450000D01*
X144340000Y-64520000D02*
X142250000Y-63490000D01*
X135520000Y-61360000D02*
X137170000Y-61740000D01*
X156910000Y-99080000D02*
X157150000Y-98120000D01*
X154210000Y-73810000D02*
X153410000Y-72530000D01*
X133290000Y-61040000D02*
X135520000Y-61360000D01*
X132010000Y-60940000D02*
X133290000Y-61040000D01*
X118400000Y-63360000D02*
X119010000Y-63240000D01*
X147970000Y-120870000D02*
X152360000Y-120870000D01*
X110150000Y-67380000D02*
X110150000Y-65230000D01*
X147440000Y-66520000D02*
X145750000Y-65330000D01*
X145750000Y-65330000D02*
X144340000Y-64520000D01*
X158100000Y-94510000D02*
X158370000Y-93000000D01*
X156857500Y-102705818D02*
X156910000Y-99080000D01*
X158430000Y-104400558D02*
X156857500Y-102705818D01*
X157920000Y-95380000D02*
X158100000Y-94510000D01*
X157010000Y-79410000D02*
X156380000Y-77860000D01*
X157420000Y-80500000D02*
X157010000Y-79410000D01*
X156380000Y-77860000D02*
X155570000Y-76190000D01*
X157890000Y-82140000D02*
X157420000Y-80500000D01*
X158620000Y-88440000D02*
X158620000Y-86940000D01*
X148770000Y-67600000D02*
X147440000Y-66520000D01*
X119540000Y-63000000D02*
X120440000Y-62620000D01*
X124160000Y-61430000D02*
X125220000Y-61240000D01*
X110150000Y-65230000D02*
X112020000Y-63360000D01*
X158550000Y-90410000D02*
X158620000Y-88440000D01*
X152360000Y-120870000D02*
X158430000Y-114800000D01*
X137170000Y-61740000D02*
X139520000Y-62450000D01*
X120440000Y-62620000D02*
X121440000Y-62250000D01*
X122340000Y-61930000D02*
X124160000Y-61430000D01*
X149940000Y-68650000D02*
X148770000Y-67600000D01*
X125220000Y-61240000D02*
X126300000Y-61070000D01*
X127260000Y-60950000D02*
X128500000Y-60870000D01*
X128500000Y-60870000D02*
X130280000Y-60870000D01*
X158620000Y-86940000D02*
X158460000Y-85120000D01*
X145130000Y-123710000D02*
X147970000Y-120870000D01*
X158250000Y-83760000D02*
X157890000Y-82140000D01*
X112020000Y-63360000D02*
X118400000Y-63360000D01*
X150780000Y-69450000D02*
X149940000Y-68650000D01*
X130280000Y-60870000D02*
X132010000Y-60940000D01*
X158460000Y-85120000D02*
X158250000Y-83760000D01*
X145130000Y-125050000D02*
X145130000Y-123710000D01*
X158430000Y-114800000D02*
X158430000Y-104400558D01*
X121440000Y-62250000D02*
X122340000Y-61930000D01*
X119010000Y-63240000D02*
X119540000Y-63000000D01*
X126300000Y-61070000D02*
X127260000Y-60950000D01*
X157150000Y-98120000D02*
X157550000Y-96800000D01*
X158470000Y-91600000D02*
X158550000Y-90410000D01*
X157550000Y-96800000D02*
X157920000Y-95380000D01*
X154710000Y-74660000D02*
X154210000Y-73810000D01*
X158370000Y-93000000D02*
X158470000Y-91600000D01*
X139520000Y-62450000D02*
X142250000Y-63490000D01*
X153410000Y-72530000D02*
X152420000Y-71250000D01*
X155570000Y-76190000D02*
X154710000Y-74660000D01*
X111040000Y-121660000D02*
X105325268Y-115945268D01*
X105325268Y-106625268D02*
X105110000Y-106410000D01*
X114420000Y-121660000D02*
X111040000Y-121660000D01*
X116360000Y-123600000D02*
X114420000Y-121660000D01*
X116360000Y-125040000D02*
X116360000Y-123600000D01*
X105325268Y-115945268D02*
X105325268Y-106625268D01*
M02*
